<svg width="460" height="445" viewBox="0 0 460 445" fill="none" xmlns="http://www.w3.org/2000/svg">
<g clip-path="url(#clip0)">
<rect y="1" width="460" height="444" fill="#6A2849"/>
<rect y="10" width="460" height="5.82524" fill="#B06278"/>
<rect y="63.8252" width="460" height="5.82524" fill="#B06278"/>
<rect y="117.651" width="460" height="5.82524" fill="#B06278"/>
<rect y="171.476" width="460" height="5.82524" fill="#B06278"/>
<rect y="225.301" width="460" height="5.82524" fill="#B06278"/>
<rect y="279.126" width="460" height="5.82524" fill="#B06278"/>
<rect y="332.951" width="460" height="5.82524" fill="#B06278"/>
<rect y="386.777" width="460" height="5.82524" fill="#B06278"/>
<rect y="440.602" width="460" height="5.82524" fill="#B06278"/>
<rect x="24" y="445" width="445" height="5" transform="rotate(-90 24 445)" fill="#B06278"/>
<rect x="67" y="445" width="445" height="5" transform="rotate(-90 67 445)" fill="#B06278"/>
<rect x="110" y="445" width="445" height="5" transform="rotate(-90 110 445)" fill="#B06278"/>
<rect x="153" y="445" width="445" height="5" transform="rotate(-90 153 445)" fill="#B06278"/>
<rect x="196" y="445" width="445" height="5" transform="rotate(-90 196 445)" fill="#B06278"/>
<rect x="239" y="445" width="445" height="5" transform="rotate(-90 239 445)" fill="#B06278"/>
<rect x="282" y="445" width="445" height="5" transform="rotate(-90 282 445)" fill="#B06278"/>
<rect x="325" y="445" width="445" height="5" transform="rotate(-90 325 445)" fill="#B06278"/>
<rect x="368" y="445" width="445" height="5" transform="rotate(-90 368 445)" fill="#B06278"/>
<rect x="411" y="445" width="445" height="5" transform="rotate(-90 411 445)" fill="#B06278"/>
<rect x="454" y="445" width="445" height="5" transform="rotate(-90 454 445)" fill="#B06278"/>
</g>
<defs>
<clipPath id="clip0">
<rect width="460" height="445" fill="white"/>
</clipPath>
</defs>
</svg>
