<svg width="636" height="550" viewBox="0 0 636 550" fill="none" xmlns="http://www.w3.org/2000/svg">
<g clip-path="url(#clip0)">
<rect y="50" width="636" height="151" rx="48" fill="white"/>
<path d="M53.695 79.114H56.33L59.244 86.771L62.189 79.114H64.824L61.011 88.693L64.793 97.776L72.233 78.99H75.271L66.064 101H63.646L59.275 90.615L54.873 101H52.455L43.279 78.99H46.286L53.757 97.776L57.508 88.693L53.695 79.114ZM82.7565 101.31C81.5372 101.31 80.4212 101.093 79.4085 100.659C78.3959 100.204 77.5279 99.5947 76.8045 98.83C76.0812 98.0653 75.5129 97.1767 75.0995 96.164C74.7069 95.1307 74.5105 94.0457 74.5105 92.909C74.5105 91.7723 74.7069 90.6977 75.0995 89.685C75.5129 88.6723 76.0812 87.7837 76.8045 87.019C77.5485 86.2543 78.4269 85.655 79.4395 85.221C80.4522 84.7663 81.5682 84.539 82.7875 84.539C84.0069 84.539 85.1125 84.7663 86.1045 85.221C87.1172 85.6757 87.9749 86.2853 88.6775 87.05C89.3802 87.794 89.9175 88.6723 90.2895 89.685C90.6822 90.677 90.8785 91.7103 90.8785 92.785C90.8785 93.0123 90.8682 93.219 90.8475 93.405C90.8475 93.591 90.8372 93.7357 90.8165 93.839H77.3935C77.4555 94.645 77.6415 95.3787 77.9515 96.04C78.2615 96.7013 78.6645 97.2697 79.1605 97.745C79.6565 98.2203 80.2145 98.5923 80.8345 98.861C81.4752 99.1297 82.1469 99.264 82.8495 99.264C83.3455 99.264 83.8312 99.202 84.3065 99.078C84.7819 98.9333 85.2262 98.7473 85.6395 98.52C86.0529 98.2927 86.4145 98.0137 86.7245 97.683C87.0552 97.3523 87.3032 96.9803 87.4685 96.567L89.8245 97.218C89.5559 97.8173 89.1839 98.365 88.7085 98.861C88.2539 99.357 87.7165 99.791 87.0965 100.163C86.4972 100.514 85.8255 100.793 85.0815 101C84.3375 101.207 83.5625 101.31 82.7565 101.31ZM88.3055 91.824C88.2435 91.0593 88.0472 90.3567 87.7165 89.716C87.4065 89.0547 87.0035 88.4967 86.5075 88.042C86.0322 87.5873 85.4742 87.236 84.8335 86.988C84.1929 86.7193 83.5109 86.585 82.7875 86.585C82.0642 86.585 81.3822 86.7193 80.7415 86.988C80.1009 87.236 79.5325 87.5977 79.0365 88.073C78.5612 88.5277 78.1685 89.0753 77.8585 89.716C77.5692 90.3567 77.3935 91.0593 77.3315 91.824H88.3055ZM93.973 78.37H96.701V96.815C96.701 97.4143 96.856 97.8897 97.166 98.241C97.4966 98.5717 97.9513 98.737 98.53 98.737C98.7573 98.737 99.026 98.706 99.336 98.644C99.646 98.5613 99.9353 98.4683 100.204 98.365L100.638 100.566C100.183 100.752 99.646 100.907 99.026 101.031C98.406 101.155 97.8583 101.217 97.383 101.217C96.329 101.217 95.492 100.917 94.872 100.318C94.2726 99.7187 93.973 98.8817 93.973 97.807V78.37ZM101.696 92.878C101.696 91.7413 101.892 90.6667 102.285 89.654C102.678 88.6413 103.236 87.763 103.959 87.019C104.682 86.2543 105.54 85.655 106.532 85.221C107.545 84.7663 108.671 84.539 109.911 84.539C111.523 84.539 112.908 84.9007 114.065 85.624C115.243 86.3267 116.132 87.2773 116.731 88.476L114.065 89.313C113.652 88.5483 113.073 87.9593 112.329 87.546C111.585 87.112 110.758 86.895 109.849 86.895C109.105 86.895 108.402 87.05 107.741 87.36C107.08 87.6493 106.511 88.0627 106.036 88.6C105.561 89.1373 105.178 89.7677 104.889 90.491C104.62 91.2143 104.486 92.01 104.486 92.878C104.486 93.7253 104.631 94.521 104.92 95.265C105.209 96.009 105.592 96.66 106.067 97.218C106.563 97.7553 107.131 98.179 107.772 98.489C108.433 98.799 109.136 98.954 109.88 98.954C110.355 98.954 110.82 98.892 111.275 98.768C111.75 98.6233 112.174 98.4373 112.546 98.21C112.939 97.9827 113.28 97.7243 113.569 97.435C113.858 97.125 114.065 96.7943 114.189 96.443L116.855 97.249C116.607 97.8483 116.256 98.396 115.801 98.892C115.367 99.388 114.85 99.8117 114.251 100.163C113.652 100.514 112.98 100.793 112.236 101C111.513 101.207 110.748 101.31 109.942 101.31C108.723 101.31 107.607 101.083 106.594 100.628C105.581 100.173 104.713 99.5637 103.99 98.799C103.267 98.0343 102.698 97.1457 102.285 96.133C101.892 95.0997 101.696 94.0147 101.696 92.878ZM126.863 101.31C125.643 101.31 124.527 101.083 123.515 100.628C122.523 100.173 121.665 99.5637 120.942 98.799C120.239 98.0343 119.691 97.1457 119.299 96.133C118.906 95.1203 118.71 94.056 118.71 92.94C118.71 91.8033 118.906 90.7287 119.299 89.716C119.712 88.7033 120.27 87.8147 120.973 87.05C121.696 86.2853 122.554 85.6757 123.546 85.221C124.558 84.7663 125.664 84.539 126.863 84.539C128.061 84.539 129.167 84.7663 130.18 85.221C131.192 85.6757 132.05 86.2853 132.753 87.05C133.476 87.8147 134.034 88.7033 134.427 89.716C134.84 90.7287 135.047 91.8033 135.047 92.94C135.047 94.056 134.85 95.1203 134.458 96.133C134.065 97.1457 133.507 98.0343 132.784 98.799C132.06 99.5637 131.192 100.173 130.18 100.628C129.188 101.083 128.082 101.31 126.863 101.31ZM121.5 92.971C121.5 93.8183 121.634 94.6037 121.903 95.327C122.192 96.0503 122.574 96.6807 123.05 97.218C123.546 97.7553 124.114 98.179 124.755 98.489C125.416 98.799 126.119 98.954 126.863 98.954C127.607 98.954 128.299 98.799 128.94 98.489C129.601 98.179 130.18 97.7553 130.676 97.218C131.172 96.66 131.554 96.0193 131.823 95.296C132.112 94.552 132.257 93.7563 132.257 92.909C132.257 92.0823 132.112 91.3073 131.823 90.584C131.554 89.84 131.172 89.1993 130.676 88.662C130.18 88.104 129.601 87.67 128.94 87.36C128.299 87.05 127.607 86.895 126.863 86.895C126.119 86.895 125.416 87.0603 124.755 87.391C124.114 87.701 123.546 88.135 123.05 88.693C122.574 89.2303 122.192 89.871 121.903 90.615C121.634 91.3383 121.5 92.1237 121.5 92.971ZM162.749 101H160.021V91.948C160.021 90.2533 159.742 89.003 159.184 88.197C158.647 87.391 157.841 86.988 156.766 86.988C155.65 86.988 154.648 87.391 153.759 88.197C152.891 88.9823 152.271 90.0053 151.899 91.266V101H149.171V91.948C149.171 90.212 148.903 88.9513 148.365 88.166C147.828 87.3807 147.022 86.988 145.947 86.988C144.852 86.988 143.86 87.3807 142.971 88.166C142.083 88.9307 141.452 89.9537 141.08 91.235V101H138.352V84.818H140.832V88.29C141.494 87.0913 142.351 86.1717 143.405 85.531C144.459 84.8697 145.648 84.539 146.97 84.539C148.334 84.539 149.409 84.911 150.194 85.655C151 86.3783 151.496 87.3187 151.682 88.476C153.129 85.8513 155.185 84.539 157.851 84.539C158.781 84.539 159.556 84.7147 160.176 85.066C160.817 85.3967 161.323 85.872 161.695 86.492C162.067 87.0913 162.336 87.8043 162.501 88.631C162.667 89.4577 162.749 90.3567 162.749 91.328V101ZM174.152 101.31C172.933 101.31 171.817 101.093 170.804 100.659C169.791 100.204 168.923 99.5947 168.2 98.83C167.477 98.0653 166.908 97.1767 166.495 96.164C166.102 95.1307 165.906 94.0457 165.906 92.909C165.906 91.7723 166.102 90.6977 166.495 89.685C166.908 88.6723 167.477 87.7837 168.2 87.019C168.944 86.2543 169.822 85.655 170.835 85.221C171.848 84.7663 172.964 84.539 174.183 84.539C175.402 84.539 176.508 84.7663 177.5 85.221C178.513 85.6757 179.37 86.2853 180.073 87.05C180.776 87.794 181.313 88.6723 181.685 89.685C182.078 90.677 182.274 91.7103 182.274 92.785C182.274 93.0123 182.264 93.219 182.243 93.405C182.243 93.591 182.233 93.7357 182.212 93.839H168.789C168.851 94.645 169.037 95.3787 169.347 96.04C169.657 96.7013 170.06 97.2697 170.556 97.745C171.052 98.2203 171.61 98.5923 172.23 98.861C172.871 99.1297 173.542 99.264 174.245 99.264C174.741 99.264 175.227 99.202 175.702 99.078C176.177 98.9333 176.622 98.7473 177.035 98.52C177.448 98.2927 177.81 98.0137 178.12 97.683C178.451 97.3523 178.699 96.9803 178.864 96.567L181.22 97.218C180.951 97.8173 180.579 98.365 180.104 98.861C179.649 99.357 179.112 99.791 178.492 100.163C177.893 100.514 177.221 100.793 176.477 101C175.733 101.207 174.958 101.31 174.152 101.31ZM179.701 91.824C179.639 91.0593 179.443 90.3567 179.112 89.716C178.802 89.0547 178.399 88.4967 177.903 88.042C177.428 87.5873 176.87 87.236 176.229 86.988C175.588 86.7193 174.906 86.585 174.183 86.585C173.46 86.585 172.778 86.7193 172.137 86.988C171.496 87.236 170.928 87.5977 170.432 88.073C169.957 88.5277 169.564 89.0753 169.254 89.716C168.965 90.3567 168.789 91.0593 168.727 91.824H179.701ZM201.517 100.194C201.352 100.277 201.135 100.38 200.866 100.504C200.598 100.607 200.288 100.721 199.936 100.845C199.606 100.948 199.234 101.031 198.82 101.093C198.428 101.176 198.014 101.217 197.58 101.217C196.588 101.217 195.731 100.948 195.007 100.411C194.284 99.853 193.922 98.9953 193.922 97.838V86.957H191.721V84.818H193.922V79.424H196.65V84.818H200.277V86.957H196.65V97.001C196.692 97.6003 196.888 98.0343 197.239 98.303C197.591 98.5717 198.004 98.706 198.479 98.706C199.017 98.706 199.502 98.6233 199.936 98.458C200.391 98.272 200.701 98.1273 200.866 98.024L201.517 100.194ZM210.902 101.31C209.682 101.31 208.566 101.083 207.554 100.628C206.562 100.173 205.704 99.5637 204.981 98.799C204.278 98.0343 203.73 97.1457 203.338 96.133C202.945 95.1203 202.749 94.056 202.749 92.94C202.749 91.8033 202.945 90.7287 203.338 89.716C203.751 88.7033 204.309 87.8147 205.012 87.05C205.735 86.2853 206.593 85.6757 207.585 85.221C208.597 84.7663 209.703 84.539 210.902 84.539C212.1 84.539 213.206 84.7663 214.219 85.221C215.231 85.6757 216.089 86.2853 216.792 87.05C217.515 87.8147 218.073 88.7033 218.466 89.716C218.879 90.7287 219.086 91.8033 219.086 92.94C219.086 94.056 218.889 95.1203 218.497 96.133C218.104 97.1457 217.546 98.0343 216.823 98.799C216.099 99.5637 215.231 100.173 214.219 100.628C213.227 101.083 212.121 101.31 210.902 101.31ZM205.539 92.971C205.539 93.8183 205.673 94.6037 205.942 95.327C206.231 96.0503 206.613 96.6807 207.089 97.218C207.585 97.7553 208.153 98.179 208.794 98.489C209.455 98.799 210.158 98.954 210.902 98.954C211.646 98.954 212.338 98.799 212.979 98.489C213.64 98.179 214.219 97.7553 214.715 97.218C215.211 96.66 215.593 96.0193 215.862 95.296C216.151 94.552 216.296 93.7563 216.296 92.909C216.296 92.0823 216.151 91.3073 215.862 90.584C215.593 89.84 215.211 89.1993 214.715 88.662C214.219 88.104 213.64 87.67 212.979 87.36C212.338 87.05 211.646 86.895 210.902 86.895C210.158 86.895 209.455 87.0603 208.794 87.391C208.153 87.701 207.585 88.135 207.089 88.693C206.613 89.2303 206.231 89.871 205.942 90.615C205.673 91.3383 205.539 92.1237 205.539 92.971ZM245.6 81.47H238.005V101H235.215V81.47H227.62V78.99H245.6V81.47ZM252.046 101.31C250.826 101.31 249.71 101.093 248.698 100.659C247.685 100.204 246.817 99.5947 246.094 98.83C245.37 98.0653 244.802 97.1767 244.389 96.164C243.996 95.1307 243.8 94.0457 243.8 92.909C243.8 91.7723 243.996 90.6977 244.389 89.685C244.802 88.6723 245.37 87.7837 246.094 87.019C246.838 86.2543 247.716 85.655 248.729 85.221C249.741 84.7663 250.857 84.539 252.077 84.539C253.296 84.539 254.402 84.7663 255.394 85.221C256.406 85.6757 257.264 86.2853 257.967 87.05C258.669 87.794 259.207 88.6723 259.579 89.685C259.971 90.677 260.168 91.7103 260.168 92.785C260.168 93.0123 260.157 93.219 260.137 93.405C260.137 93.591 260.126 93.7357 260.106 93.839H246.683C246.745 94.645 246.931 95.3787 247.241 96.04C247.551 96.7013 247.954 97.2697 248.45 97.745C248.946 98.2203 249.504 98.5923 250.124 98.861C250.764 99.1297 251.436 99.264 252.139 99.264C252.635 99.264 253.12 99.202 253.596 99.078C254.071 98.9333 254.515 98.7473 254.929 98.52C255.342 98.2927 255.704 98.0137 256.014 97.683C256.344 97.3523 256.592 96.9803 256.758 96.567L259.114 97.218C258.845 97.8173 258.473 98.365 257.998 98.861C257.543 99.357 257.006 99.791 256.386 100.163C255.786 100.514 255.115 100.793 254.371 101C253.627 101.207 252.852 101.31 252.046 101.31ZM257.595 91.824C257.533 91.0593 257.336 90.3567 257.006 89.716C256.696 89.0547 256.293 88.4967 255.797 88.042C255.321 87.5873 254.763 87.236 254.123 86.988C253.482 86.7193 252.8 86.585 252.077 86.585C251.353 86.585 250.671 86.7193 250.031 86.988C249.39 87.236 248.822 87.5977 248.326 88.073C247.85 88.5277 247.458 89.0753 247.148 89.716C246.858 90.3567 246.683 91.0593 246.621 91.824H257.595ZM262.115 92.878C262.115 91.7413 262.311 90.6667 262.704 89.654C263.097 88.6413 263.655 87.763 264.378 87.019C265.101 86.2543 265.959 85.655 266.951 85.221C267.964 84.7663 269.09 84.539 270.33 84.539C271.942 84.539 273.327 84.9007 274.484 85.624C275.662 86.3267 276.551 87.2773 277.15 88.476L274.484 89.313C274.071 88.5483 273.492 87.9593 272.748 87.546C272.004 87.112 271.177 86.895 270.268 86.895C269.524 86.895 268.821 87.05 268.16 87.36C267.499 87.6493 266.93 88.0627 266.455 88.6C265.98 89.1373 265.597 89.7677 265.308 90.491C265.039 91.2143 264.905 92.01 264.905 92.878C264.905 93.7253 265.05 94.521 265.339 95.265C265.628 96.009 266.011 96.66 266.486 97.218C266.982 97.7553 267.55 98.179 268.191 98.489C268.852 98.799 269.555 98.954 270.299 98.954C270.774 98.954 271.239 98.892 271.694 98.768C272.169 98.6233 272.593 98.4373 272.965 98.21C273.358 97.9827 273.699 97.7243 273.988 97.435C274.277 97.125 274.484 96.7943 274.608 96.443L277.274 97.249C277.026 97.8483 276.675 98.396 276.22 98.892C275.786 99.388 275.269 99.8117 274.67 100.163C274.071 100.514 273.399 100.793 272.655 101C271.932 101.207 271.167 101.31 270.361 101.31C269.142 101.31 268.026 101.083 267.013 100.628C266 100.173 265.132 99.5637 264.409 98.799C263.686 98.0343 263.117 97.1457 262.704 96.133C262.311 95.0997 262.115 94.0147 262.115 92.878ZM294.408 101H291.68V91.948C291.68 90.274 291.391 89.034 290.812 88.228C290.233 87.4013 289.386 86.988 288.27 86.988C287.733 86.988 287.195 87.1017 286.658 87.329C286.121 87.5357 285.614 87.825 285.139 88.197C284.684 88.569 284.271 89.0133 283.899 89.53C283.548 90.0467 283.279 90.615 283.093 91.235V101H280.365V78.37H283.093V88.29C283.734 87.112 284.602 86.1923 285.697 85.531C286.792 84.8697 287.991 84.539 289.293 84.539C290.244 84.539 291.05 84.7147 291.711 85.066C292.372 85.4173 292.899 85.8927 293.292 86.492C293.685 87.0913 293.964 87.8147 294.129 88.662C294.315 89.4887 294.408 90.3773 294.408 91.328V101ZM304.527 97.714C304.941 98.0033 305.499 98.2617 306.201 98.489C306.904 98.7163 307.7 98.83 308.588 98.83C309.642 98.83 310.479 98.644 311.099 98.272C311.719 97.9 312.184 97.3523 312.494 96.629C312.825 95.885 313.042 94.9757 313.145 93.901C313.249 92.8263 313.3 91.5863 313.3 90.181V78.99H316.09V90.181C316.09 91.855 316.008 93.3843 315.842 94.769C315.698 96.133 315.357 97.3007 314.819 98.272C314.303 99.2433 313.548 99.9977 312.556 100.535C311.585 101.072 310.262 101.341 308.588 101.341C306.728 101.341 305.137 100.886 303.814 99.977L304.527 97.714ZM327.485 101.31C326.265 101.31 325.149 101.083 324.137 100.628C323.145 100.173 322.287 99.5637 321.564 98.799C320.861 98.0343 320.313 97.1457 319.921 96.133C319.528 95.1203 319.332 94.056 319.332 92.94C319.332 91.8033 319.528 90.7287 319.921 89.716C320.334 88.7033 320.892 87.8147 321.595 87.05C322.318 86.2853 323.176 85.6757 324.168 85.221C325.18 84.7663 326.286 84.539 327.485 84.539C328.683 84.539 329.789 84.7663 330.802 85.221C331.814 85.6757 332.672 86.2853 333.375 87.05C334.098 87.8147 334.656 88.7033 335.049 89.716C335.462 90.7287 335.669 91.8033 335.669 92.94C335.669 94.056 335.472 95.1203 335.08 96.133C334.687 97.1457 334.129 98.0343 333.406 98.799C332.682 99.5637 331.814 100.173 330.802 100.628C329.81 101.083 328.704 101.31 327.485 101.31ZM322.122 92.971C322.122 93.8183 322.256 94.6037 322.525 95.327C322.814 96.0503 323.196 96.6807 323.672 97.218C324.168 97.7553 324.736 98.179 325.377 98.489C326.038 98.799 326.741 98.954 327.485 98.954C328.229 98.954 328.921 98.799 329.562 98.489C330.223 98.179 330.802 97.7553 331.298 97.218C331.794 96.66 332.176 96.0193 332.445 95.296C332.734 94.552 332.879 93.7563 332.879 92.909C332.879 92.0823 332.734 91.3073 332.445 90.584C332.176 89.84 331.794 89.1993 331.298 88.662C330.802 88.104 330.223 87.67 329.562 87.36C328.921 87.05 328.229 86.895 327.485 86.895C326.741 86.895 326.038 87.0603 325.377 87.391C324.736 87.701 324.168 88.135 323.672 88.693C323.196 89.2303 322.814 89.871 322.525 90.615C322.256 91.3383 322.122 92.1237 322.122 92.971ZM347.282 101.31C346.022 101.31 344.875 101 343.841 100.38C342.808 99.76 341.992 98.954 341.392 97.962V101H338.974V78.37H341.702V88.042C342.384 86.988 343.221 86.1407 344.213 85.5C345.205 84.8593 346.363 84.539 347.685 84.539C348.801 84.539 349.804 84.7767 350.692 85.252C351.581 85.7273 352.335 86.3577 352.955 87.143C353.596 87.9077 354.082 88.8067 354.412 89.84C354.764 90.8527 354.939 91.8963 354.939 92.971C354.939 94.1077 354.743 95.1823 354.35 96.195C353.958 97.2077 353.42 98.0963 352.738 98.861C352.056 99.605 351.24 100.204 350.289 100.659C349.359 101.093 348.357 101.31 347.282 101.31ZM346.6 98.954C347.406 98.954 348.15 98.7887 348.832 98.458C349.514 98.1273 350.103 97.683 350.599 97.125C351.095 96.567 351.478 95.9367 351.746 95.234C352.015 94.5107 352.149 93.7563 352.149 92.971C352.149 92.1857 352.015 91.4313 351.746 90.708C351.498 89.964 351.137 89.313 350.661 88.755C350.207 88.197 349.649 87.7527 348.987 87.422C348.347 87.0707 347.634 86.895 346.848 86.895C346.27 86.895 345.722 86.9983 345.205 87.205C344.689 87.4117 344.203 87.6907 343.748 88.042C343.314 88.3727 342.922 88.7653 342.57 89.22C342.24 89.6747 341.95 90.1603 341.702 90.677V95.358C341.806 95.8747 342.023 96.35 342.353 96.784C342.705 97.218 343.108 97.6003 343.562 97.931C344.038 98.241 344.534 98.489 345.05 98.675C345.588 98.861 346.104 98.954 346.6 98.954ZM365.138 89.84C365.138 88.5173 365.365 87.205 365.82 85.903C366.295 84.5803 366.977 83.4023 367.866 82.369C368.775 81.315 369.881 80.4677 371.183 79.827C372.485 79.1863 373.962 78.866 375.616 78.866C377.579 78.866 379.263 79.3103 380.669 80.199C382.074 81.0877 383.118 82.245 383.8 83.671L381.599 85.097C381.268 84.3943 380.865 83.8053 380.39 83.33C379.935 82.8547 379.429 82.4723 378.871 82.183C378.333 81.8937 377.775 81.687 377.197 81.563C376.618 81.439 376.05 81.377 375.492 81.377C374.272 81.377 373.187 81.6353 372.237 82.152C371.307 82.648 370.521 83.3093 369.881 84.136C369.24 84.942 368.754 85.8617 368.424 86.895C368.114 87.9077 367.959 88.9307 367.959 89.964C367.959 91.1213 368.145 92.227 368.517 93.281C368.909 94.3143 369.447 95.234 370.129 96.04C370.811 96.846 371.617 97.4867 372.547 97.962C373.477 98.4373 374.489 98.675 375.585 98.675C376.163 98.675 376.752 98.6027 377.352 98.458C377.972 98.3133 378.561 98.086 379.119 97.776C379.677 97.4453 380.193 97.0423 380.669 96.567C381.165 96.071 381.568 95.482 381.878 94.8L384.203 96.071C383.851 96.8977 383.355 97.6313 382.715 98.272C382.095 98.892 381.382 99.419 380.576 99.853C379.79 100.287 378.953 100.618 378.065 100.845C377.176 101.072 376.308 101.186 375.461 101.186C373.952 101.186 372.567 100.855 371.307 100.194C370.046 99.5327 368.951 98.675 368.021 97.621C367.111 96.5463 366.398 95.3373 365.882 93.994C365.386 92.63 365.138 91.2453 365.138 89.84ZM394.329 101.31C393.109 101.31 391.993 101.083 390.981 100.628C389.989 100.173 389.131 99.5637 388.408 98.799C387.705 98.0343 387.157 97.1457 386.765 96.133C386.372 95.1203 386.176 94.056 386.176 92.94C386.176 91.8033 386.372 90.7287 386.765 89.716C387.178 88.7033 387.736 87.8147 388.439 87.05C389.162 86.2853 390.02 85.6757 391.012 85.221C392.024 84.7663 393.13 84.539 394.329 84.539C395.527 84.539 396.633 84.7663 397.646 85.221C398.658 85.6757 399.516 86.2853 400.219 87.05C400.942 87.8147 401.5 88.7033 401.893 89.716C402.306 90.7287 402.513 91.8033 402.513 92.94C402.513 94.056 402.316 95.1203 401.924 96.133C401.531 97.1457 400.973 98.0343 400.25 98.799C399.526 99.5637 398.658 100.173 397.646 100.628C396.654 101.083 395.548 101.31 394.329 101.31ZM388.966 92.971C388.966 93.8183 389.1 94.6037 389.369 95.327C389.658 96.0503 390.04 96.6807 390.516 97.218C391.012 97.7553 391.58 98.179 392.221 98.489C392.882 98.799 393.585 98.954 394.329 98.954C395.073 98.954 395.765 98.799 396.406 98.489C397.067 98.179 397.646 97.7553 398.142 97.218C398.638 96.66 399.02 96.0193 399.289 95.296C399.578 94.552 399.723 93.7563 399.723 92.909C399.723 92.0823 399.578 91.3073 399.289 90.584C399.02 89.84 398.638 89.1993 398.142 88.662C397.646 88.104 397.067 87.67 396.406 87.36C395.765 87.05 395.073 86.895 394.329 86.895C393.585 86.895 392.882 87.0603 392.221 87.391C391.58 87.701 391.012 88.135 390.516 88.693C390.04 89.2303 389.658 89.871 389.369 90.615C389.1 91.3383 388.966 92.1237 388.966 92.971ZM414.374 87.205C413.01 87.2463 411.801 87.5977 410.747 88.259C409.714 88.9203 408.98 89.84 408.546 91.018V101H405.818V84.818H408.36V88.569C408.918 87.453 409.652 86.554 410.561 85.872C411.471 85.1693 412.442 84.7767 413.475 84.694C413.682 84.694 413.858 84.694 414.002 84.694C414.147 84.694 414.271 84.7043 414.374 84.725V87.205ZM425.791 101.31C424.448 101.31 423.259 100.979 422.226 100.318C421.213 99.6567 420.407 98.8197 419.808 97.807V107.603H417.08V84.818H419.498V87.856C420.139 86.864 420.965 86.0683 421.978 85.469C423.011 84.849 424.148 84.539 425.388 84.539C426.504 84.539 427.527 84.7663 428.457 85.221C429.387 85.6757 430.193 86.2957 430.875 87.081C431.557 87.8457 432.084 88.7343 432.456 89.747C432.849 90.7597 433.045 91.8137 433.045 92.909C433.045 94.0663 432.869 95.1617 432.518 96.195C432.167 97.2077 431.671 98.0963 431.03 98.861C430.389 99.605 429.625 100.204 428.736 100.659C427.847 101.093 426.866 101.31 425.791 101.31ZM424.954 98.954C425.76 98.954 426.483 98.7887 427.124 98.458C427.785 98.1067 428.343 97.652 428.798 97.094C429.273 96.5153 429.635 95.8643 429.883 95.141C430.131 94.4177 430.255 93.6737 430.255 92.909C430.255 92.103 430.11 91.3383 429.821 90.615C429.532 89.871 429.139 89.2303 428.643 88.693C428.147 88.135 427.558 87.701 426.876 87.391C426.215 87.0603 425.491 86.895 424.706 86.895C424.21 86.895 423.693 86.9983 423.156 87.205C422.639 87.391 422.143 87.6493 421.668 87.98C421.213 88.29 420.81 88.6723 420.459 89.127C420.128 89.561 419.911 90.026 419.808 90.522V95.141C420.035 95.6783 420.325 96.1847 420.676 96.66C421.027 97.1147 421.43 97.5177 421.885 97.869C422.34 98.1997 422.825 98.4683 423.342 98.675C423.859 98.861 424.396 98.954 424.954 98.954ZM436.177 101V97.528H438.471V101H436.177ZM450.936 101V78.99H453.726V101H450.936ZM472.068 101.31C470.766 101.31 469.485 101.114 468.224 100.721C466.964 100.308 465.879 99.7187 464.969 98.954L466.147 97.125C467.098 97.8483 468.049 98.396 468.999 98.768C469.95 99.1193 470.952 99.295 472.006 99.295C473.184 99.295 474.114 99.0677 474.796 98.613C475.499 98.1377 475.85 97.4763 475.85 96.629C475.85 96.2363 475.757 95.9057 475.571 95.637C475.385 95.3477 475.106 95.0997 474.734 94.893C474.362 94.6863 473.887 94.5003 473.308 94.335C472.73 94.1697 472.058 93.994 471.293 93.808C470.322 93.56 469.485 93.3223 468.782 93.095C468.08 92.8677 467.501 92.599 467.046 92.289C466.592 91.979 466.261 91.607 466.054 91.173C465.848 90.739 465.744 90.2017 465.744 89.561C465.744 88.755 465.899 88.042 466.209 87.422C466.54 86.7813 466.984 86.2543 467.542 85.841C468.1 85.407 468.751 85.0867 469.495 84.88C470.26 84.6527 471.076 84.539 471.944 84.539C473.164 84.539 474.3 84.7353 475.354 85.128C476.408 85.5207 477.297 86.0373 478.02 86.678L476.78 88.321C476.098 87.7217 475.334 87.2773 474.486 86.988C473.639 86.678 472.771 86.523 471.882 86.523C470.89 86.523 470.043 86.74 469.34 87.174C468.658 87.5873 468.317 88.259 468.317 89.189C468.317 89.561 468.379 89.871 468.503 90.119C468.648 90.367 468.875 90.584 469.185 90.77C469.495 90.956 469.888 91.1213 470.363 91.266C470.859 91.4107 471.448 91.5657 472.13 91.731C473.205 91.979 474.135 92.2373 474.92 92.506C475.726 92.754 476.388 93.0537 476.904 93.405C477.442 93.7563 477.834 94.1697 478.082 94.645C478.351 95.1203 478.485 95.699 478.485 96.381C478.485 97.8897 477.907 99.0883 476.749 99.977C475.592 100.866 474.032 101.31 472.068 101.31ZM488.875 101.31C487.655 101.31 486.539 101.093 485.527 100.659C484.514 100.204 483.646 99.5947 482.923 98.83C482.199 98.0653 481.631 97.1767 481.218 96.164C480.825 95.1307 480.629 94.0457 480.629 92.909C480.629 91.7723 480.825 90.6977 481.218 89.685C481.631 88.6723 482.199 87.7837 482.923 87.019C483.667 86.2543 484.545 85.655 485.558 85.221C486.57 84.7663 487.686 84.539 488.906 84.539C490.125 84.539 491.231 84.7663 492.223 85.221C493.235 85.6757 494.093 86.2853 494.796 87.05C495.498 87.794 496.036 88.6723 496.408 89.685C496.8 90.677 496.997 91.7103 496.997 92.785C496.997 93.0123 496.986 93.219 496.966 93.405C496.966 93.591 496.955 93.7357 496.935 93.839H483.512C483.574 94.645 483.76 95.3787 484.07 96.04C484.38 96.7013 484.783 97.2697 485.279 97.745C485.775 98.2203 486.333 98.5923 486.953 98.861C487.593 99.1297 488.265 99.264 488.968 99.264C489.464 99.264 489.949 99.202 490.425 99.078C490.9 98.9333 491.344 98.7473 491.758 98.52C492.171 98.2927 492.533 98.0137 492.843 97.683C493.173 97.3523 493.421 96.9803 493.587 96.567L495.943 97.218C495.674 97.8173 495.302 98.365 494.827 98.861C494.372 99.357 493.835 99.791 493.215 100.163C492.615 100.514 491.944 100.793 491.2 101C490.456 101.207 489.681 101.31 488.875 101.31ZM494.424 91.824C494.362 91.0593 494.165 90.3567 493.835 89.716C493.525 89.0547 493.122 88.4967 492.626 88.042C492.15 87.5873 491.592 87.236 490.952 86.988C490.311 86.7193 489.629 86.585 488.906 86.585C488.182 86.585 487.5 86.7193 486.86 86.988C486.219 87.236 485.651 87.5977 485.155 88.073C484.679 88.5277 484.287 89.0753 483.977 89.716C483.687 90.3567 483.512 91.0593 483.45 91.824H494.424ZM507.19 101.31C505.971 101.31 504.855 101.093 503.842 100.659C502.829 100.204 501.961 99.5947 501.238 98.83C500.515 98.0653 499.946 97.1767 499.533 96.164C499.14 95.1307 498.944 94.0457 498.944 92.909C498.944 91.7723 499.14 90.6977 499.533 89.685C499.946 88.6723 500.515 87.7837 501.238 87.019C501.982 86.2543 502.86 85.655 503.873 85.221C504.886 84.7663 506.002 84.539 507.221 84.539C508.44 84.539 509.546 84.7663 510.538 85.221C511.551 85.6757 512.408 86.2853 513.111 87.05C513.814 87.794 514.351 88.6723 514.723 89.685C515.116 90.677 515.312 91.7103 515.312 92.785C515.312 93.0123 515.302 93.219 515.281 93.405C515.281 93.591 515.271 93.7357 515.25 93.839H501.827C501.889 94.645 502.075 95.3787 502.385 96.04C502.695 96.7013 503.098 97.2697 503.594 97.745C504.09 98.2203 504.648 98.5923 505.268 98.861C505.909 99.1297 506.58 99.264 507.283 99.264C507.779 99.264 508.265 99.202 508.74 99.078C509.215 98.9333 509.66 98.7473 510.073 98.52C510.486 98.2927 510.848 98.0137 511.158 97.683C511.489 97.3523 511.737 96.9803 511.902 96.567L514.258 97.218C513.989 97.8173 513.617 98.365 513.142 98.861C512.687 99.357 512.15 99.791 511.53 100.163C510.931 100.514 510.259 100.793 509.515 101C508.771 101.207 507.996 101.31 507.19 101.31ZM512.739 91.824C512.677 91.0593 512.481 90.3567 512.15 89.716C511.84 89.0547 511.437 88.4967 510.941 88.042C510.466 87.5873 509.908 87.236 509.267 86.988C508.626 86.7193 507.944 86.585 507.221 86.585C506.498 86.585 505.816 86.7193 505.175 86.988C504.534 87.236 503.966 87.5977 503.47 88.073C502.995 88.5277 502.602 89.0753 502.292 89.716C502.003 90.3567 501.827 91.0593 501.765 91.824H512.739ZM526.082 105.402C526.35 105.443 526.619 105.474 526.888 105.495C527.156 105.516 527.363 105.526 527.508 105.526C527.756 105.526 527.973 105.464 528.159 105.34C528.365 105.237 528.562 105.02 528.748 104.689C528.954 104.358 529.182 103.893 529.43 103.294C529.678 102.715 529.988 101.951 530.36 101L523.509 84.818H526.33L531.848 98.551L536.87 84.818H539.474L531.6 105.247C531.31 105.97 530.825 106.601 530.143 107.138C529.481 107.696 528.562 107.975 527.384 107.975C527.198 107.975 527.001 107.965 526.795 107.944C526.609 107.923 526.371 107.882 526.082 107.82V105.402ZM548.723 101.31C547.504 101.31 546.388 101.083 545.375 100.628C544.383 100.173 543.525 99.5637 542.802 98.799C542.099 98.0343 541.552 97.1457 541.159 96.133C540.766 95.1203 540.57 94.056 540.57 92.94C540.57 91.8033 540.766 90.7287 541.159 89.716C541.572 88.7033 542.13 87.8147 542.833 87.05C543.556 86.2853 544.414 85.6757 545.406 85.221C546.419 84.7663 547.524 84.539 548.723 84.539C549.922 84.539 551.027 84.7663 552.04 85.221C553.053 85.6757 553.91 86.2853 554.613 87.05C555.336 87.8147 555.894 88.7033 556.287 89.716C556.7 90.7287 556.907 91.8033 556.907 92.94C556.907 94.056 556.711 95.1203 556.318 96.133C555.925 97.1457 555.367 98.0343 554.644 98.799C553.921 99.5637 553.053 100.173 552.04 100.628C551.048 101.083 549.942 101.31 548.723 101.31ZM543.36 92.971C543.36 93.8183 543.494 94.6037 543.763 95.327C544.052 96.0503 544.435 96.6807 544.91 97.218C545.406 97.7553 545.974 98.179 546.615 98.489C547.276 98.799 547.979 98.954 548.723 98.954C549.467 98.954 550.159 98.799 550.8 98.489C551.461 98.179 552.04 97.7553 552.536 97.218C553.032 96.66 553.414 96.0193 553.683 95.296C553.972 94.552 554.117 93.7563 554.117 92.909C554.117 92.0823 553.972 91.3073 553.683 90.584C553.414 89.84 553.032 89.1993 552.536 88.662C552.04 88.104 551.461 87.67 550.8 87.36C550.159 87.05 549.467 86.895 548.723 86.895C547.979 86.895 547.276 87.0603 546.615 87.391C545.974 87.701 545.406 88.135 544.91 88.693C544.435 89.2303 544.052 89.871 543.763 90.615C543.494 91.3383 543.36 92.1237 543.36 92.971ZM565.204 101.31C563.509 101.31 562.228 100.742 561.36 99.605C560.492 98.4683 560.058 96.7737 560.058 94.521V84.818H562.786V93.994C562.786 97.3007 563.933 98.954 566.227 98.954C567.343 98.954 568.386 98.6027 569.358 97.9C570.35 97.1767 571.083 96.195 571.559 94.955V84.818H574.287V97.652C574.287 98.2927 574.576 98.6233 575.155 98.644V101C574.845 101.041 574.597 101.062 574.411 101.062C574.245 101.083 574.08 101.093 573.915 101.093C573.377 101.093 572.923 100.938 572.551 100.628C572.199 100.297 572.013 99.8943 571.993 99.419L571.931 97.528C571.207 98.7473 570.257 99.6877 569.079 100.349C567.901 100.99 566.609 101.31 565.204 101.31ZM59.244 137H56.516V127.948C56.516 126.274 56.2267 125.034 55.648 124.228C55.0693 123.401 54.222 122.988 53.106 122.988C52.5687 122.988 52.0313 123.102 51.494 123.329C50.9567 123.536 50.4503 123.825 49.975 124.197C49.5203 124.569 49.107 125.013 48.735 125.53C48.3837 126.047 48.115 126.615 47.929 127.235V137H45.201V114.37H47.929V124.29C48.5697 123.112 49.4377 122.192 50.533 121.531C51.6283 120.87 52.827 120.539 54.129 120.539C55.0797 120.539 55.8857 120.715 56.547 121.066C57.2083 121.417 57.7353 121.893 58.128 122.492C58.5207 123.091 58.7997 123.815 58.965 124.662C59.151 125.489 59.244 126.377 59.244 127.328V137ZM67.6402 137.31C66.8755 137.31 66.1625 137.186 65.5012 136.938C64.8398 136.669 64.2612 136.308 63.7652 135.853C63.2898 135.398 62.9075 134.871 62.6182 134.272C62.3495 133.652 62.2152 132.98 62.2152 132.257C62.2152 131.513 62.3805 130.841 62.7112 130.242C63.0418 129.622 63.5068 129.095 64.1062 128.661C64.7262 128.227 65.4495 127.886 66.2762 127.638C67.1235 127.39 68.0432 127.266 69.0352 127.266C69.8205 127.266 70.6162 127.338 71.4222 127.483C72.2282 127.628 72.9412 127.824 73.5612 128.072V126.77C73.5612 125.447 73.1892 124.414 72.4452 123.67C71.7012 122.905 70.6472 122.523 69.2832 122.523C67.6505 122.523 65.9352 123.153 64.1372 124.414L63.2382 122.647C65.3255 121.242 67.4232 120.539 69.5312 120.539C71.6598 120.539 73.3132 121.107 74.4912 122.244C75.6898 123.381 76.2892 124.982 76.2892 127.049V133.652C76.2892 134.293 76.5785 134.623 77.1572 134.644V137C76.8678 137.041 76.6302 137.072 76.4442 137.093C76.2582 137.114 76.0618 137.124 75.8552 137.124C75.3178 137.124 74.8838 136.969 74.5532 136.659C74.2432 136.328 74.0572 135.936 73.9952 135.481L73.9332 134.334C73.2098 135.305 72.2902 136.049 71.1742 136.566C70.0788 137.062 68.9008 137.31 67.6402 137.31ZM68.3532 135.264C69.3245 135.264 70.2235 135.088 71.0502 134.737C71.8975 134.365 72.5382 133.879 72.9722 133.28C73.3648 132.887 73.5612 132.484 73.5612 132.071V129.684C72.2385 129.167 70.8642 128.909 69.4382 128.909C68.0742 128.909 66.9582 129.198 66.0902 129.777C65.2428 130.356 64.8192 131.11 64.8192 132.04C64.8192 132.495 64.9018 132.918 65.0672 133.311C65.2532 133.704 65.5012 134.045 65.8112 134.334C66.1418 134.623 66.5242 134.851 66.9582 135.016C67.3922 135.181 67.8572 135.264 68.3532 135.264ZM84.8175 137L78.4315 120.818H81.2525L86.3675 134.613L91.5135 120.818H94.1175L87.7315 137H84.8175ZM103.433 137.31C102.214 137.31 101.098 137.093 100.085 136.659C99.0726 136.204 98.2046 135.595 97.4813 134.83C96.758 134.065 96.1896 133.177 95.7763 132.164C95.3836 131.131 95.1873 130.046 95.1873 128.909C95.1873 127.772 95.3836 126.698 95.7763 125.685C96.1896 124.672 96.758 123.784 97.4813 123.019C98.2253 122.254 99.1036 121.655 100.116 121.221C101.129 120.766 102.245 120.539 103.464 120.539C104.684 120.539 105.789 120.766 106.781 121.221C107.794 121.676 108.652 122.285 109.354 123.05C110.057 123.794 110.594 124.672 110.966 125.685C111.359 126.677 111.555 127.71 111.555 128.785C111.555 129.012 111.545 129.219 111.524 129.405C111.524 129.591 111.514 129.736 111.493 129.839H98.0703C98.1323 130.645 98.3183 131.379 98.6283 132.04C98.9383 132.701 99.3413 133.27 99.8373 133.745C100.333 134.22 100.891 134.592 101.511 134.861C102.152 135.13 102.824 135.264 103.526 135.264C104.022 135.264 104.508 135.202 104.983 135.078C105.459 134.933 105.903 134.747 106.316 134.52C106.73 134.293 107.091 134.014 107.401 133.683C107.732 133.352 107.98 132.98 108.145 132.567L110.501 133.218C110.233 133.817 109.861 134.365 109.385 134.861C108.931 135.357 108.393 135.791 107.773 136.163C107.174 136.514 106.502 136.793 105.758 137C105.014 137.207 104.239 137.31 103.433 137.31ZM108.982 127.824C108.92 127.059 108.724 126.357 108.393 125.716C108.083 125.055 107.68 124.497 107.184 124.042C106.709 123.587 106.151 123.236 105.51 122.988C104.87 122.719 104.188 122.585 103.464 122.585C102.741 122.585 102.059 122.719 101.418 122.988C100.778 123.236 100.209 123.598 99.7133 124.073C99.238 124.528 98.8453 125.075 98.5353 125.716C98.246 126.357 98.0703 127.059 98.0083 127.824H108.982ZM126.583 137.31C125.818 137.31 125.105 137.186 124.444 136.938C123.782 136.669 123.204 136.308 122.708 135.853C122.232 135.398 121.85 134.871 121.561 134.272C121.292 133.652 121.158 132.98 121.158 132.257C121.158 131.513 121.323 130.841 121.654 130.242C121.984 129.622 122.449 129.095 123.049 128.661C123.669 128.227 124.392 127.886 125.219 127.638C126.066 127.39 126.986 127.266 127.978 127.266C128.763 127.266 129.559 127.338 130.365 127.483C131.171 127.628 131.884 127.824 132.504 128.072V126.77C132.504 125.447 132.132 124.414 131.388 123.67C130.644 122.905 129.59 122.523 128.226 122.523C126.593 122.523 124.878 123.153 123.08 124.414L122.181 122.647C124.268 121.242 126.366 120.539 128.474 120.539C130.602 120.539 132.256 121.107 133.434 122.244C134.632 123.381 135.232 124.982 135.232 127.049V133.652C135.232 134.293 135.521 134.623 136.1 134.644V137C135.81 137.041 135.573 137.072 135.387 137.093C135.201 137.114 135.004 137.124 134.798 137.124C134.26 137.124 133.826 136.969 133.496 136.659C133.186 136.328 133 135.936 132.938 135.481L132.876 134.334C132.152 135.305 131.233 136.049 130.117 136.566C129.021 137.062 127.843 137.31 126.583 137.31ZM127.296 135.264C128.267 135.264 129.166 135.088 129.993 134.737C130.84 134.365 131.481 133.879 131.915 133.28C132.307 132.887 132.504 132.484 132.504 132.071V129.684C131.181 129.167 129.807 128.909 128.381 128.909C127.017 128.909 125.901 129.198 125.033 129.777C124.185 130.356 123.762 131.11 123.762 132.04C123.762 132.495 123.844 132.918 124.01 133.311C124.196 133.704 124.444 134.045 124.754 134.334C125.084 134.623 125.467 134.851 125.901 135.016C126.335 135.181 126.8 135.264 127.296 135.264ZM153.637 137H150.909V127.948C150.909 126.212 150.64 124.951 150.103 124.166C149.586 123.381 148.79 122.988 147.716 122.988C147.158 122.988 146.6 123.102 146.042 123.329C145.484 123.536 144.957 123.825 144.461 124.197C143.965 124.569 143.531 125.013 143.159 125.53C142.787 126.047 142.508 126.615 142.322 127.235V137H139.594V120.818H142.074V124.29C142.714 123.153 143.634 122.244 144.833 121.562C146.052 120.88 147.375 120.539 148.801 120.539C149.731 120.539 150.506 120.715 151.126 121.066C151.746 121.397 152.242 121.872 152.614 122.492C152.986 123.091 153.244 123.804 153.389 124.631C153.554 125.458 153.637 126.357 153.637 127.328V137ZM165.72 137V120.818H168.448V137H165.72ZM165.72 117.78V114.37H168.448V117.78H165.72ZM186.907 137H184.179V127.948C184.179 126.212 183.91 124.951 183.373 124.166C182.856 123.381 182.061 122.988 180.986 122.988C180.428 122.988 179.87 123.102 179.312 123.329C178.754 123.536 178.227 123.825 177.731 124.197C177.235 124.569 176.801 125.013 176.429 125.53C176.057 126.047 175.778 126.615 175.592 127.235V137H172.864V120.818H175.344V124.29C175.985 123.153 176.904 122.244 178.103 121.562C179.322 120.88 180.645 120.539 182.071 120.539C183.001 120.539 183.776 120.715 184.396 121.066C185.016 121.397 185.512 121.872 185.884 122.492C186.256 123.091 186.514 123.804 186.659 124.631C186.824 125.458 186.907 126.357 186.907 127.328V137ZM199.368 136.194C199.203 136.277 198.986 136.38 198.717 136.504C198.448 136.607 198.138 136.721 197.787 136.845C197.456 136.948 197.084 137.031 196.671 137.093C196.278 137.176 195.865 137.217 195.431 137.217C194.439 137.217 193.581 136.948 192.858 136.411C192.135 135.853 191.773 134.995 191.773 133.838V122.957H189.572V120.818H191.773V115.424H194.501V120.818H198.128V122.957H194.501V133.001C194.542 133.6 194.739 134.034 195.09 134.303C195.441 134.572 195.855 134.706 196.33 134.706C196.867 134.706 197.353 134.623 197.787 134.458C198.242 134.272 198.552 134.127 198.717 134.024L199.368 136.194ZM208.845 137.31C207.626 137.31 206.51 137.093 205.497 136.659C204.485 136.204 203.617 135.595 202.893 134.83C202.17 134.065 201.602 133.177 201.188 132.164C200.796 131.131 200.599 130.046 200.599 128.909C200.599 127.772 200.796 126.698 201.188 125.685C201.602 124.672 202.17 123.784 202.893 123.019C203.637 122.254 204.516 121.655 205.528 121.221C206.541 120.766 207.657 120.539 208.876 120.539C210.096 120.539 211.201 120.766 212.193 121.221C213.206 121.676 214.064 122.285 214.766 123.05C215.469 123.794 216.006 124.672 216.378 125.685C216.771 126.677 216.967 127.71 216.967 128.785C216.967 129.012 216.957 129.219 216.936 129.405C216.936 129.591 216.926 129.736 216.905 129.839H203.482C203.544 130.645 203.73 131.379 204.04 132.04C204.35 132.701 204.753 133.27 205.249 133.745C205.745 134.22 206.303 134.592 206.923 134.861C207.564 135.13 208.236 135.264 208.938 135.264C209.434 135.264 209.92 135.202 210.395 135.078C210.871 134.933 211.315 134.747 211.728 134.52C212.142 134.293 212.503 134.014 212.813 133.683C213.144 133.352 213.392 132.98 213.557 132.567L215.913 133.218C215.645 133.817 215.273 134.365 214.797 134.861C214.343 135.357 213.805 135.791 213.185 136.163C212.586 136.514 211.914 136.793 211.17 137C210.426 137.207 209.651 137.31 208.845 137.31ZM214.394 127.824C214.332 127.059 214.136 126.357 213.805 125.716C213.495 125.055 213.092 124.497 212.596 124.042C212.121 123.587 211.563 123.236 210.922 122.988C210.282 122.719 209.6 122.585 208.876 122.585C208.153 122.585 207.471 122.719 206.83 122.988C206.19 123.236 205.621 123.598 205.125 124.073C204.65 124.528 204.257 125.075 203.947 125.716C203.658 126.357 203.482 127.059 203.42 127.824H214.394ZM228.556 123.205C227.192 123.246 225.983 123.598 224.929 124.259C223.895 124.92 223.162 125.84 222.728 127.018V137H220V120.818H222.542V124.569C223.1 123.453 223.833 122.554 224.743 121.872C225.652 121.169 226.623 120.777 227.657 120.694C227.863 120.694 228.039 120.694 228.184 120.694C228.328 120.694 228.452 120.704 228.556 120.725V123.205ZM235.943 137L229.557 120.818H232.378L237.493 134.613L242.639 120.818H245.243L238.857 137H235.943ZM247.942 137V120.818H250.67V137H247.942ZM247.942 117.78V114.37H250.67V117.78H247.942ZM262.248 137.31C261.028 137.31 259.912 137.093 258.9 136.659C257.887 136.204 257.019 135.595 256.296 134.83C255.572 134.065 255.004 133.177 254.591 132.164C254.198 131.131 254.002 130.046 254.002 128.909C254.002 127.772 254.198 126.698 254.591 125.685C255.004 124.672 255.572 123.784 256.296 123.019C257.04 122.254 257.918 121.655 258.931 121.221C259.943 120.766 261.059 120.539 262.279 120.539C263.498 120.539 264.604 120.766 265.596 121.221C266.608 121.676 267.466 122.285 268.169 123.05C268.871 123.794 269.409 124.672 269.781 125.685C270.173 126.677 270.37 127.71 270.37 128.785C270.37 129.012 270.359 129.219 270.339 129.405C270.339 129.591 270.328 129.736 270.308 129.839H256.885C256.947 130.645 257.133 131.379 257.443 132.04C257.753 132.701 258.156 133.27 258.652 133.745C259.148 134.22 259.706 134.592 260.326 134.861C260.966 135.13 261.638 135.264 262.341 135.264C262.837 135.264 263.322 135.202 263.798 135.078C264.273 134.933 264.717 134.747 265.131 134.52C265.544 134.293 265.906 134.014 266.216 133.683C266.546 133.352 266.794 132.98 266.96 132.567L269.316 133.218C269.047 133.817 268.675 134.365 268.2 134.861C267.745 135.357 267.208 135.791 266.588 136.163C265.988 136.514 265.317 136.793 264.573 137C263.829 137.207 263.054 137.31 262.248 137.31ZM267.797 127.824C267.735 127.059 267.538 126.357 267.208 125.716C266.898 125.055 266.495 124.497 265.999 124.042C265.523 123.587 264.965 123.236 264.325 122.988C263.684 122.719 263.002 122.585 262.279 122.585C261.555 122.585 260.873 122.719 260.233 122.988C259.592 123.236 259.024 123.598 258.528 124.073C258.052 124.528 257.66 125.075 257.35 125.716C257.06 126.357 256.885 127.059 256.823 127.824H267.797ZM293.252 120.818H295.887L289.005 137H286.742L283.487 129.095L280.263 137H278L271.118 120.818H273.722L279.302 134.303L282.03 127.576L279.24 120.849H281.503L283.487 126.026L285.471 120.849H287.734L284.975 127.576L287.703 134.303L293.252 120.818ZM296.889 137V133.528H299.183V137H296.889ZM326.581 117.47H318.986V137H316.196V117.47H308.601V114.99H326.581V117.47ZM330.323 137.31C329.558 137.31 328.845 137.186 328.184 136.938C327.522 136.669 326.944 136.308 326.448 135.853C325.972 135.398 325.59 134.871 325.301 134.272C325.032 133.652 324.898 132.98 324.898 132.257C324.898 131.513 325.063 130.841 325.394 130.242C325.724 129.622 326.189 129.095 326.789 128.661C327.409 128.227 328.132 127.886 328.959 127.638C329.806 127.39 330.726 127.266 331.718 127.266C332.503 127.266 333.299 127.338 334.105 127.483C334.911 127.628 335.624 127.824 336.244 128.072V126.77C336.244 125.447 335.872 124.414 335.128 123.67C334.384 122.905 333.33 122.523 331.966 122.523C330.333 122.523 328.618 123.153 326.82 124.414L325.921 122.647C328.008 121.242 330.106 120.539 332.214 120.539C334.342 120.539 335.996 121.107 337.174 122.244C338.372 123.381 338.972 124.982 338.972 127.049V133.652C338.972 134.293 339.261 134.623 339.84 134.644V137C339.55 137.041 339.313 137.072 339.127 137.093C338.941 137.114 338.744 137.124 338.538 137.124C338 137.124 337.566 136.969 337.236 136.659C336.926 136.328 336.74 135.936 336.678 135.481L336.616 134.334C335.892 135.305 334.973 136.049 333.857 136.566C332.761 137.062 331.583 137.31 330.323 137.31ZM331.036 135.264C332.007 135.264 332.906 135.088 333.733 134.737C334.58 134.365 335.221 133.879 335.655 133.28C336.047 132.887 336.244 132.484 336.244 132.071V129.684C334.921 129.167 333.547 128.909 332.121 128.909C330.757 128.909 329.641 129.198 328.773 129.777C327.925 130.356 327.502 131.11 327.502 132.04C327.502 132.495 327.584 132.918 327.75 133.311C327.936 133.704 328.184 134.045 328.494 134.334C328.824 134.623 329.207 134.851 329.641 135.016C330.075 135.181 330.54 135.264 331.036 135.264ZM354.742 137L349.162 129.095L346.062 132.009V137H343.334V114.37H346.062V129.25L354.37 120.849H357.377L350.929 127.545L357.687 137H354.742ZM366.358 137.31C365.139 137.31 364.023 137.093 363.01 136.659C361.997 136.204 361.129 135.595 360.406 134.83C359.683 134.065 359.114 133.177 358.701 132.164C358.308 131.131 358.112 130.046 358.112 128.909C358.112 127.772 358.308 126.698 358.701 125.685C359.114 124.672 359.683 123.784 360.406 123.019C361.15 122.254 362.028 121.655 363.041 121.221C364.054 120.766 365.17 120.539 366.389 120.539C367.608 120.539 368.714 120.766 369.706 121.221C370.719 121.676 371.576 122.285 372.279 123.05C372.982 123.794 373.519 124.672 373.891 125.685C374.284 126.677 374.48 127.71 374.48 128.785C374.48 129.012 374.47 129.219 374.449 129.405C374.449 129.591 374.439 129.736 374.418 129.839H360.995C361.057 130.645 361.243 131.379 361.553 132.04C361.863 132.701 362.266 133.27 362.762 133.745C363.258 134.22 363.816 134.592 364.436 134.861C365.077 135.13 365.748 135.264 366.451 135.264C366.947 135.264 367.433 135.202 367.908 135.078C368.383 134.933 368.828 134.747 369.241 134.52C369.654 134.293 370.016 134.014 370.326 133.683C370.657 133.352 370.905 132.98 371.07 132.567L373.426 133.218C373.157 133.817 372.785 134.365 372.31 134.861C371.855 135.357 371.318 135.791 370.698 136.163C370.099 136.514 369.427 136.793 368.683 137C367.939 137.207 367.164 137.31 366.358 137.31ZM371.907 127.824C371.845 127.059 371.649 126.357 371.318 125.716C371.008 125.055 370.605 124.497 370.109 124.042C369.634 123.587 369.076 123.236 368.435 122.988C367.794 122.719 367.112 122.585 366.389 122.585C365.666 122.585 364.984 122.719 364.343 122.988C363.702 123.236 363.134 123.598 362.638 124.073C362.163 124.528 361.77 125.075 361.46 125.716C361.171 126.357 360.995 127.059 360.933 127.824H371.907ZM389.507 137.31C388.743 137.31 388.03 137.186 387.368 136.938C386.707 136.669 386.128 136.308 385.632 135.853C385.157 135.398 384.775 134.871 384.485 134.272C384.217 133.652 384.082 132.98 384.082 132.257C384.082 131.513 384.248 130.841 384.578 130.242C384.909 129.622 385.374 129.095 385.973 128.661C386.593 128.227 387.317 127.886 388.143 127.638C388.991 127.39 389.91 127.266 390.902 127.266C391.688 127.266 392.483 127.338 393.289 127.483C394.095 127.628 394.808 127.824 395.428 128.072V126.77C395.428 125.447 395.056 124.414 394.312 123.67C393.568 122.905 392.514 122.523 391.15 122.523C389.518 122.523 387.802 123.153 386.004 124.414L385.105 122.647C387.193 121.242 389.29 120.539 391.398 120.539C393.527 120.539 395.18 121.107 396.358 122.244C397.557 123.381 398.156 124.982 398.156 127.049V133.652C398.156 134.293 398.446 134.623 399.024 134.644V137C398.735 137.041 398.497 137.072 398.311 137.093C398.125 137.114 397.929 137.124 397.722 137.124C397.185 137.124 396.751 136.969 396.42 136.659C396.11 136.328 395.924 135.936 395.862 135.481L395.8 134.334C395.077 135.305 394.157 136.049 393.041 136.566C391.946 137.062 390.768 137.31 389.507 137.31ZM390.22 135.264C391.192 135.264 392.091 135.088 392.917 134.737C393.765 134.365 394.405 133.879 394.839 133.28C395.232 132.887 395.428 132.484 395.428 132.071V129.684C394.106 129.167 392.731 128.909 391.305 128.909C389.941 128.909 388.825 129.198 387.957 129.777C387.11 130.356 386.686 131.11 386.686 132.04C386.686 132.495 386.769 132.918 386.934 133.311C387.12 133.704 387.368 134.045 387.678 134.334C388.009 134.623 388.391 134.851 388.825 135.016C389.259 135.181 389.724 135.264 390.22 135.264ZM416.032 137.31C414.73 137.31 413.449 137.114 412.188 136.721C410.928 136.308 409.843 135.719 408.933 134.954L410.111 133.125C411.062 133.848 412.013 134.396 412.963 134.768C413.914 135.119 414.916 135.295 415.97 135.295C417.148 135.295 418.078 135.068 418.76 134.613C419.463 134.138 419.814 133.476 419.814 132.629C419.814 132.236 419.721 131.906 419.535 131.637C419.349 131.348 419.07 131.1 418.698 130.893C418.326 130.686 417.851 130.5 417.272 130.335C416.694 130.17 416.022 129.994 415.257 129.808C414.286 129.56 413.449 129.322 412.746 129.095C412.044 128.868 411.465 128.599 411.01 128.289C410.556 127.979 410.225 127.607 410.018 127.173C409.812 126.739 409.708 126.202 409.708 125.561C409.708 124.755 409.863 124.042 410.173 123.422C410.504 122.781 410.948 122.254 411.506 121.841C412.064 121.407 412.715 121.087 413.459 120.88C414.224 120.653 415.04 120.539 415.908 120.539C417.128 120.539 418.264 120.735 419.318 121.128C420.372 121.521 421.261 122.037 421.984 122.678L420.744 124.321C420.062 123.722 419.298 123.277 418.45 122.988C417.603 122.678 416.735 122.523 415.846 122.523C414.854 122.523 414.007 122.74 413.304 123.174C412.622 123.587 412.281 124.259 412.281 125.189C412.281 125.561 412.343 125.871 412.467 126.119C412.612 126.367 412.839 126.584 413.149 126.77C413.459 126.956 413.852 127.121 414.327 127.266C414.823 127.411 415.412 127.566 416.094 127.731C417.169 127.979 418.099 128.237 418.884 128.506C419.69 128.754 420.352 129.054 420.868 129.405C421.406 129.756 421.798 130.17 422.046 130.645C422.315 131.12 422.449 131.699 422.449 132.381C422.449 133.89 421.871 135.088 420.713 135.977C419.556 136.866 417.996 137.31 416.032 137.31ZM432.839 137.31C431.619 137.31 430.503 137.093 429.491 136.659C428.478 136.204 427.61 135.595 426.887 134.83C426.163 134.065 425.595 133.177 425.182 132.164C424.789 131.131 424.593 130.046 424.593 128.909C424.593 127.772 424.789 126.698 425.182 125.685C425.595 124.672 426.163 123.784 426.887 123.019C427.631 122.254 428.509 121.655 429.522 121.221C430.534 120.766 431.65 120.539 432.87 120.539C434.089 120.539 435.195 120.766 436.187 121.221C437.199 121.676 438.057 122.285 438.76 123.05C439.462 123.794 440 124.672 440.372 125.685C440.764 126.677 440.961 127.71 440.961 128.785C440.961 129.012 440.95 129.219 440.93 129.405C440.93 129.591 440.919 129.736 440.899 129.839H427.476C427.538 130.645 427.724 131.379 428.034 132.04C428.344 132.701 428.747 133.27 429.243 133.745C429.739 134.22 430.297 134.592 430.917 134.861C431.557 135.13 432.229 135.264 432.932 135.264C433.428 135.264 433.913 135.202 434.389 135.078C434.864 134.933 435.308 134.747 435.722 134.52C436.135 134.293 436.497 134.014 436.807 133.683C437.137 133.352 437.385 132.98 437.551 132.567L439.907 133.218C439.638 133.817 439.266 134.365 438.791 134.861C438.336 135.357 437.799 135.791 437.179 136.163C436.579 136.514 435.908 136.793 435.164 137C434.42 137.207 433.645 137.31 432.839 137.31ZM438.388 127.824C438.326 127.059 438.129 126.357 437.799 125.716C437.489 125.055 437.086 124.497 436.59 124.042C436.114 123.587 435.556 123.236 434.916 122.988C434.275 122.719 433.593 122.585 432.87 122.585C432.146 122.585 431.464 122.719 430.824 122.988C430.183 123.236 429.615 123.598 429.119 124.073C428.643 124.528 428.251 125.075 427.941 125.716C427.651 126.357 427.476 127.059 427.414 127.824H438.388ZM448.147 137.31C447.382 137.31 446.669 137.186 446.008 136.938C445.347 136.669 444.768 136.308 444.272 135.853C443.797 135.398 443.414 134.871 443.125 134.272C442.856 133.652 442.722 132.98 442.722 132.257C442.722 131.513 442.887 130.841 443.218 130.242C443.549 129.622 444.014 129.095 444.613 128.661C445.233 128.227 445.956 127.886 446.783 127.638C447.63 127.39 448.55 127.266 449.542 127.266C450.327 127.266 451.123 127.338 451.929 127.483C452.735 127.628 453.448 127.824 454.068 128.072V126.77C454.068 125.447 453.696 124.414 452.952 123.67C452.208 122.905 451.154 122.523 449.79 122.523C448.157 122.523 446.442 123.153 444.644 124.414L443.745 122.647C445.832 121.242 447.93 120.539 450.038 120.539C452.167 120.539 453.82 121.107 454.998 122.244C456.197 123.381 456.796 124.982 456.796 127.049V133.652C456.796 134.293 457.085 134.623 457.664 134.644V137C457.375 137.041 457.137 137.072 456.951 137.093C456.765 137.114 456.569 137.124 456.362 137.124C455.825 137.124 455.391 136.969 455.06 136.659C454.75 136.328 454.564 135.936 454.502 135.481L454.44 134.334C453.717 135.305 452.797 136.049 451.681 136.566C450.586 137.062 449.408 137.31 448.147 137.31ZM448.86 135.264C449.831 135.264 450.73 135.088 451.557 134.737C452.404 134.365 453.045 133.879 453.479 133.28C453.872 132.887 454.068 132.484 454.068 132.071V129.684C452.745 129.167 451.371 128.909 449.945 128.909C448.581 128.909 447.465 129.198 446.597 129.777C445.75 130.356 445.326 131.11 445.326 132.04C445.326 132.495 445.409 132.918 445.574 133.311C445.76 133.704 446.008 134.045 446.318 134.334C446.649 134.623 447.031 134.851 447.465 135.016C447.899 135.181 448.364 135.264 448.86 135.264ZM469.407 136.194C469.242 136.277 469.025 136.38 468.756 136.504C468.487 136.607 468.177 136.721 467.826 136.845C467.495 136.948 467.123 137.031 466.71 137.093C466.317 137.176 465.904 137.217 465.47 137.217C464.478 137.217 463.62 136.948 462.897 136.411C462.174 135.853 461.812 134.995 461.812 133.838V122.957H459.611V120.818H461.812V115.424H464.54V120.818H468.167V122.957H464.54V133.001C464.581 133.6 464.778 134.034 465.129 134.303C465.48 134.572 465.894 134.706 466.369 134.706C466.906 134.706 467.392 134.623 467.826 134.458C468.281 134.272 468.591 134.127 468.756 134.024L469.407 136.194ZM483.93 137.31C483.166 137.31 482.453 137.186 481.791 136.938C481.13 136.669 480.551 136.308 480.055 135.853C479.58 135.398 479.198 134.871 478.908 134.272C478.64 133.652 478.505 132.98 478.505 132.257C478.505 131.513 478.671 130.841 479.001 130.242C479.332 129.622 479.797 129.095 480.396 128.661C481.016 128.227 481.74 127.886 482.566 127.638C483.414 127.39 484.333 127.266 485.325 127.266C486.111 127.266 486.906 127.338 487.712 127.483C488.518 127.628 489.231 127.824 489.851 128.072V126.77C489.851 125.447 489.479 124.414 488.735 123.67C487.991 122.905 486.937 122.523 485.573 122.523C483.941 122.523 482.225 123.153 480.427 124.414L479.528 122.647C481.616 121.242 483.713 120.539 485.821 120.539C487.95 120.539 489.603 121.107 490.781 122.244C491.98 123.381 492.579 124.982 492.579 127.049V133.652C492.579 134.293 492.869 134.623 493.447 134.644V137C493.158 137.041 492.92 137.072 492.734 137.093C492.548 137.114 492.352 137.124 492.145 137.124C491.608 137.124 491.174 136.969 490.843 136.659C490.533 136.328 490.347 135.936 490.285 135.481L490.223 134.334C489.5 135.305 488.58 136.049 487.464 136.566C486.369 137.062 485.191 137.31 483.93 137.31ZM484.643 135.264C485.615 135.264 486.514 135.088 487.34 134.737C488.188 134.365 488.828 133.879 489.262 133.28C489.655 132.887 489.851 132.484 489.851 132.071V129.684C488.529 129.167 487.154 128.909 485.728 128.909C484.364 128.909 483.248 129.198 482.38 129.777C481.533 130.356 481.109 131.11 481.109 132.04C481.109 132.495 481.192 132.918 481.357 133.311C481.543 133.704 481.791 134.045 482.101 134.334C482.432 134.623 482.814 134.851 483.248 135.016C483.682 135.181 484.147 135.264 484.643 135.264ZM510.984 137H508.256V127.948C508.256 126.212 507.988 124.951 507.45 124.166C506.934 123.381 506.138 122.988 505.063 122.988C504.505 122.988 503.947 123.102 503.389 123.329C502.831 123.536 502.304 123.825 501.808 124.197C501.312 124.569 500.878 125.013 500.506 125.53C500.134 126.047 499.855 126.615 499.669 127.235V137H496.941V120.818H499.421V124.29C500.062 123.153 500.982 122.244 502.18 121.562C503.4 120.88 504.722 120.539 506.148 120.539C507.078 120.539 507.853 120.715 508.473 121.066C509.093 121.397 509.589 121.872 509.961 122.492C510.333 123.091 510.592 123.804 510.736 124.631C510.902 125.458 510.984 126.357 510.984 127.328V137ZM521.891 137.31C520.775 137.31 519.742 137.083 518.791 136.628C517.841 136.173 517.024 135.564 516.342 134.799C515.66 134.034 515.123 133.146 514.73 132.133C514.358 131.12 514.172 130.056 514.172 128.94C514.172 127.803 514.348 126.729 514.699 125.716C515.071 124.683 515.578 123.784 516.218 123.019C516.88 122.254 517.655 121.655 518.543 121.221C519.453 120.766 520.445 120.539 521.519 120.539C522.821 120.539 523.979 120.88 524.991 121.562C526.025 122.244 526.841 123.071 527.44 124.042V114.37H530.168V133.652C530.168 134.293 530.458 134.623 531.036 134.644V137C530.747 137.041 530.509 137.072 530.323 137.093C530.158 137.114 529.993 137.124 529.827 137.124C529.29 137.124 528.815 136.948 528.401 136.597C528.009 136.225 527.812 135.801 527.812 135.326V133.962C527.172 135.016 526.314 135.843 525.239 136.442C524.185 137.021 523.069 137.31 521.891 137.31ZM522.542 134.954C523.038 134.954 523.545 134.861 524.061 134.675C524.599 134.489 525.095 134.231 525.549 133.9C526.025 133.569 526.428 133.187 526.758 132.753C527.11 132.298 527.337 131.823 527.44 131.327V126.677C527.254 126.16 526.975 125.675 526.603 125.22C526.231 124.745 525.808 124.342 525.332 124.011C524.878 123.66 524.382 123.391 523.844 123.205C523.328 122.998 522.811 122.895 522.294 122.895C521.488 122.895 520.755 123.071 520.093 123.422C519.453 123.753 518.895 124.207 518.419 124.786C517.965 125.344 517.613 125.995 517.365 126.739C517.117 127.462 516.993 128.206 516.993 128.971C516.993 129.777 517.138 130.552 517.427 131.296C517.717 132.019 518.109 132.65 518.605 133.187C519.101 133.724 519.68 134.158 520.341 134.489C521.023 134.799 521.757 134.954 522.542 134.954ZM53.571 172.194C53.4057 172.277 53.1887 172.38 52.92 172.504C52.6513 172.607 52.3413 172.721 51.99 172.845C51.6593 172.948 51.2873 173.031 50.874 173.093C50.4813 173.176 50.068 173.217 49.634 173.217C48.642 173.217 47.7843 172.948 47.061 172.411C46.3377 171.853 45.976 170.995 45.976 169.838V158.957H43.775V156.818H45.976V151.424H48.704V156.818H52.331V158.957H48.704V169.001C48.7453 169.6 48.9417 170.034 49.293 170.303C49.6443 170.572 50.0577 170.706 50.533 170.706C51.0703 170.706 51.556 170.623 51.99 170.458C52.4447 170.272 52.7547 170.127 52.92 170.024L53.571 172.194ZM70.1424 173H67.4144V163.948C67.4144 162.274 67.1251 161.034 66.5464 160.228C65.9678 159.401 65.1204 158.988 64.0044 158.988C63.4671 158.988 62.9298 159.102 62.3924 159.329C61.8551 159.536 61.3488 159.825 60.8734 160.197C60.4188 160.569 60.0054 161.013 59.6334 161.53C59.2821 162.047 59.0134 162.615 58.8274 163.235V173H56.0994V150.37H58.8274V160.29C59.4681 159.112 60.3361 158.192 61.4314 157.531C62.5268 156.87 63.7254 156.539 65.0274 156.539C65.9781 156.539 66.7841 156.715 67.4454 157.066C68.1068 157.417 68.6338 157.893 69.0264 158.492C69.4191 159.091 69.6981 159.815 69.8634 160.662C70.0494 161.489 70.1424 162.377 70.1424 163.328V173ZM81.5456 173.31C80.3263 173.31 79.2103 173.093 78.1976 172.659C77.1849 172.204 76.3169 171.595 75.5936 170.83C74.8703 170.065 74.3019 169.177 73.8886 168.164C73.4959 167.131 73.2996 166.046 73.2996 164.909C73.2996 163.772 73.4959 162.698 73.8886 161.685C74.3019 160.672 74.8703 159.784 75.5936 159.019C76.3376 158.254 77.2159 157.655 78.2286 157.221C79.2413 156.766 80.3573 156.539 81.5766 156.539C82.7959 156.539 83.9016 156.766 84.8936 157.221C85.9063 157.676 86.7639 158.285 87.4666 159.05C88.1693 159.794 88.7066 160.672 89.0786 161.685C89.4713 162.677 89.6676 163.71 89.6676 164.785C89.6676 165.012 89.6573 165.219 89.6366 165.405C89.6366 165.591 89.6263 165.736 89.6056 165.839H76.1826C76.2446 166.645 76.4306 167.379 76.7406 168.04C77.0506 168.701 77.4536 169.27 77.9496 169.745C78.4456 170.22 79.0036 170.592 79.6236 170.861C80.2643 171.13 80.9359 171.264 81.6386 171.264C82.1346 171.264 82.6203 171.202 83.0956 171.078C83.5709 170.933 84.0153 170.747 84.4286 170.52C84.8419 170.293 85.2036 170.014 85.5136 169.683C85.8443 169.352 86.0923 168.98 86.2576 168.567L88.6136 169.218C88.3449 169.817 87.9729 170.365 87.4976 170.861C87.0429 171.357 86.5056 171.791 85.8856 172.163C85.2863 172.514 84.6146 172.793 83.8706 173C83.1266 173.207 82.3516 173.31 81.5456 173.31ZM87.0946 163.824C87.0326 163.059 86.8363 162.357 86.5056 161.716C86.1956 161.055 85.7926 160.497 85.2966 160.042C84.8213 159.587 84.2633 159.236 83.6226 158.988C82.9819 158.719 82.2999 158.585 81.5766 158.585C80.8533 158.585 80.1713 158.719 79.5306 158.988C78.8899 159.236 78.3216 159.598 77.8256 160.073C77.3503 160.528 76.9576 161.075 76.6476 161.716C76.3583 162.357 76.1826 163.059 76.1206 163.824H87.0946ZM92.9899 177.402C93.2586 177.443 93.5273 177.474 93.7959 177.495C94.0646 177.516 94.2713 177.526 94.4159 177.526C94.6639 177.526 94.8809 177.464 95.0669 177.34C95.2736 177.237 95.4699 177.02 95.6559 176.689C95.8626 176.358 96.0899 175.893 96.3379 175.294C96.5859 174.715 96.8959 173.951 97.2679 173L90.4169 156.818H93.2379L98.7559 170.551L103.778 156.818H106.382L98.5079 177.247C98.2186 177.97 97.7329 178.601 97.0509 179.138C96.3896 179.696 95.4699 179.975 94.2919 179.975C94.1059 179.975 93.9096 179.965 93.7029 179.944C93.5169 179.923 93.2793 179.882 92.9899 179.82V177.402ZM109.139 157.469L109.759 153.904H108.829V150.37H111.402V153.904L110.472 157.469H109.139ZM115.407 150.37H118.135V168.815C118.135 169.414 118.29 169.89 118.6 170.241C118.93 170.572 119.385 170.737 119.964 170.737C120.191 170.737 120.46 170.706 120.77 170.644C121.08 170.561 121.369 170.468 121.638 170.365L122.072 172.566C121.617 172.752 121.08 172.907 120.46 173.031C119.84 173.155 119.292 173.217 118.817 173.217C117.763 173.217 116.926 172.917 116.306 172.318C115.706 171.719 115.407 170.882 115.407 169.807V150.37ZM124.277 150.37H127.005V168.815C127.005 169.414 127.16 169.89 127.47 170.241C127.8 170.572 128.255 170.737 128.834 170.737C129.061 170.737 129.33 170.706 129.64 170.644C129.95 170.561 130.239 170.468 130.508 170.365L130.942 172.566C130.487 172.752 129.95 172.907 129.33 173.031C128.71 173.155 128.162 173.217 127.687 173.217C126.633 173.217 125.796 172.917 125.176 172.318C124.576 171.719 124.277 170.882 124.277 169.807V150.37ZM148.295 173.31C147.034 173.31 145.887 173 144.854 172.38C143.821 171.76 143.004 170.954 142.405 169.962V173H139.987V150.37H142.715V160.042C143.397 158.988 144.234 158.141 145.226 157.5C146.218 156.859 147.375 156.539 148.698 156.539C149.814 156.539 150.816 156.777 151.705 157.252C152.594 157.727 153.348 158.358 153.968 159.143C154.609 159.908 155.094 160.807 155.425 161.84C155.776 162.853 155.952 163.896 155.952 164.971C155.952 166.108 155.756 167.182 155.363 168.195C154.97 169.208 154.433 170.096 153.751 170.861C153.069 171.605 152.253 172.204 151.302 172.659C150.372 173.093 149.37 173.31 148.295 173.31ZM147.613 170.954C148.419 170.954 149.163 170.789 149.845 170.458C150.527 170.127 151.116 169.683 151.612 169.125C152.108 168.567 152.49 167.937 152.759 167.234C153.028 166.511 153.162 165.756 153.162 164.971C153.162 164.186 153.028 163.431 152.759 162.708C152.511 161.964 152.149 161.313 151.674 160.755C151.219 160.197 150.661 159.753 150 159.422C149.359 159.071 148.646 158.895 147.861 158.895C147.282 158.895 146.735 158.998 146.218 159.205C145.701 159.412 145.216 159.691 144.761 160.042C144.327 160.373 143.934 160.765 143.583 161.22C143.252 161.675 142.963 162.16 142.715 162.677V167.358C142.818 167.875 143.035 168.35 143.366 168.784C143.717 169.218 144.12 169.6 144.575 169.931C145.05 170.241 145.546 170.489 146.063 170.675C146.6 170.861 147.117 170.954 147.613 170.954ZM166.463 173.31C165.243 173.31 164.127 173.093 163.115 172.659C162.102 172.204 161.234 171.595 160.511 170.83C159.787 170.065 159.219 169.177 158.806 168.164C158.413 167.131 158.217 166.046 158.217 164.909C158.217 163.772 158.413 162.698 158.806 161.685C159.219 160.672 159.787 159.784 160.511 159.019C161.255 158.254 162.133 157.655 163.146 157.221C164.158 156.766 165.274 156.539 166.494 156.539C167.713 156.539 168.819 156.766 169.811 157.221C170.823 157.676 171.681 158.285 172.384 159.05C173.086 159.794 173.624 160.672 173.996 161.685C174.388 162.677 174.585 163.71 174.585 164.785C174.585 165.012 174.574 165.219 174.554 165.405C174.554 165.591 174.543 165.736 174.523 165.839H161.1C161.162 166.645 161.348 167.379 161.658 168.04C161.968 168.701 162.371 169.27 162.867 169.745C163.363 170.22 163.921 170.592 164.541 170.861C165.181 171.13 165.853 171.264 166.556 171.264C167.052 171.264 167.537 171.202 168.013 171.078C168.488 170.933 168.932 170.747 169.346 170.52C169.759 170.293 170.121 170.014 170.431 169.683C170.761 169.352 171.009 168.98 171.175 168.567L173.531 169.218C173.262 169.817 172.89 170.365 172.415 170.861C171.96 171.357 171.423 171.791 170.803 172.163C170.203 172.514 169.532 172.793 168.788 173C168.044 173.207 167.269 173.31 166.463 173.31ZM172.012 163.824C171.95 163.059 171.753 162.357 171.423 161.716C171.113 161.055 170.71 160.497 170.214 160.042C169.738 159.587 169.18 159.236 168.54 158.988C167.899 158.719 167.217 158.585 166.494 158.585C165.77 158.585 165.088 158.719 164.448 158.988C163.807 159.236 163.239 159.598 162.743 160.073C162.267 160.528 161.875 161.075 161.565 161.716C161.275 162.357 161.1 163.059 161.038 163.824H172.012ZM204.854 156.818H207.489L200.607 173H198.344L195.089 165.095L191.865 173H189.602L182.72 156.818H185.324L190.904 170.303L193.632 163.576L190.842 156.849H193.105L195.089 162.026L197.073 156.849H199.336L196.577 163.576L199.305 170.303L204.854 156.818ZM210.04 173V156.818H212.768V173H210.04ZM210.04 153.78V150.37H212.768V153.78H210.04ZM225.554 172.194C225.389 172.277 225.172 172.38 224.903 172.504C224.635 172.607 224.325 172.721 223.973 172.845C223.643 172.948 223.271 173.031 222.857 173.093C222.465 173.176 222.051 173.217 221.617 173.217C220.625 173.217 219.768 172.948 219.044 172.411C218.321 171.853 217.959 170.995 217.959 169.838V158.957H215.758V156.818H217.959V151.424H220.687V156.818H224.314V158.957H220.687V169.001C220.729 169.6 220.925 170.034 221.276 170.303C221.628 170.572 222.041 170.706 222.516 170.706C223.054 170.706 223.539 170.623 223.973 170.458C224.428 170.272 224.738 170.127 224.903 170.024L225.554 172.194ZM242.126 173H239.398V163.948C239.398 162.274 239.109 161.034 238.53 160.228C237.951 159.401 237.104 158.988 235.988 158.988C235.451 158.988 234.913 159.102 234.376 159.329C233.839 159.536 233.332 159.825 232.857 160.197C232.402 160.569 231.989 161.013 231.617 161.53C231.266 162.047 230.997 162.615 230.811 163.235V173H228.083V150.37H230.811V160.29C231.452 159.112 232.32 158.192 233.415 157.531C234.51 156.87 235.709 156.539 237.011 156.539C237.962 156.539 238.768 156.715 239.429 157.066C240.09 157.417 240.617 157.893 241.01 158.492C241.403 159.091 241.682 159.815 241.847 160.662C242.033 161.489 242.126 162.377 242.126 163.328V173ZM254.105 177.402C254.374 177.443 254.642 177.474 254.911 177.495C255.18 177.516 255.386 177.526 255.531 177.526C255.779 177.526 255.996 177.464 256.182 177.34C256.389 177.237 256.585 177.02 256.771 176.689C256.978 176.358 257.205 175.893 257.453 175.294C257.701 174.715 258.011 173.951 258.383 173L251.532 156.818H254.353L259.871 170.551L264.893 156.818H267.497L259.623 177.247C259.334 177.97 258.848 178.601 258.166 179.138C257.505 179.696 256.585 179.975 255.407 179.975C255.221 179.975 255.025 179.965 254.818 179.944C254.632 179.923 254.394 179.882 254.105 179.82V177.402ZM276.747 173.31C275.527 173.31 274.411 173.083 273.399 172.628C272.407 172.173 271.549 171.564 270.826 170.799C270.123 170.034 269.575 169.146 269.183 168.133C268.79 167.12 268.594 166.056 268.594 164.94C268.594 163.803 268.79 162.729 269.183 161.716C269.596 160.703 270.154 159.815 270.857 159.05C271.58 158.285 272.438 157.676 273.43 157.221C274.442 156.766 275.548 156.539 276.747 156.539C277.945 156.539 279.051 156.766 280.064 157.221C281.076 157.676 281.934 158.285 282.637 159.05C283.36 159.815 283.918 160.703 284.311 161.716C284.724 162.729 284.931 163.803 284.931 164.94C284.931 166.056 284.734 167.12 284.342 168.133C283.949 169.146 283.391 170.034 282.668 170.799C281.944 171.564 281.076 172.173 280.064 172.628C279.072 173.083 277.966 173.31 276.747 173.31ZM271.384 164.971C271.384 165.818 271.518 166.604 271.787 167.327C272.076 168.05 272.458 168.681 272.934 169.218C273.43 169.755 273.998 170.179 274.639 170.489C275.3 170.799 276.003 170.954 276.747 170.954C277.491 170.954 278.183 170.799 278.824 170.489C279.485 170.179 280.064 169.755 280.56 169.218C281.056 168.66 281.438 168.019 281.707 167.296C281.996 166.552 282.141 165.756 282.141 164.909C282.141 164.082 281.996 163.307 281.707 162.584C281.438 161.84 281.056 161.199 280.56 160.662C280.064 160.104 279.485 159.67 278.824 159.36C278.183 159.05 277.491 158.895 276.747 158.895C276.003 158.895 275.3 159.06 274.639 159.391C273.998 159.701 273.43 160.135 272.934 160.693C272.458 161.23 272.076 161.871 271.787 162.615C271.518 163.338 271.384 164.124 271.384 164.971ZM293.227 173.31C291.532 173.31 290.251 172.742 289.383 171.605C288.515 170.468 288.081 168.774 288.081 166.521V156.818H290.809V165.994C290.809 169.301 291.956 170.954 294.25 170.954C295.366 170.954 296.41 170.603 297.381 169.9C298.373 169.177 299.107 168.195 299.582 166.955V156.818H302.31V169.652C302.31 170.293 302.599 170.623 303.178 170.644V173C302.868 173.041 302.62 173.062 302.434 173.062C302.269 173.083 302.103 173.093 301.938 173.093C301.401 173.093 300.946 172.938 300.574 172.628C300.223 172.297 300.037 171.894 300.016 171.419L299.954 169.528C299.231 170.747 298.28 171.688 297.102 172.349C295.924 172.99 294.632 173.31 293.227 173.31ZM320.368 173.31C319.066 173.31 317.785 173.114 316.524 172.721C315.263 172.308 314.178 171.719 313.269 170.954L314.447 169.125C315.398 169.848 316.348 170.396 317.299 170.768C318.25 171.119 319.252 171.295 320.306 171.295C321.484 171.295 322.414 171.068 323.096 170.613C323.799 170.138 324.15 169.476 324.15 168.629C324.15 168.236 324.057 167.906 323.871 167.637C323.685 167.348 323.406 167.1 323.034 166.893C322.662 166.686 322.187 166.5 321.608 166.335C321.029 166.17 320.358 165.994 319.593 165.808C318.622 165.56 317.785 165.322 317.082 165.095C316.379 164.868 315.801 164.599 315.346 164.289C314.891 163.979 314.561 163.607 314.354 163.173C314.147 162.739 314.044 162.202 314.044 161.561C314.044 160.755 314.199 160.042 314.509 159.422C314.84 158.781 315.284 158.254 315.842 157.841C316.4 157.407 317.051 157.087 317.795 156.88C318.56 156.653 319.376 156.539 320.244 156.539C321.463 156.539 322.6 156.735 323.654 157.128C324.708 157.521 325.597 158.037 326.32 158.678L325.08 160.321C324.398 159.722 323.633 159.277 322.786 158.988C321.939 158.678 321.071 158.523 320.182 158.523C319.19 158.523 318.343 158.74 317.64 159.174C316.958 159.587 316.617 160.259 316.617 161.189C316.617 161.561 316.679 161.871 316.803 162.119C316.948 162.367 317.175 162.584 317.485 162.77C317.795 162.956 318.188 163.121 318.663 163.266C319.159 163.411 319.748 163.566 320.43 163.731C321.505 163.979 322.435 164.237 323.22 164.506C324.026 164.754 324.687 165.054 325.204 165.405C325.741 165.756 326.134 166.17 326.382 166.645C326.651 167.12 326.785 167.699 326.785 168.381C326.785 169.89 326.206 171.088 325.049 171.977C323.892 172.866 322.331 173.31 320.368 173.31ZM344.057 173H341.329V163.948C341.329 162.274 341.039 161.034 340.461 160.228C339.882 159.401 339.035 158.988 337.919 158.988C337.381 158.988 336.844 159.102 336.307 159.329C335.769 159.536 335.263 159.825 334.788 160.197C334.333 160.569 333.92 161.013 333.548 161.53C333.196 162.047 332.928 162.615 332.742 163.235V173H330.014V150.37H332.742V160.29C333.382 159.112 334.25 158.192 335.346 157.531C336.441 156.87 337.64 156.539 338.942 156.539C339.892 156.539 340.698 156.715 341.36 157.066C342.021 157.417 342.548 157.893 342.941 158.492C343.333 159.091 343.612 159.815 343.778 160.662C343.964 161.489 344.057 162.377 344.057 163.328V173ZM355.367 173.31C354.147 173.31 353.031 173.083 352.019 172.628C351.027 172.173 350.169 171.564 349.446 170.799C348.743 170.034 348.195 169.146 347.803 168.133C347.41 167.12 347.214 166.056 347.214 164.94C347.214 163.803 347.41 162.729 347.803 161.716C348.216 160.703 348.774 159.815 349.477 159.05C350.2 158.285 351.058 157.676 352.05 157.221C353.062 156.766 354.168 156.539 355.367 156.539C356.565 156.539 357.671 156.766 358.684 157.221C359.696 157.676 360.554 158.285 361.257 159.05C361.98 159.815 362.538 160.703 362.931 161.716C363.344 162.729 363.551 163.803 363.551 164.94C363.551 166.056 363.354 167.12 362.962 168.133C362.569 169.146 362.011 170.034 361.288 170.799C360.564 171.564 359.696 172.173 358.684 172.628C357.692 173.083 356.586 173.31 355.367 173.31ZM350.004 164.971C350.004 165.818 350.138 166.604 350.407 167.327C350.696 168.05 351.078 168.681 351.554 169.218C352.05 169.755 352.618 170.179 353.259 170.489C353.92 170.799 354.623 170.954 355.367 170.954C356.111 170.954 356.803 170.799 357.444 170.489C358.105 170.179 358.684 169.755 359.18 169.218C359.676 168.66 360.058 168.019 360.327 167.296C360.616 166.552 360.761 165.756 360.761 164.909C360.761 164.082 360.616 163.307 360.327 162.584C360.058 161.84 359.676 161.199 359.18 160.662C358.684 160.104 358.105 159.67 357.444 159.36C356.803 159.05 356.111 158.895 355.367 158.895C354.623 158.895 353.92 159.06 353.259 159.391C352.618 159.701 352.05 160.135 351.554 160.693C351.078 161.23 350.696 161.871 350.407 162.615C350.138 163.338 350.004 164.124 350.004 164.971ZM375.412 159.205C374.048 159.246 372.839 159.598 371.785 160.259C370.752 160.92 370.018 161.84 369.584 163.018V173H366.856V156.818H369.398V160.569C369.956 159.453 370.69 158.554 371.599 157.872C372.509 157.169 373.48 156.777 374.513 156.694C374.72 156.694 374.896 156.694 375.04 156.694C375.185 156.694 375.309 156.704 375.412 156.725V159.205ZM386.488 172.194C386.323 172.277 386.106 172.38 385.837 172.504C385.568 172.607 385.258 172.721 384.907 172.845C384.576 172.948 384.204 173.031 383.791 173.093C383.398 173.176 382.985 173.217 382.551 173.217C381.559 173.217 380.701 172.948 379.978 172.411C379.255 171.853 378.893 170.995 378.893 169.838V158.957H376.692V156.818H378.893V151.424H381.621V156.818H385.248V158.957H381.621V169.001C381.662 169.6 381.859 170.034 382.21 170.303C382.561 170.572 382.975 170.706 383.45 170.706C383.987 170.706 384.473 170.623 384.907 170.458C385.362 170.272 385.672 170.127 385.837 170.024L386.488 172.194ZM389.078 150.37H391.806V168.815C391.806 169.414 391.961 169.89 392.271 170.241C392.602 170.572 393.057 170.737 393.635 170.737C393.863 170.737 394.131 170.706 394.441 170.644C394.751 170.561 395.041 170.468 395.309 170.365L395.743 172.566C395.289 172.752 394.751 172.907 394.131 173.031C393.511 173.155 392.964 173.217 392.488 173.217C391.434 173.217 390.597 172.917 389.977 172.318C389.378 171.719 389.078 170.882 389.078 169.807V150.37ZM398.055 177.402C398.324 177.443 398.593 177.474 398.861 177.495C399.13 177.516 399.337 177.526 399.481 177.526C399.729 177.526 399.946 177.464 400.132 177.34C400.339 177.237 400.535 177.02 400.721 176.689C400.928 176.358 401.155 175.893 401.403 175.294C401.651 174.715 401.961 173.951 402.333 173L395.482 156.818H398.303L403.821 170.551L408.843 156.818H411.447L403.573 177.247C403.284 177.97 402.798 178.601 402.116 179.138C401.455 179.696 400.535 179.975 399.357 179.975C399.171 179.975 398.975 179.965 398.768 179.944C398.582 179.923 398.345 179.882 398.055 179.82V177.402ZM412.715 173V169.528H415.009V173H412.715Z" fill="#011627"/>
<path d="M142.433 558.486V457.672V445.178V414.589H134V402.095H407.818H629.551H636V415.451H629.551V558.486H474.289V558.055H401.866V558.486H142.433Z" fill="white"/>
<path d="M290.751 398.771V402.526H372.599V398.771C372.599 396.562 370.808 394.771 368.599 394.771H345.316V365.043H385L386.984 374.091L398.393 371.075L397.401 365.043H405.338V309.897L412.282 309.036L409.802 294.387H405.338V285.771H342.34L339.86 275L325.474 277.154L326.962 284.909H304.64V282.755L290.751 280.17V284.909H251.067V288.787L245.115 299.557L251.067 303.866V365.043H318.53V394.771H294.751C292.542 394.771 290.751 396.562 290.751 398.771Z" fill="white"/>
<rect x="203.931" y="427" width="362.138" height="106" rx="46" fill="#011627" stroke="#011627" stroke-width="4"/>
<rect width="22.3299" height="11.6705" rx="2.77257" transform="matrix(-0.625804 0.751363 -0.865101 -0.543527 266.377 462.631)" fill="white"/>
<rect width="22.1331" height="11.6705" rx="2.77257" transform="matrix(-0.625804 0.751363 -0.865101 -0.543527 255.271 455.653)" fill="white"/>
<path d="M296.57 456.974H288.852V477H284.194V456.974H276.476V452.86H296.57V456.974ZM303.502 477.34C302.074 477.34 300.782 477.102 299.626 476.626C298.47 476.127 297.484 475.459 296.668 474.62C295.852 473.781 295.217 472.807 294.764 471.696C294.333 470.585 294.118 469.418 294.118 468.194C294.118 466.925 294.333 465.735 294.764 464.624C295.195 463.491 295.818 462.505 296.634 461.666C297.45 460.805 298.436 460.125 299.592 459.626C300.771 459.127 302.085 458.878 303.536 458.878C304.987 458.878 306.279 459.127 307.412 459.626C308.568 460.125 309.543 460.793 310.336 461.632C311.152 462.471 311.764 463.445 312.172 464.556C312.603 465.667 312.818 466.823 312.818 468.024C312.818 468.319 312.807 468.602 312.784 468.874C312.784 469.146 312.761 469.373 312.716 469.554H298.946C299.014 470.257 299.184 470.88 299.456 471.424C299.728 471.968 300.079 472.433 300.51 472.818C300.941 473.203 301.428 473.498 301.972 473.702C302.516 473.906 303.083 474.008 303.672 474.008C304.579 474.008 305.429 473.793 306.222 473.362C307.038 472.909 307.593 472.319 307.888 471.594L311.798 472.682C311.141 474.042 310.087 475.164 308.636 476.048C307.208 476.909 305.497 477.34 303.502 477.34ZM308.126 466.596C308.013 465.259 307.514 464.193 306.63 463.4C305.769 462.584 304.715 462.176 303.468 462.176C302.856 462.176 302.278 462.289 301.734 462.516C301.213 462.72 300.748 463.015 300.34 463.4C299.932 463.785 299.592 464.25 299.32 464.794C299.071 465.338 298.923 465.939 298.878 466.596H308.126ZM314.472 468.092C314.472 466.845 314.687 465.667 315.118 464.556C315.548 463.445 316.172 462.471 316.988 461.632C317.804 460.793 318.79 460.125 319.946 459.626C321.102 459.127 322.405 458.878 323.856 458.878C325.805 458.878 327.46 459.297 328.82 460.136C330.202 460.975 331.234 462.074 331.914 463.434L327.46 464.794C327.074 464.137 326.564 463.638 325.93 463.298C325.295 462.935 324.592 462.754 323.822 462.754C323.164 462.754 322.552 462.89 321.986 463.162C321.419 463.411 320.92 463.774 320.49 464.25C320.082 464.703 319.753 465.259 319.504 465.916C319.277 466.573 319.164 467.299 319.164 468.092C319.164 468.885 319.288 469.611 319.538 470.268C319.787 470.925 320.116 471.492 320.524 471.968C320.954 472.444 321.453 472.818 322.02 473.09C322.586 473.339 323.187 473.464 323.822 473.464C324.638 473.464 325.386 473.26 326.066 472.852C326.768 472.444 327.256 471.945 327.528 471.356L331.982 472.716C331.37 474.076 330.361 475.187 328.956 476.048C327.55 476.909 325.862 477.34 323.89 477.34C322.439 477.34 321.136 477.091 319.98 476.592C318.824 476.093 317.838 475.425 317.022 474.586C316.206 473.725 315.571 472.739 315.118 471.628C314.687 470.495 314.472 469.316 314.472 468.092ZM351.343 477H346.787V467.004C346.787 465.599 346.526 464.567 346.005 463.91C345.484 463.23 344.747 462.89 343.795 462.89C343.387 462.89 342.956 462.981 342.503 463.162C342.05 463.343 341.619 463.604 341.211 463.944C340.803 464.261 340.429 464.647 340.089 465.1C339.749 465.553 339.5 466.052 339.341 466.596V477H334.785V452.18H339.341V462.482C339.998 461.326 340.882 460.442 341.993 459.83C343.126 459.195 344.373 458.878 345.733 458.878C346.889 458.878 347.83 459.082 348.555 459.49C349.28 459.875 349.847 460.397 350.255 461.054C350.663 461.711 350.946 462.459 351.105 463.298C351.264 464.137 351.343 464.998 351.343 465.882V477ZM361.761 472.07C362.078 472.297 362.611 472.546 363.359 472.818C364.107 473.09 364.968 473.226 365.943 473.226C366.895 473.226 367.654 473.067 368.221 472.75C368.787 472.41 369.218 471.9 369.513 471.22C369.807 470.54 370 469.701 370.091 468.704C370.181 467.684 370.227 466.494 370.227 465.134V452.86H374.919V465.134C374.919 466.97 374.817 468.647 374.613 470.166C374.431 471.662 374.023 472.943 373.389 474.008C372.777 475.073 371.881 475.901 370.703 476.49C369.524 477.079 367.937 477.374 365.943 477.374C363.903 477.374 362.157 476.875 360.707 475.878L361.761 472.07ZM387.206 477.34C385.756 477.34 384.452 477.091 383.296 476.592C382.14 476.093 381.154 475.425 380.338 474.586C379.545 473.725 378.933 472.739 378.502 471.628C378.072 470.517 377.856 469.35 377.856 468.126C377.856 466.879 378.072 465.701 378.502 464.59C378.933 463.479 379.545 462.505 380.338 461.666C381.154 460.805 382.14 460.125 383.296 459.626C384.452 459.127 385.756 458.878 387.206 458.878C388.657 458.878 389.949 459.127 391.082 459.626C392.238 460.125 393.213 460.805 394.006 461.666C394.822 462.505 395.446 463.479 395.876 464.59C396.307 465.701 396.522 466.879 396.522 468.126C396.522 469.35 396.307 470.517 395.876 471.628C395.446 472.739 394.834 473.725 394.04 474.586C393.247 475.425 392.272 476.093 391.116 476.592C389.96 477.091 388.657 477.34 387.206 477.34ZM382.548 468.126C382.548 468.919 382.662 469.645 382.888 470.302C383.138 470.937 383.466 471.492 383.874 471.968C384.305 472.444 384.804 472.818 385.37 473.09C385.937 473.339 386.549 473.464 387.206 473.464C387.864 473.464 388.476 473.339 389.042 473.09C389.609 472.818 390.096 472.444 390.504 471.968C390.935 471.492 391.264 470.925 391.49 470.268C391.74 469.611 391.864 468.885 391.864 468.092C391.864 467.321 391.74 466.607 391.49 465.95C391.264 465.293 390.935 464.726 390.504 464.25C390.096 463.774 389.609 463.411 389.042 463.162C388.476 462.89 387.864 462.754 387.206 462.754C386.549 462.754 385.937 462.89 385.37 463.162C384.804 463.434 384.305 463.808 383.874 464.284C383.466 464.76 383.138 465.327 382.888 465.984C382.662 466.641 382.548 467.355 382.548 468.126ZM409.729 477.34C408.369 477.34 407.157 477.034 406.091 476.422C405.026 475.81 404.187 474.971 403.575 473.906V477H399.597V452.18H404.153V462.312C404.788 461.224 405.615 460.385 406.635 459.796C407.678 459.184 408.891 458.878 410.273 458.878C411.429 458.878 412.483 459.127 413.435 459.626C414.387 460.125 415.203 460.793 415.883 461.632C416.586 462.471 417.119 463.457 417.481 464.59C417.867 465.723 418.059 466.913 418.059 468.16C418.059 469.452 417.844 470.653 417.413 471.764C417.005 472.875 416.427 473.849 415.679 474.688C414.931 475.504 414.047 476.15 413.027 476.626C412.007 477.102 410.908 477.34 409.729 477.34ZM408.471 473.464C409.197 473.464 409.865 473.328 410.477 473.056C411.089 472.761 411.611 472.376 412.041 471.9C412.472 471.424 412.801 470.869 413.027 470.234C413.277 469.599 413.401 468.919 413.401 468.194C413.401 467.469 413.288 466.777 413.061 466.12C412.835 465.463 412.506 464.885 412.075 464.386C411.667 463.887 411.18 463.491 410.613 463.196C410.047 462.901 409.423 462.754 408.743 462.754C407.723 462.754 406.805 463.094 405.989 463.774C405.196 464.431 404.584 465.247 404.153 466.222V470.472C404.312 470.925 404.539 471.333 404.833 471.696C405.151 472.059 405.502 472.376 405.887 472.648C406.273 472.897 406.692 473.101 407.145 473.26C407.599 473.396 408.041 473.464 408.471 473.464ZM428.294 464.76C428.294 463.287 428.555 461.836 429.076 460.408C429.62 458.957 430.402 457.665 431.422 456.532C432.442 455.399 433.689 454.481 435.162 453.778C436.636 453.075 438.313 452.724 440.194 452.724C442.416 452.724 444.331 453.211 445.94 454.186C447.572 455.161 448.785 456.43 449.578 457.994L445.974 460.476C445.657 459.796 445.272 459.229 444.818 458.776C444.365 458.3 443.878 457.926 443.356 457.654C442.835 457.382 442.291 457.189 441.724 457.076C441.158 456.94 440.602 456.872 440.058 456.872C438.88 456.872 437.848 457.11 436.964 457.586C436.103 458.062 435.378 458.685 434.788 459.456C434.222 460.204 433.791 461.065 433.496 462.04C433.202 462.992 433.054 463.944 433.054 464.896C433.054 465.961 433.224 466.993 433.564 467.99C433.904 468.965 434.38 469.826 434.992 470.574C435.627 471.322 436.375 471.923 437.236 472.376C438.12 472.829 439.084 473.056 440.126 473.056C440.67 473.056 441.237 472.988 441.826 472.852C442.416 472.716 442.971 472.501 443.492 472.206C444.036 471.911 444.535 471.537 444.988 471.084C445.442 470.608 445.804 470.041 446.076 469.384L449.918 471.594C449.533 472.501 448.978 473.305 448.252 474.008C447.55 474.688 446.745 475.266 445.838 475.742C444.954 476.218 444.002 476.581 442.982 476.83C441.962 477.079 440.965 477.204 439.99 477.204C438.268 477.204 436.692 476.841 435.264 476.116C433.836 475.391 432.601 474.45 431.558 473.294C430.538 472.115 429.734 470.789 429.144 469.316C428.578 467.82 428.294 466.301 428.294 464.76ZM460.851 477.34C459.4 477.34 458.097 477.091 456.941 476.592C455.785 476.093 454.799 475.425 453.983 474.586C453.189 473.725 452.577 472.739 452.147 471.628C451.716 470.517 451.501 469.35 451.501 468.126C451.501 466.879 451.716 465.701 452.147 464.59C452.577 463.479 453.189 462.505 453.983 461.666C454.799 460.805 455.785 460.125 456.941 459.626C458.097 459.127 459.4 458.878 460.851 458.878C462.301 458.878 463.593 459.127 464.727 459.626C465.883 460.125 466.857 460.805 467.651 461.666C468.467 462.505 469.09 463.479 469.521 464.59C469.951 465.701 470.167 466.879 470.167 468.126C470.167 469.35 469.951 470.517 469.521 471.628C469.09 472.739 468.478 473.725 467.685 474.586C466.891 475.425 465.917 476.093 464.761 476.592C463.605 477.091 462.301 477.34 460.851 477.34ZM456.193 468.126C456.193 468.919 456.306 469.645 456.533 470.302C456.782 470.937 457.111 471.492 457.519 471.968C457.949 472.444 458.448 472.818 459.015 473.09C459.581 473.339 460.193 473.464 460.851 473.464C461.508 473.464 462.12 473.339 462.687 473.09C463.253 472.818 463.741 472.444 464.149 471.968C464.579 471.492 464.908 470.925 465.135 470.268C465.384 469.611 465.509 468.885 465.509 468.092C465.509 467.321 465.384 466.607 465.135 465.95C464.908 465.293 464.579 464.726 464.149 464.25C463.741 463.774 463.253 463.411 462.687 463.162C462.12 462.89 461.508 462.754 460.851 462.754C460.193 462.754 459.581 462.89 459.015 463.162C458.448 463.434 457.949 463.808 457.519 464.284C457.111 464.76 456.782 465.327 456.533 465.984C456.306 466.641 456.193 467.355 456.193 468.126ZM483.85 463.128C482.467 463.151 481.232 463.423 480.144 463.944C479.056 464.443 478.274 465.202 477.798 466.222V477H473.242V459.184H477.424V462.992C477.741 462.38 478.115 461.836 478.546 461.36C478.977 460.861 479.441 460.431 479.94 460.068C480.439 459.705 480.937 459.433 481.436 459.252C481.957 459.048 482.456 458.946 482.932 458.946C483.181 458.946 483.363 458.946 483.476 458.946C483.612 458.946 483.737 458.957 483.85 458.98V463.128ZM497.066 477.34C495.661 477.34 494.437 477.034 493.394 476.422C492.352 475.787 491.536 474.937 490.946 473.872V484.242H486.39V459.184H490.368V462.244C491.026 461.201 491.876 460.385 492.918 459.796C493.961 459.184 495.162 458.878 496.522 458.878C497.724 458.878 498.834 459.127 499.854 459.626C500.874 460.102 501.747 460.759 502.472 461.598C503.22 462.414 503.798 463.389 504.206 464.522C504.637 465.633 504.852 466.811 504.852 468.058C504.852 469.35 504.66 470.563 504.274 471.696C503.889 472.829 503.345 473.815 502.642 474.654C501.962 475.493 501.146 476.15 500.194 476.626C499.242 477.102 498.2 477.34 497.066 477.34ZM495.536 473.464C496.216 473.464 496.84 473.317 497.406 473.022C497.996 472.727 498.494 472.331 498.902 471.832C499.31 471.333 499.628 470.755 499.854 470.098C500.081 469.441 500.194 468.761 500.194 468.058C500.194 467.31 500.07 466.619 499.82 465.984C499.571 465.327 499.22 464.76 498.766 464.284C498.336 463.808 497.814 463.434 497.202 463.162C496.613 462.89 495.967 462.754 495.264 462.754C494.834 462.754 494.392 462.833 493.938 462.992C493.485 463.128 493.066 463.332 492.68 463.604C492.295 463.876 491.944 464.193 491.626 464.556C491.332 464.919 491.105 465.315 490.946 465.746V469.928C491.354 470.948 491.978 471.798 492.816 472.478C493.655 473.135 494.562 473.464 495.536 473.464Z" fill="white"/>
<path d="M283.136 503V485.96H290.336C291.072 485.96 291.744 486.12 292.352 486.44C292.976 486.744 293.512 487.152 293.96 487.664C294.408 488.16 294.752 488.728 294.992 489.368C295.248 490.008 295.376 490.656 295.376 491.312C295.376 491.936 295.28 492.536 295.088 493.112C294.912 493.672 294.656 494.184 294.32 494.648C294 495.096 293.608 495.48 293.144 495.8C292.68 496.104 292.16 496.312 291.584 496.424L295.76 503H293.864L289.856 496.712H284.816V503H283.136ZM284.816 495.224H290.384C290.88 495.224 291.328 495.12 291.728 494.912C292.144 494.688 292.496 494.392 292.784 494.024C293.072 493.656 293.296 493.24 293.456 492.776C293.616 492.312 293.696 491.824 293.696 491.312C293.696 490.8 293.6 490.312 293.408 489.848C293.232 489.368 292.984 488.952 292.664 488.6C292.36 488.248 291.992 487.968 291.56 487.76C291.144 487.552 290.704 487.448 290.24 487.448H284.816V495.224ZM303.528 503.24C302.616 503.24 301.776 503.072 301.008 502.736C300.256 502.384 299.6 501.912 299.04 501.32C298.48 500.712 298.04 500.016 297.72 499.232C297.416 498.448 297.264 497.608 297.264 496.712C297.264 495.832 297.416 495.008 297.72 494.24C298.04 493.456 298.472 492.776 299.016 492.2C299.576 491.608 300.24 491.144 301.008 490.808C301.776 490.456 302.608 490.28 303.504 490.28C304.416 490.28 305.248 490.456 306 490.808C306.768 491.144 307.424 491.608 307.968 492.2C308.512 492.792 308.936 493.472 309.24 494.24C309.544 495.008 309.696 495.824 309.696 496.688C309.696 496.816 309.696 496.944 309.696 497.072C309.696 497.2 309.688 497.288 309.672 497.336H298.968C299.016 498.008 299.168 498.632 299.424 499.208C299.696 499.768 300.04 500.256 300.456 500.672C300.872 501.088 301.344 501.416 301.872 501.656C302.416 501.88 302.992 501.992 303.6 501.992C304 501.992 304.4 501.936 304.8 501.824C305.2 501.712 305.568 501.56 305.904 501.368C306.24 501.176 306.544 500.944 306.816 500.672C307.088 500.384 307.296 500.072 307.44 499.736L308.856 500.12C308.664 500.584 308.392 501.008 308.04 501.392C307.688 501.76 307.28 502.088 306.816 502.376C306.352 502.648 305.84 502.856 305.28 503C304.72 503.16 304.136 503.24 303.528 503.24ZM308.136 496.088C308.088 495.416 307.928 494.808 307.656 494.264C307.4 493.704 307.064 493.224 306.648 492.824C306.248 492.424 305.776 492.112 305.232 491.888C304.704 491.664 304.136 491.552 303.528 491.552C302.92 491.552 302.344 491.664 301.8 491.888C301.256 492.112 300.776 492.424 300.36 492.824C299.96 493.224 299.632 493.704 299.376 494.264C299.136 494.824 298.992 495.432 298.944 496.088H308.136ZM311.35 496.712C311.35 495.832 311.502 495 311.806 494.216C312.11 493.432 312.534 492.752 313.078 492.176C313.638 491.584 314.302 491.12 315.07 490.784C315.838 490.448 316.686 490.28 317.614 490.28C318.798 490.28 319.83 490.552 320.71 491.096C321.59 491.624 322.254 492.344 322.702 493.256L321.118 493.76C320.766 493.12 320.27 492.624 319.63 492.272C319.006 491.904 318.31 491.72 317.542 491.72C316.902 491.72 316.302 491.848 315.742 492.104C315.198 492.36 314.718 492.712 314.302 493.16C313.902 493.592 313.582 494.112 313.342 494.72C313.118 495.328 313.006 495.992 313.006 496.712C313.006 497.416 313.126 498.08 313.366 498.704C313.606 499.328 313.934 499.872 314.35 500.336C314.766 500.784 315.246 501.144 315.79 501.416C316.35 501.672 316.942 501.8 317.566 501.8C317.966 501.8 318.358 501.744 318.742 501.632C319.142 501.52 319.51 501.368 319.846 501.176C320.182 500.968 320.47 500.736 320.71 500.48C320.95 500.224 321.118 499.952 321.214 499.664L322.822 500.144C322.646 500.592 322.39 501.008 322.054 501.392C321.718 501.76 321.318 502.088 320.854 502.376C320.406 502.648 319.902 502.856 319.342 503C318.798 503.16 318.23 503.24 317.638 503.24C316.726 503.24 315.886 503.072 315.118 502.736C314.35 502.384 313.686 501.912 313.126 501.32C312.566 500.712 312.126 500.016 311.806 499.232C311.502 498.448 311.35 497.608 311.35 496.712ZM330.669 503.24C329.757 503.24 328.917 503.072 328.149 502.736C327.397 502.384 326.741 501.912 326.181 501.32C325.621 500.712 325.181 500.016 324.861 499.232C324.557 498.448 324.405 497.608 324.405 496.712C324.405 495.832 324.557 495.008 324.861 494.24C325.181 493.456 325.613 492.776 326.157 492.2C326.717 491.608 327.381 491.144 328.149 490.808C328.917 490.456 329.749 490.28 330.645 490.28C331.557 490.28 332.389 490.456 333.141 490.808C333.909 491.144 334.565 491.608 335.109 492.2C335.653 492.792 336.077 493.472 336.381 494.24C336.685 495.008 336.837 495.824 336.837 496.688C336.837 496.816 336.837 496.944 336.837 497.072C336.837 497.2 336.829 497.288 336.813 497.336H326.109C326.157 498.008 326.309 498.632 326.565 499.208C326.837 499.768 327.181 500.256 327.597 500.672C328.013 501.088 328.485 501.416 329.013 501.656C329.557 501.88 330.133 501.992 330.741 501.992C331.141 501.992 331.541 501.936 331.941 501.824C332.341 501.712 332.709 501.56 333.045 501.368C333.381 501.176 333.685 500.944 333.957 500.672C334.229 500.384 334.437 500.072 334.581 499.736L335.997 500.12C335.805 500.584 335.533 501.008 335.181 501.392C334.829 501.76 334.421 502.088 333.957 502.376C333.493 502.648 332.981 502.856 332.421 503C331.861 503.16 331.277 503.24 330.669 503.24ZM335.277 496.088C335.229 495.416 335.069 494.808 334.797 494.264C334.541 493.704 334.205 493.224 333.789 492.824C333.389 492.424 332.917 492.112 332.373 491.888C331.845 491.664 331.277 491.552 330.669 491.552C330.061 491.552 329.485 491.664 328.941 491.888C328.397 492.112 327.917 492.424 327.501 492.824C327.101 493.224 326.773 493.704 326.517 494.264C326.277 494.824 326.133 495.432 326.085 496.088H335.277ZM345.739 503.24C344.683 503.24 343.747 502.976 342.931 502.448C342.131 501.904 341.483 501.224 340.987 500.408V508.112H339.355V490.496H340.819V492.92C341.331 492.136 341.995 491.504 342.811 491.024C343.627 490.528 344.515 490.28 345.475 490.28C346.339 490.28 347.131 490.464 347.851 490.832C348.571 491.184 349.195 491.664 349.723 492.272C350.251 492.864 350.659 493.552 350.947 494.336C351.251 495.12 351.403 495.928 351.403 496.76C351.403 497.64 351.267 498.472 350.995 499.256C350.723 500.04 350.331 500.728 349.819 501.32C349.323 501.912 348.723 502.384 348.019 502.736C347.331 503.072 346.571 503.24 345.739 503.24ZM345.283 501.8C345.955 501.8 346.563 501.656 347.107 501.368C347.667 501.08 348.139 500.704 348.523 500.24C348.923 499.76 349.227 499.224 349.435 498.632C349.643 498.024 349.747 497.4 349.747 496.76C349.747 496.088 349.627 495.448 349.387 494.84C349.147 494.232 348.819 493.696 348.403 493.232C347.987 492.768 347.491 492.4 346.915 492.128C346.355 491.856 345.747 491.72 345.091 491.72C344.675 491.72 344.235 491.808 343.771 491.984C343.323 492.144 342.899 492.368 342.499 492.656C342.115 492.928 341.779 493.256 341.491 493.64C341.219 494.008 341.051 494.4 340.987 494.816V498.656C341.179 499.104 341.419 499.52 341.707 499.904C342.011 500.288 342.347 500.624 342.715 500.912C343.099 501.184 343.507 501.4 343.939 501.56C344.371 501.72 344.819 501.8 345.283 501.8ZM360.003 502.4C359.907 502.448 359.763 502.512 359.571 502.592C359.395 502.672 359.187 502.752 358.947 502.832C358.707 502.912 358.435 502.984 358.131 503.048C357.827 503.112 357.507 503.144 357.171 503.144C356.819 503.144 356.483 503.096 356.163 503C355.843 502.904 355.563 502.76 355.323 502.568C355.083 502.36 354.891 502.104 354.747 501.8C354.603 501.496 354.531 501.144 354.531 500.744V491.792H352.803V490.496H354.531V486.272H356.163V490.496H359.043V491.792H356.163V500.288C356.195 500.752 356.355 501.096 356.643 501.32C356.947 501.528 357.291 501.632 357.675 501.632C358.139 501.632 358.547 501.56 358.899 501.416C359.251 501.256 359.475 501.144 359.571 501.08L360.003 502.4ZM362.042 503V490.496H363.674V503H362.042ZM362.042 487.88V485.48H363.674V487.88H362.042ZM372.597 503.24C371.685 503.24 370.853 503.072 370.101 502.736C369.349 502.384 368.693 501.912 368.133 501.32C367.589 500.728 367.165 500.04 366.861 499.256C366.557 498.472 366.405 497.648 366.405 496.784C366.405 495.904 366.557 495.072 366.861 494.288C367.181 493.504 367.613 492.816 368.157 492.224C368.717 491.632 369.373 491.16 370.125 490.808C370.877 490.456 371.701 490.28 372.597 490.28C373.493 490.28 374.317 490.456 375.069 490.808C375.837 491.16 376.493 491.632 377.037 492.224C377.597 492.816 378.029 493.504 378.333 494.288C378.653 495.072 378.813 495.904 378.813 496.784C378.813 497.648 378.661 498.472 378.357 499.256C378.053 500.04 377.621 500.728 377.061 501.32C376.517 501.912 375.861 502.384 375.093 502.736C374.341 503.072 373.509 503.24 372.597 503.24ZM368.061 496.808C368.061 497.512 368.181 498.168 368.421 498.776C368.661 499.368 368.981 499.896 369.381 500.36C369.797 500.808 370.277 501.16 370.821 501.416C371.381 501.672 371.973 501.8 372.597 501.8C373.221 501.8 373.805 501.672 374.349 501.416C374.909 501.144 375.397 500.784 375.813 500.336C376.229 499.872 376.557 499.336 376.797 498.728C377.037 498.12 377.157 497.464 377.157 496.76C377.157 496.072 377.037 495.424 376.797 494.816C376.557 494.192 376.229 493.656 375.813 493.208C375.397 492.744 374.909 492.384 374.349 492.128C373.805 491.856 373.221 491.72 372.597 491.72C371.973 491.72 371.389 491.856 370.845 492.128C370.301 492.384 369.821 492.744 369.405 493.208C368.989 493.672 368.661 494.216 368.421 494.84C368.181 495.448 368.061 496.104 368.061 496.808ZM392.054 503H390.422V496.016C390.422 494.528 390.198 493.448 389.75 492.776C389.318 492.104 388.646 491.768 387.734 491.768C387.254 491.768 386.774 491.856 386.294 492.032C385.814 492.208 385.366 492.456 384.95 492.776C384.55 493.096 384.19 493.48 383.87 493.928C383.55 494.36 383.318 494.832 383.174 495.344V503H381.542V490.496H383.03V493.328C383.542 492.416 384.27 491.68 385.214 491.12C386.174 490.56 387.214 490.28 388.334 490.28C389.022 490.28 389.606 490.408 390.086 490.664C390.566 490.92 390.95 491.28 391.238 491.744C391.526 492.208 391.734 492.776 391.862 493.448C391.99 494.12 392.054 494.864 392.054 495.68V503Z" fill="white"/>
<path d="M37.9236 492.673C32.0737 490.584 20.374 484.901 20.374 478.884C25.1096 477.77 35.2494 476.21 37.9236 478.884C32.3523 473.034 21.544 458.66 22.8811 447.963C26.781 447.406 36.5029 448.297 44.1913 456.32C39.1771 446.57 30.6531 422.057 36.6701 402C48.9676 408.422 73.3295 424.764 74.2495 439.584C74.0884 432.367 75.2816 417.448 81.3797 409.103C84.1653 415.232 88.9009 431.583 85.5582 447.963C89.8759 441.138 100.768 427.907 109.793 429.578C109.793 437.238 106.701 457.239 94.3329 475.959C99.9042 472.895 113.637 467.686 124 471.363C121.493 477.212 113.387 489.915 101.018 493.926L37.9236 492.673Z" fill="white"/>
<path d="M37.9236 492.673C32.0737 490.584 20.374 484.901 20.374 478.884C25.1096 477.77 35.2494 476.21 37.9236 478.884C32.3523 473.034 21.544 458.66 22.8811 447.963C26.781 447.406 36.5029 448.297 44.1913 456.32C39.1771 446.57 30.6531 422.057 36.6701 402C49.2055 408.546 74.2763 425.399 74.2763 440.442C73.9977 433.617 75.0284 417.795 81.3797 409.103C84.1653 415.232 88.9009 431.583 85.5582 447.963C89.8759 441.138 100.768 427.907 109.793 429.578C109.793 437.238 106.701 457.239 94.3329 475.959C99.9042 472.895 113.637 467.686 124 471.363C121.493 477.212 113.387 489.915 101.018 493.926L37.9236 492.673Z" stroke="white"/>
<path d="M38.3416 492.673H107.704L116.061 507.715H27.4775L38.3416 492.673Z" fill="white"/>
<path d="M46.0126 549.5H100.325L106.868 506.88H37.5059L46.0126 549.5Z" fill="white"/>
<path d="M305.5 231L284.282 194.25L326.718 194.25L305.5 231Z" fill="white"/>
</g>
<defs>
<clipPath id="clip0">
<rect width="636" height="550" fill="white"/>
</clipPath>
</defs>
</svg>
