<svg width="321" height="346" viewBox="0 0 321 346" fill="none" xmlns="http://www.w3.org/2000/svg">
<rect x="77.3993" y="338.155" width="19.361" height="6.98422" fill="#828282" stroke="#011627" stroke-width="1.43195"/>
<rect x="134.085" y="338.155" width="19.361" height="6.98422" fill="#828282" stroke="#011627" stroke-width="1.43195"/>
<rect x="227.405" y="338.155" width="19.361" height="6.98422" fill="#828282" stroke="#011627" stroke-width="1.43195"/>
<rect x="291.765" y="338.155" width="19.361" height="6.98422" fill="#828282" stroke="#011627" stroke-width="1.43195"/>
<path d="M304.413 251.225L315.468 255.526H303.714L304.413 251.225Z" fill="#56CCF2" stroke="black" stroke-width="1.65854"/>
<path d="M105.617 255.398H155.922C158.201 255.398 159.867 255.399 161.182 255.505C162.49 255.61 163.388 255.815 164.14 256.191C165.597 256.919 166.777 258.1 167.505 259.556C167.881 260.309 168.087 261.207 168.192 262.514C168.297 263.829 168.298 265.496 168.298 267.774V326C168.298 328.279 168.297 329.945 168.192 331.26C168.087 332.568 167.881 333.466 167.505 334.218C166.777 335.675 165.597 336.855 164.14 337.583C163.388 337.959 162.49 338.165 161.182 338.27C159.867 338.375 158.201 338.376 155.922 338.376H105.617C103.339 338.376 101.672 338.375 100.357 338.27C99.0499 338.165 98.1517 337.959 97.3991 337.583C95.9428 336.855 94.7621 335.675 94.0344 334.218C93.6583 333.466 93.4529 332.568 93.3478 331.26C93.2421 329.945 93.2416 328.279 93.2416 326V267.774C93.2416 265.496 93.2421 263.829 93.3478 262.514C93.4529 261.207 93.6583 260.309 94.0344 259.556C94.7621 258.1 95.9428 256.919 97.3991 256.191C98.1517 255.815 99.0499 255.61 100.357 255.505C101.672 255.399 103.339 255.398 105.617 255.398Z" fill="#F2C94C" stroke="black" stroke-width="1.43195"/>
<path d="M294.329 201.859L306.431 208.314C307.427 208.845 308.32 209.351 308.994 210.07C310.49 211.665 310.793 213.575 310.387 217.307C309.904 221.751 305.959 244.16 303.94 255.408H288.534L295.346 208.576C295.356 208.506 295.356 208.434 295.345 208.363L294.329 201.859Z" fill="#F2C94C" stroke="black" stroke-width="1.43195" stroke-linecap="round" stroke-linejoin="round"/>
<path d="M172.025 200.773H288.977C292.733 200.773 295.592 204.141 294.982 207.847L280.91 293.404H138.246L158.828 211.077C160.342 205.021 165.783 200.773 172.025 200.773Z" fill="#F2C94C" stroke="black" stroke-width="1.43195"/>
<path d="M120.222 283.202H230.183C232.461 283.202 234.127 283.203 235.443 283.308C236.75 283.413 237.648 283.619 238.401 283.995C239.857 284.723 241.038 285.903 241.765 287.36C242.141 288.112 242.347 289.01 242.452 290.317C242.558 291.633 242.558 293.299 242.558 295.578V326.08C242.558 328.358 242.558 330.025 242.452 331.34C242.347 332.647 242.141 333.545 241.765 334.298C241.038 335.754 239.857 336.935 238.401 337.663C237.648 338.039 236.75 338.244 235.443 338.349C234.127 338.455 232.461 338.456 230.183 338.456H107.846V295.578C107.846 293.299 107.847 291.633 107.952 290.317C108.057 289.01 108.263 288.112 108.639 287.36C109.367 285.903 110.547 284.723 112.004 283.995C112.756 283.619 113.654 283.413 114.962 283.308C116.277 283.203 117.943 283.202 120.222 283.202Z" fill="#F2C94C" stroke="black" stroke-width="1.43195"/>
<path d="M246.758 338.276L246.759 338.388H220.969V268.309C220.969 266.125 220.97 264.524 221.06 263.255C221.15 261.993 221.326 261.114 221.65 260.367C222.481 258.451 224.01 256.922 225.926 256.091C226.673 255.767 227.552 255.591 228.814 255.501C230.083 255.411 231.683 255.411 233.868 255.411H247.722C247.385 256.194 247.05 257.437 246.773 259.423C246.673 260.14 246.604 261.933 246.553 264.455C246.502 267 246.47 270.342 246.453 274.198C246.418 281.912 246.441 291.696 246.488 301.312C246.534 310.928 246.604 320.378 246.662 327.424C246.691 330.946 246.717 333.868 246.736 335.909C246.745 336.93 246.753 337.73 246.758 338.276Z" fill="#F2C94C" stroke="black" stroke-width="1.43195"/>
<path d="M96.5047 338.276L96.5058 338.388H70.716V268.309C70.716 266.125 70.7164 264.524 70.8066 263.255C70.8963 261.993 71.0723 261.114 71.3963 260.367C72.2277 258.451 73.7563 256.922 75.6725 256.091C76.4193 255.767 77.2982 255.591 78.5602 255.501C79.8291 255.411 81.43 255.411 83.6144 255.411H97.4683C97.1315 256.194 96.7968 257.437 96.5197 259.423C96.4196 260.14 96.3502 261.933 96.2998 264.455C96.2489 267 96.217 270.342 96.1995 274.198C96.1647 281.912 96.1879 291.696 96.2344 301.312C96.2808 310.928 96.3504 320.378 96.4084 327.424C96.4374 330.946 96.4635 333.868 96.4824 335.909C96.4918 336.93 96.4994 337.73 96.5047 338.276Z" fill="#F2C94C" stroke="black" stroke-width="1.43195"/>
<path d="M257.603 255.398H307.908C310.187 255.398 311.853 255.399 313.168 255.505C314.476 255.61 315.374 255.815 316.126 256.191C317.583 256.919 318.763 258.1 319.491 259.556C319.867 260.309 320.073 261.207 320.178 262.514C320.283 263.829 320.284 265.496 320.284 267.774V326C320.284 328.279 320.283 329.945 320.178 331.26C320.073 332.568 319.867 333.466 319.491 334.218C318.763 335.675 317.583 336.855 316.126 337.583C315.374 337.959 314.476 338.165 313.168 338.27C311.853 338.375 310.187 338.376 307.908 338.376H257.603C255.325 338.376 253.658 338.375 252.343 338.27C251.036 338.165 250.138 337.959 249.385 337.583C247.929 336.855 246.748 335.675 246.02 334.218C245.644 333.466 245.439 332.568 245.334 331.26C245.228 329.945 245.228 328.279 245.228 326V267.774C245.228 265.496 245.228 263.829 245.334 262.514C245.439 261.207 245.644 260.309 246.02 259.556C246.748 258.1 247.929 256.919 249.385 256.191C250.138 255.815 251.036 255.61 252.343 255.505C253.658 255.399 255.325 255.398 257.603 255.398Z" fill="#F2C94C" stroke="black" stroke-width="1.43195"/>
<rect x="108.055" y="309.332" width="112.659" height="28.9923" fill="#F2C94C" stroke="#011627" stroke-width="1.43195"/>
<path d="M14.424 72.336H8.76V87H6.048V72.336H0.36V69.96H14.424V72.336ZM17.0606 87.24C16.4526 87.24 15.8846 87.144 15.3566 86.952C14.8446 86.744 14.3966 86.464 14.0126 86.112C13.6446 85.76 13.3486 85.344 13.1246 84.864C12.9166 84.384 12.8126 83.864 12.8126 83.304C12.8126 82.712 12.9406 82.176 13.1966 81.696C13.4526 81.216 13.8126 80.8 14.2766 80.448C14.7566 80.096 15.3166 79.824 15.9566 79.632C16.6126 79.44 17.3326 79.344 18.1166 79.344C18.7086 79.344 19.2926 79.4 19.8686 79.512C20.4446 79.608 20.9646 79.744 21.4286 79.92V79.056C21.4286 78.128 21.1646 77.408 20.6366 76.896C20.1086 76.368 19.3486 76.104 18.3566 76.104C17.6846 76.104 17.0206 76.232 16.3646 76.488C15.7246 76.728 15.0606 77.08 14.3726 77.544L13.5566 75.864C15.1726 74.776 16.8526 74.232 18.5966 74.232C20.3246 74.232 21.6686 74.672 22.6286 75.552C23.5886 76.432 24.0686 77.696 24.0686 79.344V83.88C24.0686 84.44 24.3006 84.728 24.7646 84.744V87C24.5086 87.048 24.2846 87.08 24.0926 87.096C23.9166 87.112 23.7406 87.12 23.5646 87.12C23.0526 87.12 22.6526 86.992 22.3646 86.736C22.0926 86.48 21.9246 86.152 21.8606 85.752L21.7886 84.96C21.2286 85.696 20.5326 86.264 19.7006 86.664C18.8846 87.048 18.0046 87.24 17.0606 87.24ZM17.7806 85.296C18.4206 85.296 19.0206 85.184 19.5806 84.96C20.1566 84.72 20.6046 84.392 20.9246 83.976C21.2606 83.688 21.4286 83.384 21.4286 83.064V81.408C20.9806 81.232 20.5006 81.096 19.9886 81C19.4926 80.904 19.0046 80.856 18.5246 80.856C17.5806 80.856 16.8046 81.064 16.1966 81.48C15.6046 81.88 15.3086 82.416 15.3086 83.088C15.3086 83.712 15.5406 84.24 16.0046 84.672C16.4686 85.088 17.0606 85.296 17.7806 85.296ZM36.0075 87L31.9995 81.216L29.9115 83.184V87H27.2715V69.48H29.9115V80.592L35.6715 74.472H38.5515L33.6795 79.728L38.8155 87H36.0075ZM45.4517 87.24C44.4757 87.24 43.5877 87.072 42.7877 86.736C41.9877 86.384 41.2997 85.912 40.7237 85.32C40.1637 84.728 39.7237 84.04 39.4037 83.256C39.0997 82.472 38.9477 81.64 38.9477 80.76C38.9477 79.88 39.0997 79.048 39.4037 78.264C39.7237 77.464 40.1637 76.768 40.7237 76.176C41.2997 75.568 41.9877 75.096 42.7877 74.76C43.5877 74.408 44.4837 74.232 45.4757 74.232C46.4517 74.232 47.3317 74.408 48.1157 74.76C48.9157 75.112 49.5957 75.584 50.1557 76.176C50.7157 76.752 51.1397 77.432 51.4277 78.216C51.7317 78.984 51.8837 79.792 51.8837 80.64C51.8837 80.832 51.8757 81.016 51.8597 81.192C51.8437 81.352 51.8277 81.488 51.8117 81.6H41.7557C41.8037 82.16 41.9317 82.664 42.1397 83.112C42.3637 83.56 42.6437 83.952 42.9797 84.288C43.3317 84.608 43.7237 84.856 44.1557 85.032C44.6037 85.208 45.0677 85.296 45.5477 85.296C45.8997 85.296 46.2437 85.256 46.5797 85.176C46.9317 85.08 47.2517 84.952 47.5397 84.792C47.8277 84.616 48.0837 84.408 48.3077 84.168C48.5317 83.928 48.7077 83.664 48.8357 83.376L51.0917 84.024C50.6597 84.968 49.9397 85.744 48.9317 86.352C47.9397 86.944 46.7797 87.24 45.4517 87.24ZM49.2677 79.776C49.2197 79.248 49.0837 78.76 48.8597 78.312C48.6517 77.864 48.3797 77.488 48.0437 77.184C47.7077 76.864 47.3157 76.616 46.8677 76.44C46.4197 76.264 45.9477 76.176 45.4517 76.176C44.9557 76.176 44.4837 76.264 44.0357 76.44C43.6037 76.616 43.2197 76.864 42.8837 77.184C42.5477 77.488 42.2757 77.864 42.0677 78.312C41.8597 78.76 41.7317 79.248 41.6837 79.776H49.2677ZM63.3028 87.24C62.6948 87.24 62.1268 87.144 61.5988 86.952C61.0868 86.744 60.6388 86.464 60.2548 86.112C59.8868 85.76 59.5908 85.344 59.3668 84.864C59.1588 84.384 59.0548 83.864 59.0548 83.304C59.0548 82.712 59.1828 82.176 59.4388 81.696C59.6948 81.216 60.0548 80.8 60.5188 80.448C60.9988 80.096 61.5588 79.824 62.1988 79.632C62.8548 79.44 63.5748 79.344 64.3588 79.344C64.9508 79.344 65.5348 79.4 66.1108 79.512C66.6868 79.608 67.2068 79.744 67.6708 79.92V79.056C67.6708 78.128 67.4068 77.408 66.8788 76.896C66.3508 76.368 65.5908 76.104 64.5988 76.104C63.9268 76.104 63.2628 76.232 62.6068 76.488C61.9668 76.728 61.3028 77.08 60.6148 77.544L59.7988 75.864C61.4148 74.776 63.0948 74.232 64.8388 74.232C66.5668 74.232 67.9108 74.672 68.8708 75.552C69.8308 76.432 70.3108 77.696 70.3108 79.344V83.88C70.3108 84.44 70.5428 84.728 71.0068 84.744V87C70.7508 87.048 70.5268 87.08 70.3348 87.096C70.1588 87.112 69.9828 87.12 69.8068 87.12C69.2948 87.12 68.8948 86.992 68.6068 86.736C68.3348 86.48 68.1668 86.152 68.1028 85.752L68.0308 84.96C67.4708 85.696 66.7748 86.264 65.9428 86.664C65.1268 87.048 64.2468 87.24 63.3028 87.24ZM64.0228 85.296C64.6628 85.296 65.2628 85.184 65.8228 84.96C66.3988 84.72 66.8468 84.392 67.1668 83.976C67.5028 83.688 67.6708 83.384 67.6708 83.064V81.408C67.2228 81.232 66.7428 81.096 66.2308 81C65.7348 80.904 65.2468 80.856 64.7668 80.856C63.8228 80.856 63.0468 81.064 62.4388 81.48C61.8468 81.88 61.5508 82.416 61.5508 83.088C61.5508 83.712 61.7828 84.24 62.2468 84.672C62.7108 85.088 63.3028 85.296 64.0228 85.296ZM84.0034 87.24C82.9954 87.24 81.9874 87.08 80.9794 86.76C79.9874 86.424 79.1314 85.952 78.4114 85.344L79.4674 83.664C80.2194 84.208 80.9634 84.624 81.6994 84.912C82.4354 85.184 83.1874 85.32 83.9554 85.32C84.7394 85.32 85.3554 85.168 85.8034 84.864C86.2674 84.56 86.4994 84.128 86.4994 83.568C86.4994 83.04 86.2434 82.656 85.7314 82.416C85.2194 82.176 84.4194 81.912 83.3314 81.624C82.5474 81.416 81.8754 81.216 81.3154 81.024C80.7554 80.832 80.2994 80.608 79.9474 80.352C79.5954 80.096 79.3394 79.8 79.1794 79.464C79.0194 79.128 78.9394 78.72 78.9394 78.24C78.9394 77.6 79.0594 77.032 79.2994 76.536C79.5554 76.04 79.8994 75.624 80.3314 75.288C80.7794 74.936 81.2994 74.672 81.8914 74.496C82.4834 74.32 83.1234 74.232 83.8114 74.232C84.7554 74.232 85.6354 74.376 86.4514 74.664C87.2674 74.952 87.9954 75.368 88.6354 75.912L87.5074 77.496C86.3394 76.568 85.0994 76.104 83.7874 76.104C83.1154 76.104 82.5474 76.248 82.0834 76.536C81.6354 76.808 81.4114 77.248 81.4114 77.856C81.4114 78.112 81.4594 78.328 81.5554 78.504C81.6514 78.68 81.8034 78.832 82.0114 78.96C82.2354 79.088 82.5154 79.208 82.8514 79.32C83.2034 79.416 83.6354 79.528 84.1474 79.656C84.9954 79.864 85.7234 80.072 86.3314 80.28C86.9554 80.488 87.4674 80.736 87.8674 81.024C88.2674 81.296 88.5634 81.624 88.7554 82.008C88.9474 82.376 89.0434 82.824 89.0434 83.352C89.0434 84.552 88.5874 85.504 87.6754 86.208C86.7794 86.896 85.5554 87.24 84.0034 87.24ZM97.0376 87.24C96.0616 87.24 95.1736 87.072 94.3736 86.736C93.5736 86.384 92.8856 85.912 92.3096 85.32C91.7496 84.728 91.3096 84.04 90.9896 83.256C90.6856 82.472 90.5336 81.64 90.5336 80.76C90.5336 79.88 90.6856 79.048 90.9896 78.264C91.3096 77.464 91.7496 76.768 92.3096 76.176C92.8856 75.568 93.5736 75.096 94.3736 74.76C95.1736 74.408 96.0696 74.232 97.0616 74.232C98.0376 74.232 98.9176 74.408 99.7016 74.76C100.502 75.112 101.182 75.584 101.742 76.176C102.302 76.752 102.726 77.432 103.014 78.216C103.318 78.984 103.47 79.792 103.47 80.64C103.47 80.832 103.462 81.016 103.446 81.192C103.43 81.352 103.414 81.488 103.398 81.6H93.3416C93.3896 82.16 93.5176 82.664 93.7256 83.112C93.9496 83.56 94.2296 83.952 94.5656 84.288C94.9176 84.608 95.3096 84.856 95.7416 85.032C96.1896 85.208 96.6536 85.296 97.1336 85.296C97.4856 85.296 97.8296 85.256 98.1656 85.176C98.5176 85.08 98.8376 84.952 99.1256 84.792C99.4136 84.616 99.6696 84.408 99.8936 84.168C100.118 83.928 100.294 83.664 100.422 83.376L102.678 84.024C102.246 84.968 101.526 85.744 100.518 86.352C99.5256 86.944 98.3656 87.24 97.0376 87.24ZM100.854 79.776C100.806 79.248 100.67 78.76 100.446 78.312C100.238 77.864 99.9656 77.488 99.6296 77.184C99.2936 76.864 98.9016 76.616 98.4536 76.44C98.0056 76.264 97.5336 76.176 97.0376 76.176C96.5416 76.176 96.0696 76.264 95.6216 76.44C95.1896 76.616 94.8056 76.864 94.4696 77.184C94.1336 77.488 93.8616 77.864 93.6536 78.312C93.4456 78.76 93.3176 79.248 93.2696 79.776H100.854ZM108.959 87.24C108.351 87.24 107.783 87.144 107.255 86.952C106.743 86.744 106.295 86.464 105.911 86.112C105.543 85.76 105.247 85.344 105.023 84.864C104.815 84.384 104.711 83.864 104.711 83.304C104.711 82.712 104.839 82.176 105.095 81.696C105.351 81.216 105.711 80.8 106.175 80.448C106.655 80.096 107.215 79.824 107.855 79.632C108.511 79.44 109.231 79.344 110.015 79.344C110.607 79.344 111.191 79.4 111.767 79.512C112.343 79.608 112.863 79.744 113.327 79.92V79.056C113.327 78.128 113.063 77.408 112.535 76.896C112.007 76.368 111.247 76.104 110.255 76.104C109.583 76.104 108.919 76.232 108.263 76.488C107.623 76.728 106.959 77.08 106.271 77.544L105.455 75.864C107.071 74.776 108.751 74.232 110.495 74.232C112.223 74.232 113.567 74.672 114.527 75.552C115.487 76.432 115.967 77.696 115.967 79.344V83.88C115.967 84.44 116.199 84.728 116.663 84.744V87C116.407 87.048 116.183 87.08 115.991 87.096C115.815 87.112 115.639 87.12 115.463 87.12C114.951 87.12 114.551 86.992 114.263 86.736C113.991 86.48 113.823 86.152 113.759 85.752L113.687 84.96C113.127 85.696 112.431 86.264 111.599 86.664C110.783 87.048 109.903 87.24 108.959 87.24ZM109.679 85.296C110.319 85.296 110.919 85.184 111.479 84.96C112.055 84.72 112.503 84.392 112.823 83.976C113.159 83.688 113.327 83.384 113.327 83.064V81.408C112.879 81.232 112.399 81.096 111.887 81C111.391 80.904 110.903 80.856 110.423 80.856C109.479 80.856 108.703 81.064 108.095 81.48C107.503 81.88 107.207 82.416 107.207 83.088C107.207 83.712 107.439 84.24 107.903 84.672C108.367 85.088 108.959 85.296 109.679 85.296ZM126.06 86.352C125.724 86.512 125.26 86.696 124.668 86.904C124.076 87.096 123.444 87.192 122.772 87.192C122.356 87.192 121.964 87.136 121.596 87.024C121.228 86.912 120.9 86.744 120.612 86.52C120.34 86.296 120.124 86.008 119.964 85.656C119.804 85.288 119.724 84.848 119.724 84.336V76.488H118.068V74.448H119.724V70.32H122.364V74.448H125.1V76.488H122.364V83.496C122.396 83.944 122.532 84.272 122.772 84.48C123.028 84.672 123.34 84.768 123.708 84.768C124.076 84.768 124.428 84.704 124.764 84.576C125.1 84.448 125.348 84.344 125.508 84.264L126.06 86.352ZM137.154 87.24C136.546 87.24 135.978 87.144 135.45 86.952C134.938 86.744 134.49 86.464 134.106 86.112C133.738 85.76 133.442 85.344 133.218 84.864C133.01 84.384 132.906 83.864 132.906 83.304C132.906 82.712 133.034 82.176 133.29 81.696C133.546 81.216 133.906 80.8 134.37 80.448C134.85 80.096 135.41 79.824 136.05 79.632C136.706 79.44 137.426 79.344 138.21 79.344C138.802 79.344 139.386 79.4 139.962 79.512C140.538 79.608 141.058 79.744 141.522 79.92V79.056C141.522 78.128 141.258 77.408 140.73 76.896C140.202 76.368 139.442 76.104 138.45 76.104C137.778 76.104 137.114 76.232 136.458 76.488C135.818 76.728 135.154 77.08 134.466 77.544L133.65 75.864C135.266 74.776 136.946 74.232 138.69 74.232C140.418 74.232 141.762 74.672 142.722 75.552C143.682 76.432 144.162 77.696 144.162 79.344V83.88C144.162 84.44 144.394 84.728 144.858 84.744V87C144.602 87.048 144.378 87.08 144.186 87.096C144.01 87.112 143.834 87.12 143.658 87.12C143.146 87.12 142.746 86.992 142.458 86.736C142.186 86.48 142.018 86.152 141.954 85.752L141.882 84.96C141.322 85.696 140.626 86.264 139.794 86.664C138.978 87.048 138.098 87.24 137.154 87.24ZM137.874 85.296C138.514 85.296 139.114 85.184 139.674 84.96C140.25 84.72 140.698 84.392 141.018 83.976C141.354 83.688 141.522 83.384 141.522 83.064V81.408C141.074 81.232 140.594 81.096 140.082 81C139.586 80.904 139.098 80.856 138.618 80.856C137.674 80.856 136.898 81.064 136.29 81.48C135.698 81.88 135.402 82.416 135.402 83.088C135.402 83.712 135.634 84.24 136.098 84.672C136.562 85.088 137.154 85.296 137.874 85.296ZM158.621 87H155.981V79.968C155.981 78.784 155.789 77.928 155.405 77.4C155.037 76.856 154.485 76.584 153.749 76.584C153.365 76.584 152.981 76.656 152.597 76.8C152.213 76.944 151.853 77.152 151.517 77.424C151.181 77.68 150.877 77.992 150.605 78.36C150.349 78.712 150.149 79.104 150.005 79.536V87H147.365V74.448H149.765V76.968C150.245 76.12 150.941 75.456 151.853 74.976C152.765 74.48 153.773 74.232 154.877 74.232C155.629 74.232 156.245 74.368 156.725 74.64C157.205 74.912 157.581 75.288 157.853 75.768C158.141 76.232 158.341 76.776 158.453 77.4C158.565 78.008 158.621 78.656 158.621 79.344V87ZM166.798 87.24C165.95 87.24 165.166 87.072 164.446 86.736C163.726 86.384 163.102 85.912 162.574 85.32C162.046 84.728 161.63 84.04 161.326 83.256C161.038 82.456 160.894 81.6 160.894 80.688C160.894 79.808 161.03 78.984 161.302 78.216C161.59 77.432 161.982 76.744 162.478 76.152C162.99 75.56 163.582 75.096 164.254 74.76C164.942 74.408 165.694 74.232 166.51 74.232C167.518 74.232 168.406 74.48 169.174 74.976C169.942 75.456 170.542 76.072 170.974 76.824V69.48H173.614V83.88C173.614 84.184 173.662 84.4 173.758 84.528C173.87 84.656 174.062 84.728 174.334 84.744V87C174.062 87.048 173.838 87.08 173.662 87.096C173.502 87.112 173.366 87.12 173.254 87.12C172.726 87.12 172.294 86.984 171.958 86.712C171.622 86.44 171.438 86.088 171.406 85.656L171.358 84.72C170.894 85.504 170.262 86.12 169.462 86.568C168.662 87.016 167.774 87.24 166.798 87.24ZM167.446 84.984C167.83 84.984 168.214 84.92 168.598 84.792C168.982 84.664 169.334 84.488 169.654 84.264C169.974 84.04 170.246 83.776 170.47 83.472C170.71 83.168 170.878 82.84 170.974 82.488V79.2C170.83 78.8 170.622 78.432 170.35 78.096C170.094 77.76 169.798 77.472 169.462 77.232C169.126 76.992 168.766 76.808 168.382 76.68C168.014 76.552 167.638 76.488 167.254 76.488C166.726 76.488 166.238 76.608 165.79 76.848C165.358 77.088 164.982 77.408 164.662 77.808C164.342 78.208 164.086 78.664 163.894 79.176C163.718 79.688 163.63 80.216 163.63 80.76C163.63 81.336 163.726 81.88 163.918 82.392C164.126 82.904 164.406 83.352 164.758 83.736C165.11 84.12 165.51 84.424 165.958 84.648C166.422 84.872 166.918 84.984 167.446 84.984ZM6.144 115.24C5.136 115.24 4.128 115.08 3.12 114.76C2.128 114.424 1.272 113.952 0.552 113.344L1.608 111.664C2.36 112.208 3.104 112.624 3.84 112.912C4.576 113.184 5.328 113.32 6.096 113.32C6.88 113.32 7.496 113.168 7.944 112.864C8.408 112.56 8.64 112.128 8.64 111.568C8.64 111.04 8.384 110.656 7.872 110.416C7.36 110.176 6.56 109.912 5.472 109.624C4.688 109.416 4.016 109.216 3.456 109.024C2.896 108.832 2.44 108.608 2.088 108.352C1.736 108.096 1.48 107.8 1.32 107.464C1.16 107.128 1.08 106.72 1.08 106.24C1.08 105.6 1.2 105.032 1.44 104.536C1.696 104.04 2.04 103.624 2.472 103.288C2.92 102.936 3.44 102.672 4.032 102.496C4.624 102.32 5.264 102.232 5.952 102.232C6.896 102.232 7.776 102.376 8.592 102.664C9.408 102.952 10.136 103.368 10.776 103.912L9.648 105.496C8.48 104.568 7.24 104.104 5.928 104.104C5.256 104.104 4.688 104.248 4.224 104.536C3.776 104.808 3.552 105.248 3.552 105.856C3.552 106.112 3.6 106.328 3.696 106.504C3.792 106.68 3.944 106.832 4.152 106.96C4.376 107.088 4.656 107.208 4.992 107.32C5.344 107.416 5.776 107.528 6.288 107.656C7.136 107.864 7.864 108.072 8.472 108.28C9.096 108.488 9.608 108.736 10.008 109.024C10.408 109.296 10.704 109.624 10.896 110.008C11.088 110.376 11.184 110.824 11.184 111.352C11.184 112.552 10.728 113.504 9.816 114.208C8.92 114.896 7.696 115.24 6.144 115.24ZM20.4743 114.352C20.1383 114.512 19.6743 114.696 19.0823 114.904C18.4903 115.096 17.8583 115.192 17.1863 115.192C16.7703 115.192 16.3783 115.136 16.0103 115.024C15.6423 114.912 15.3143 114.744 15.0263 114.52C14.7543 114.296 14.5383 114.008 14.3783 113.656C14.2183 113.288 14.1383 112.848 14.1383 112.336V104.488H12.4823V102.448H14.1383V98.32H16.7783V102.448H19.5143V104.488H16.7783V111.496C16.8103 111.944 16.9463 112.272 17.1863 112.48C17.4423 112.672 17.7543 112.768 18.1223 112.768C18.4903 112.768 18.8423 112.704 19.1783 112.576C19.5143 112.448 19.7623 112.344 19.9223 112.264L20.4743 114.352ZM27.6861 115.24C26.7101 115.24 25.8221 115.072 25.0221 114.736C24.2221 114.384 23.5341 113.912 22.9581 113.32C22.3981 112.728 21.9581 112.04 21.6381 111.256C21.3341 110.472 21.1821 109.64 21.1821 108.76C21.1821 107.88 21.3341 107.048 21.6381 106.264C21.9581 105.464 22.3981 104.768 22.9581 104.176C23.5341 103.568 24.2221 103.096 25.0221 102.76C25.8221 102.408 26.7181 102.232 27.7101 102.232C28.6861 102.232 29.5661 102.408 30.3501 102.76C31.1501 103.112 31.8301 103.584 32.3901 104.176C32.9501 104.752 33.3741 105.432 33.6621 106.216C33.9661 106.984 34.1181 107.792 34.1181 108.64C34.1181 108.832 34.1101 109.016 34.0941 109.192C34.0781 109.352 34.0621 109.488 34.0461 109.6H23.9901C24.0381 110.16 24.1661 110.664 24.3741 111.112C24.5981 111.56 24.8781 111.952 25.2141 112.288C25.5661 112.608 25.9581 112.856 26.3901 113.032C26.8381 113.208 27.3021 113.296 27.7821 113.296C28.1341 113.296 28.4781 113.256 28.8141 113.176C29.1661 113.08 29.4861 112.952 29.7741 112.792C30.0621 112.616 30.3181 112.408 30.5421 112.168C30.7661 111.928 30.9421 111.664 31.0701 111.376L33.3261 112.024C32.8941 112.968 32.1741 113.744 31.1661 114.352C30.1741 114.944 29.0141 115.24 27.6861 115.24ZM31.5021 107.776C31.4541 107.248 31.3181 106.76 31.0941 106.312C30.8861 105.864 30.6141 105.488 30.2781 105.184C29.9421 104.864 29.5501 104.616 29.1021 104.44C28.6541 104.264 28.1821 104.176 27.6861 104.176C27.1901 104.176 26.7181 104.264 26.2701 104.44C25.8381 104.616 25.4541 104.864 25.1181 105.184C24.7821 105.488 24.5101 105.864 24.3021 106.312C24.0941 106.76 23.9661 107.248 23.9181 107.776H31.5021ZM51.5914 102.448H54.1114L48.8314 115H46.6474L44.3194 109.168L41.9914 115H39.8074L34.5034 102.448H37.0234L41.0794 112.456L42.9034 107.8L40.7194 102.472H42.8794L44.3194 106.408L45.7354 102.472H47.8954L45.7354 107.8L47.5594 112.456L51.5914 102.448ZM61.1387 115V102.448H63.7787V115H61.1387ZM61.1387 100.384V97.48H63.7787V100.384H61.1387ZM78.2072 115H75.5672V107.968C75.5672 106.784 75.3752 105.928 74.9912 105.4C74.6232 104.856 74.0712 104.584 73.3352 104.584C72.9512 104.584 72.5672 104.656 72.1832 104.8C71.7992 104.944 71.4392 105.152 71.1032 105.424C70.7672 105.68 70.4632 105.992 70.1912 106.36C69.9352 106.712 69.7352 107.104 69.5912 107.536V115H66.9512V102.448H69.3512V104.968C69.8312 104.12 70.5272 103.456 71.4392 102.976C72.3512 102.48 73.3592 102.232 74.4632 102.232C75.2152 102.232 75.8312 102.368 76.3112 102.64C76.7912 102.912 77.1672 103.288 77.4392 103.768C77.7272 104.232 77.9272 104.776 78.0392 105.4C78.1512 106.008 78.2072 106.656 78.2072 107.344V115ZM86.9535 117.952C87.1935 118 87.4255 118.04 87.6495 118.072C87.8895 118.104 88.0815 118.12 88.2255 118.12C88.4335 118.12 88.6095 118.072 88.7535 117.976C88.9135 117.896 89.0735 117.744 89.2335 117.52C89.3935 117.296 89.5535 116.976 89.7135 116.56C89.8895 116.16 90.0895 115.64 90.3135 115L85.1535 102.448H87.8655L91.7535 112.672L95.2095 102.448H97.7055L92.0175 117.904C91.7615 118.624 91.3135 119.224 90.6735 119.704C90.0495 120.2 89.2415 120.448 88.2495 120.448C88.0575 120.448 87.8575 120.432 87.6495 120.4C87.4415 120.384 87.2095 120.336 86.9535 120.256V117.952ZM104.865 115.24C103.873 115.24 102.977 115.064 102.177 114.712C101.393 114.36 100.721 113.888 100.161 113.296C99.6006 112.704 99.1686 112.016 98.8646 111.232C98.5606 110.432 98.4086 109.6 98.4086 108.736C98.4086 107.872 98.5606 107.048 98.8646 106.264C99.1686 105.464 99.6006 104.768 100.161 104.176C100.737 103.584 101.417 103.112 102.201 102.76C103.001 102.408 103.889 102.232 104.865 102.232C105.841 102.232 106.721 102.408 107.505 102.76C108.305 103.112 108.985 103.584 109.545 104.176C110.121 104.768 110.561 105.464 110.865 106.264C111.169 107.048 111.321 107.872 111.321 108.736C111.321 109.6 111.169 110.432 110.865 111.232C110.561 112.016 110.121 112.704 109.545 113.296C108.985 113.888 108.305 114.36 107.505 114.712C106.721 115.064 105.841 115.24 104.865 115.24ZM101.121 108.76C101.121 109.368 101.217 109.928 101.409 110.44C101.601 110.952 101.865 111.4 102.201 111.784C102.537 112.152 102.929 112.448 103.377 112.672C103.841 112.88 104.337 112.984 104.865 112.984C105.393 112.984 105.881 112.88 106.329 112.672C106.793 112.448 107.193 112.144 107.529 111.76C107.865 111.376 108.129 110.928 108.321 110.416C108.513 109.904 108.609 109.344 108.609 108.736C108.609 108.144 108.513 107.592 108.321 107.08C108.129 106.552 107.865 106.096 107.529 105.712C107.193 105.328 106.793 105.032 106.329 104.824C105.881 104.6 105.393 104.488 104.865 104.488C104.353 104.488 103.865 104.6 103.401 104.824C102.953 105.048 102.561 105.352 102.225 105.736C101.889 106.12 101.617 106.576 101.409 107.104C101.217 107.616 101.121 108.168 101.121 108.76ZM117.526 115.24C116.214 115.24 115.222 114.816 114.55 113.968C113.878 113.104 113.542 111.824 113.542 110.128V102.448H116.182V109.6C116.182 111.856 116.982 112.984 118.582 112.984C119.334 112.984 120.046 112.752 120.718 112.288C121.39 111.824 121.91 111.152 122.278 110.272V102.448H124.918V111.88C124.918 112.184 124.966 112.4 125.062 112.528C125.174 112.656 125.366 112.728 125.638 112.744V115C125.366 115.048 125.142 115.08 124.966 115.096C124.79 115.112 124.622 115.12 124.462 115.12C123.982 115.12 123.574 114.992 123.238 114.736C122.902 114.464 122.726 114.12 122.71 113.704L122.662 112.456C122.102 113.368 121.374 114.064 120.478 114.544C119.582 115.008 118.598 115.24 117.526 115.24ZM135.343 104.728C134.319 104.76 133.407 105 132.607 105.448C131.823 105.88 131.263 106.504 130.927 107.32V115H128.287V102.448H130.735V105.256C131.167 104.392 131.727 103.704 132.415 103.192C133.119 102.664 133.871 102.376 134.671 102.328C134.831 102.328 134.959 102.328 135.055 102.328C135.167 102.328 135.263 102.336 135.343 102.352V104.728ZM153.863 115H151.223V107.968C151.223 106.784 151.031 105.928 150.647 105.4C150.279 104.856 149.727 104.584 148.991 104.584C148.607 104.584 148.223 104.656 147.839 104.8C147.455 104.944 147.095 105.152 146.759 105.424C146.423 105.68 146.119 105.992 145.847 106.36C145.591 106.712 145.391 107.104 145.247 107.536V115H142.607V102.448H145.007V104.968C145.487 104.12 146.183 103.456 147.095 102.976C148.007 102.48 149.015 102.232 150.119 102.232C150.871 102.232 151.487 102.368 151.967 102.64C152.447 102.912 152.823 103.288 153.095 103.768C153.383 104.232 153.583 104.776 153.695 105.4C153.807 106.008 153.863 106.656 153.863 107.344V115ZM162.616 115.24C161.64 115.24 160.752 115.072 159.952 114.736C159.152 114.384 158.464 113.912 157.888 113.32C157.328 112.728 156.888 112.04 156.568 111.256C156.264 110.472 156.112 109.64 156.112 108.76C156.112 107.88 156.264 107.048 156.568 106.264C156.888 105.464 157.328 104.768 157.888 104.176C158.464 103.568 159.152 103.096 159.952 102.76C160.752 102.408 161.648 102.232 162.64 102.232C163.616 102.232 164.496 102.408 165.28 102.76C166.08 103.112 166.76 103.584 167.32 104.176C167.88 104.752 168.304 105.432 168.592 106.216C168.896 106.984 169.048 107.792 169.048 108.64C169.048 108.832 169.04 109.016 169.024 109.192C169.008 109.352 168.992 109.488 168.976 109.6H158.92C158.968 110.16 159.096 110.664 159.304 111.112C159.528 111.56 159.808 111.952 160.144 112.288C160.496 112.608 160.888 112.856 161.32 113.032C161.768 113.208 162.232 113.296 162.712 113.296C163.064 113.296 163.408 113.256 163.744 113.176C164.096 113.08 164.416 112.952 164.704 112.792C164.992 112.616 165.248 112.408 165.472 112.168C165.696 111.928 165.872 111.664 166 111.376L168.256 112.024C167.824 112.968 167.104 113.744 166.096 114.352C165.104 114.944 163.944 115.24 162.616 115.24ZM166.432 107.776C166.384 107.248 166.248 106.76 166.024 106.312C165.816 105.864 165.544 105.488 165.208 105.184C164.872 104.864 164.48 104.616 164.032 104.44C163.584 104.264 163.112 104.176 162.616 104.176C162.12 104.176 161.648 104.264 161.2 104.44C160.768 104.616 160.384 104.864 160.048 105.184C159.712 105.488 159.44 105.864 159.232 106.312C159.024 106.76 158.896 107.248 158.848 107.776H166.432ZM178.257 104.728C177.233 104.76 176.321 105 175.521 105.448C174.737 105.88 174.177 106.504 173.841 107.32V115H171.201V102.448H173.649V105.256C174.081 104.392 174.641 103.704 175.329 103.192C176.033 102.664 176.785 102.376 177.585 102.328C177.745 102.328 177.873 102.328 177.969 102.328C178.081 102.328 178.177 102.336 178.257 102.352V104.728ZM183.706 115L178.906 102.448H181.618L185.218 112.768L188.842 102.448H191.338L186.538 115H183.706ZM198.475 115.24C197.499 115.24 196.611 115.072 195.811 114.736C195.011 114.384 194.323 113.912 193.747 113.32C193.187 112.728 192.747 112.04 192.427 111.256C192.123 110.472 191.971 109.64 191.971 108.76C191.971 107.88 192.123 107.048 192.427 106.264C192.747 105.464 193.187 104.768 193.747 104.176C194.323 103.568 195.011 103.096 195.811 102.76C196.611 102.408 197.507 102.232 198.499 102.232C199.475 102.232 200.355 102.408 201.139 102.76C201.939 103.112 202.619 103.584 203.179 104.176C203.739 104.752 204.163 105.432 204.451 106.216C204.755 106.984 204.907 107.792 204.907 108.64C204.907 108.832 204.899 109.016 204.883 109.192C204.867 109.352 204.851 109.488 204.835 109.6H194.779C194.827 110.16 194.955 110.664 195.163 111.112C195.387 111.56 195.667 111.952 196.003 112.288C196.355 112.608 196.747 112.856 197.179 113.032C197.627 113.208 198.091 113.296 198.571 113.296C198.923 113.296 199.267 113.256 199.603 113.176C199.955 113.08 200.275 112.952 200.563 112.792C200.851 112.616 201.107 112.408 201.331 112.168C201.555 111.928 201.731 111.664 201.859 111.376L204.115 112.024C203.683 112.968 202.963 113.744 201.955 114.352C200.963 114.944 199.803 115.24 198.475 115.24ZM202.291 107.776C202.243 107.248 202.107 106.76 201.883 106.312C201.675 105.864 201.403 105.488 201.067 105.184C200.731 104.864 200.339 104.616 199.891 104.44C199.443 104.264 198.971 104.176 198.475 104.176C197.979 104.176 197.507 104.264 197.059 104.44C196.627 104.616 196.243 104.864 195.907 105.184C195.571 105.488 195.299 105.864 195.091 106.312C194.883 106.76 194.755 107.248 194.707 107.776H202.291ZM211.621 115.24C210.613 115.24 209.605 115.08 208.597 114.76C207.605 114.424 206.749 113.952 206.029 113.344L207.085 111.664C207.837 112.208 208.581 112.624 209.317 112.912C210.053 113.184 210.805 113.32 211.573 113.32C212.357 113.32 212.973 113.168 213.421 112.864C213.885 112.56 214.117 112.128 214.117 111.568C214.117 111.04 213.861 110.656 213.349 110.416C212.837 110.176 212.037 109.912 210.949 109.624C210.165 109.416 209.493 109.216 208.933 109.024C208.373 108.832 207.917 108.608 207.565 108.352C207.213 108.096 206.957 107.8 206.797 107.464C206.637 107.128 206.557 106.72 206.557 106.24C206.557 105.6 206.677 105.032 206.917 104.536C207.173 104.04 207.517 103.624 207.949 103.288C208.397 102.936 208.917 102.672 209.509 102.496C210.101 102.32 210.741 102.232 211.429 102.232C212.373 102.232 213.253 102.376 214.069 102.664C214.885 102.952 215.613 103.368 216.253 103.912L215.125 105.496C213.957 104.568 212.717 104.104 211.405 104.104C210.733 104.104 210.165 104.248 209.701 104.536C209.253 104.808 209.029 105.248 209.029 105.856C209.029 106.112 209.077 106.328 209.173 106.504C209.269 106.68 209.421 106.832 209.629 106.96C209.853 107.088 210.133 107.208 210.469 107.32C210.821 107.416 211.253 107.528 211.765 107.656C212.613 107.864 213.341 108.072 213.949 108.28C214.573 108.488 215.085 108.736 215.485 109.024C215.885 109.296 216.181 109.624 216.373 110.008C216.565 110.376 216.661 110.824 216.661 111.352C216.661 112.552 216.205 113.504 215.293 114.208C214.397 114.896 213.173 115.24 211.621 115.24ZM218.847 115V111.928H221.031V115H218.847ZM223.956 115V111.928H226.14V115H223.956ZM229.066 115V111.928H231.25V115H229.066Z" fill="white"/>
<path d="M0 89.4H175.39V90.6H0V89.4ZM0 117.4H232.714V118.6H0V117.4Z" fill="white"/>
<path d="M83 131.5C113 142.667 121.8 152.4 125 198" stroke="white" stroke-width="2" stroke-linecap="round" stroke-linejoin="round"/>
<path d="M117 191.5L125 199L132.5 188.5" stroke="white" stroke-width="2" stroke-linecap="round" stroke-linejoin="round"/>
</svg>
