<svg width="425" height="282" viewBox="0 0 425 282" fill="none" xmlns="http://www.w3.org/2000/svg">
<g clip-path="url(#clip0)">
<rect x="72.3815" y="270.399" width="28.6391" height="10.7396" fill="#333333" stroke="#011627" stroke-width="1.43195"/>
<rect x="154.361" y="270.399" width="28.6391" height="10.7396" fill="#333333" stroke="#011627" stroke-width="1.43195"/>
<rect x="289.322" y="270.399" width="28.6391" height="10.7396" fill="#333333" stroke="#011627" stroke-width="1.43195"/>
<rect x="382.4" y="270.399" width="28.6391" height="10.7396" fill="#333333" stroke="#011627" stroke-width="1.43195"/>
<path d="M401.012 145L417 151.22H400L401.012 145Z" fill="#56CCF2" stroke="black" stroke-width="1.65854"/>
<path d="M95.2929 163.092C95.2929 160.813 95.2934 159.147 95.3991 157.831C95.5042 156.524 95.7096 155.626 96.0857 154.873C96.8133 153.417 97.9941 152.236 99.4504 151.509C100.203 151.133 101.101 150.927 102.408 150.822C103.724 150.717 105.39 150.716 107.669 150.716H192.104C194.382 150.716 196.049 150.717 197.364 150.822C198.671 150.927 199.569 151.133 200.322 151.509C201.778 152.236 202.959 153.417 203.686 154.873C204.063 155.626 204.268 156.524 204.373 157.831C204.479 159.147 204.479 160.813 204.479 163.092V258.982C204.479 261.261 204.479 262.927 204.373 264.243C204.268 265.55 204.063 266.448 203.686 267.201C202.959 268.657 201.778 269.838 200.322 270.565C199.569 270.941 198.671 271.147 197.364 271.252C196.049 271.357 194.382 271.358 192.104 271.358H107.669C105.39 271.358 103.724 271.357 102.408 271.252C101.101 271.147 100.203 270.941 99.4504 270.565C97.9941 269.838 96.8133 268.657 96.0857 267.201L95.4458 267.52L96.0857 267.201C95.7096 266.448 95.5042 265.55 95.3991 264.243C95.2934 262.927 95.2929 261.261 95.2929 258.982V163.092Z" fill="#56CCF2" stroke="black" stroke-width="1.43195"/>
<path d="M387.583 83.2747C387.593 83.2038 387.593 83.1318 387.582 83.0611L386.013 73.0228L404.743 83.0119C405.721 83.5337 406.626 84.069 407.372 84.7659C408.754 86.0572 409.54 87.4283 409.921 89.16C410.309 90.9229 410.283 93.0897 409.969 95.9818C409.265 102.457 403.499 135.198 400.595 151.368H377.678L387.583 83.2747Z" fill="#56CCF2" stroke="black" stroke-width="1.43195" stroke-linecap="round" stroke-linejoin="round"/>
<path d="M191.365 82.0202C192.879 75.9643 198.32 71.716 204.562 71.716H382.263C386.019 71.716 388.878 75.0838 388.268 78.7895L367.293 206.32H160.29L191.365 82.0202Z" fill="#56CCF2" stroke="black" stroke-width="1.43195"/>
<path d="M116.414 203.302C116.414 201.023 116.415 199.357 116.52 198.041C116.625 196.734 116.831 195.836 117.207 195.084C117.935 193.627 119.115 192.447 120.572 191.719C121.324 191.343 122.223 191.137 123.53 191.032C124.845 190.927 126.511 190.926 128.79 190.926H299.5C301.779 190.926 303.445 190.927 304.76 191.032C306.067 191.137 306.966 191.343 307.718 191.719C309.175 192.447 310.355 193.627 311.083 195.084C311.459 195.836 311.664 196.734 311.77 198.041C311.875 199.357 311.876 201.023 311.876 203.302V259.098C311.876 261.376 311.875 263.043 311.77 264.358C311.664 265.665 311.459 266.563 311.083 267.316C310.355 268.772 309.175 269.953 307.718 270.681C306.966 271.057 306.067 271.262 304.76 271.367C303.445 271.473 301.779 271.473 299.5 271.473H116.414V203.302Z" fill="#56CCF2" stroke="black" stroke-width="1.43195"/>
<path d="M298.988 150.734H319.527C319.475 150.835 319.423 150.942 319.372 151.055C318.884 152.138 318.383 153.929 317.968 156.899C317.827 157.914 317.726 160.484 317.653 164.139C317.58 167.818 317.534 172.649 317.508 178.226C317.458 189.38 317.492 203.528 317.559 217.435C317.626 231.341 317.727 245.007 317.811 255.197C317.853 260.291 317.89 264.517 317.918 267.469C317.931 268.944 317.942 270.102 317.95 270.891L317.955 271.376H280.015V164.248C280.015 161.772 280.015 159.958 280.13 158.525C280.245 157.1 280.469 156.115 280.883 155.287C281.68 153.692 282.973 152.399 284.568 151.602C285.396 151.188 286.382 150.964 287.806 150.849C289.239 150.734 291.053 150.734 293.529 150.734H298.988Z" fill="#56CCF2" stroke="black" stroke-width="1.43195"/>
<path d="M81.6893 150.734H102.228C102.176 150.835 102.124 150.942 102.073 151.055C101.585 152.138 101.084 153.929 100.67 156.899C100.528 157.914 100.428 160.484 100.355 164.139C100.281 167.818 100.235 172.649 100.21 178.226C100.159 189.38 100.193 203.528 100.26 217.435C100.327 231.341 100.428 245.007 100.512 255.197C100.554 260.291 100.591 264.517 100.619 267.469C100.632 268.944 100.643 270.102 100.651 270.891L100.656 271.376H62.716V164.248C62.716 161.772 62.7165 159.958 62.8317 158.525C62.9461 157.1 63.1705 156.115 63.5843 155.287C64.3812 153.692 65.6744 152.399 67.2694 151.602C68.0976 151.188 69.0828 150.964 70.5074 150.849C71.9402 150.734 73.7545 150.734 76.23 150.734H81.6893Z" fill="#56CCF2" stroke="black" stroke-width="1.43195"/>
<path d="M315.098 163.092C315.098 160.813 315.098 159.147 315.204 157.831C315.309 156.524 315.514 155.626 315.89 154.873C316.618 153.417 317.799 152.236 319.255 151.509C320.008 151.133 320.906 150.927 322.213 150.822C323.528 150.717 325.195 150.716 327.473 150.716H411.908C414.187 150.716 415.853 150.717 417.169 150.822C418.476 150.927 419.374 151.133 420.126 151.509C421.583 152.236 422.763 153.417 423.491 154.873C423.867 155.626 424.073 156.524 424.178 157.831C424.283 159.147 424.284 160.813 424.284 163.092V258.982C424.284 261.261 424.283 262.927 424.178 264.243C424.073 265.55 423.867 266.448 423.491 267.201C422.763 268.657 421.583 269.838 420.126 270.565C419.374 270.941 418.476 271.147 417.169 271.252C415.853 271.357 414.187 271.358 411.908 271.358H327.473C325.195 271.358 323.528 271.357 322.213 271.252C320.906 271.147 320.008 270.941 319.255 270.565C317.799 269.838 316.618 268.657 315.89 267.201L315.25 267.52L315.89 267.201C315.514 266.448 315.309 265.55 315.204 264.243C315.098 262.927 315.098 261.261 315.098 258.982V163.092Z" fill="#56CCF2" stroke="black" stroke-width="1.43195"/>
<rect x="116.716" y="228.716" width="163.568" height="42.568" fill="#56CCF2" stroke="#011627" stroke-width="1.43195"/>
<path d="M9.488 4.632H5.44V15H4.32V4.632H0.272V3.64H9.488V4.632ZM11.296 15.16C10.9013 15.16 10.5333 15.096 10.192 14.968C9.86133 14.8293 9.568 14.6427 9.312 14.408C9.06667 14.1733 8.87467 13.9013 8.736 13.592C8.59733 13.272 8.528 12.9307 8.528 12.568C8.528 12.2053 8.61333 11.8693 8.784 11.56C8.95467 11.2507 9.19467 10.984 9.504 10.76C9.81333 10.536 10.1813 10.3653 10.608 10.248C11.0347 10.12 11.504 10.056 12.016 10.056C12.4427 10.056 12.8747 10.0933 13.312 10.168C13.7493 10.2427 14.1387 10.3493 14.48 10.488V9.736C14.48 9 14.272 8.41867 13.856 7.992C13.44 7.55467 12.864 7.336 12.128 7.336C11.7013 7.336 11.264 7.42133 10.816 7.592C10.368 7.76267 9.91467 8.008 9.456 8.328L9.072 7.608C10.1493 6.88267 11.1947 6.52 12.208 6.52C13.2533 6.52 14.0747 6.81333 14.672 7.4C15.2693 7.98667 15.568 8.79733 15.568 9.832V13.592C15.568 13.8907 15.7013 14.04 15.968 14.04V15C15.7867 15.032 15.648 15.048 15.552 15.048C15.2747 15.048 15.056 14.9787 14.896 14.84C14.7467 14.7013 14.6667 14.5093 14.656 14.264L14.624 13.608C14.24 14.1093 13.7547 14.4933 13.168 14.76C12.592 15.0267 11.968 15.16 11.296 15.16ZM11.552 14.328C12.1173 14.328 12.6347 14.2213 13.104 14.008C13.584 13.7947 13.9467 13.512 14.192 13.16C14.288 13.064 14.3573 12.9627 14.4 12.856C14.4533 12.7387 14.48 12.632 14.48 12.536V11.176C14.1173 11.0373 13.7387 10.9307 13.344 10.856C12.96 10.7813 12.5653 10.744 12.16 10.744C11.392 10.744 10.768 10.904 10.288 11.224C9.808 11.544 9.568 11.9653 9.568 12.488C9.568 12.744 9.616 12.984 9.712 13.208C9.81867 13.432 9.95733 13.6293 10.128 13.8C10.3093 13.96 10.5227 14.088 10.768 14.184C11.0133 14.28 11.2747 14.328 11.552 14.328ZM23.8708 15L20.7988 10.728L19.0068 12.392V15H17.9188V3.32H19.0068V11.256L23.6948 6.68H24.9268L21.5188 10.088L25.0548 15H23.8708ZM29.5656 15.16C28.9576 15.16 28.3976 15.048 27.8856 14.824C27.3843 14.5893 26.947 14.2747 26.5736 13.88C26.2003 13.4747 25.907 13.0107 25.6936 12.488C25.491 11.9653 25.3896 11.4053 25.3896 10.808C25.3896 10.2213 25.491 9.672 25.6936 9.16C25.907 8.63733 26.195 8.184 26.5576 7.8C26.931 7.40533 27.3736 7.096 27.8856 6.872C28.3976 6.63733 28.9523 6.52 29.5496 6.52C30.1576 6.52 30.7123 6.63733 31.2136 6.872C31.7256 7.096 32.163 7.40533 32.5256 7.8C32.8883 8.19467 33.171 8.648 33.3736 9.16C33.5763 9.672 33.6776 10.216 33.6776 10.792C33.6776 10.8773 33.6776 10.9627 33.6776 11.048C33.6776 11.1333 33.6723 11.192 33.6616 11.224H26.5256C26.5576 11.672 26.659 12.088 26.8296 12.472C27.011 12.8453 27.2403 13.1707 27.5176 13.448C27.795 13.7253 28.1096 13.944 28.4616 14.104C28.8243 14.2533 29.2083 14.328 29.6136 14.328C29.8803 14.328 30.147 14.2907 30.4136 14.216C30.6803 14.1413 30.9256 14.04 31.1496 13.912C31.3736 13.784 31.5763 13.6293 31.7576 13.448C31.939 13.256 32.0776 13.048 32.1736 12.824L33.1176 13.08C32.9896 13.3893 32.8083 13.672 32.5736 13.928C32.339 14.1733 32.067 14.392 31.7576 14.584C31.4483 14.7653 31.107 14.904 30.7336 15C30.3603 15.1067 29.971 15.16 29.5656 15.16ZM32.6376 10.392C32.6056 9.944 32.499 9.53867 32.3176 9.176C32.147 8.80267 31.923 8.48267 31.6456 8.216C31.379 7.94933 31.0643 7.74133 30.7016 7.592C30.3496 7.44267 29.971 7.368 29.5656 7.368C29.1603 7.368 28.7763 7.44267 28.4136 7.592C28.051 7.74133 27.731 7.94933 27.4536 8.216C27.187 8.48267 26.9683 8.80267 26.7976 9.176C26.6376 9.54933 26.5416 9.95467 26.5096 10.392H32.6376ZM41.5304 15.16C41.1357 15.16 40.7677 15.096 40.4264 14.968C40.0957 14.8293 39.8024 14.6427 39.5464 14.408C39.301 14.1733 39.109 13.9013 38.9704 13.592C38.8317 13.272 38.7624 12.9307 38.7624 12.568C38.7624 12.2053 38.8477 11.8693 39.0184 11.56C39.189 11.2507 39.429 10.984 39.7384 10.76C40.0477 10.536 40.4157 10.3653 40.8424 10.248C41.269 10.12 41.7384 10.056 42.2504 10.056C42.677 10.056 43.109 10.0933 43.5464 10.168C43.9837 10.2427 44.373 10.3493 44.7144 10.488V9.736C44.7144 9 44.5064 8.41867 44.0904 7.992C43.6744 7.55467 43.0984 7.336 42.3624 7.336C41.9357 7.336 41.4984 7.42133 41.0504 7.592C40.6024 7.76267 40.149 8.008 39.6904 8.328L39.3064 7.608C40.3837 6.88267 41.429 6.52 42.4424 6.52C43.4877 6.52 44.309 6.81333 44.9064 7.4C45.5037 7.98667 45.8024 8.79733 45.8024 9.832V13.592C45.8024 13.8907 45.9357 14.04 46.2024 14.04V15C46.021 15.032 45.8824 15.048 45.7864 15.048C45.509 15.048 45.2904 14.9787 45.1304 14.84C44.981 14.7013 44.901 14.5093 44.8904 14.264L44.8584 13.608C44.4744 14.1093 43.989 14.4933 43.4024 14.76C42.8264 15.0267 42.2024 15.16 41.5304 15.16ZM41.7864 14.328C42.3517 14.328 42.869 14.2213 43.3384 14.008C43.8184 13.7947 44.181 13.512 44.4264 13.16C44.5224 13.064 44.5917 12.9627 44.6344 12.856C44.6877 12.7387 44.7144 12.632 44.7144 12.536V11.176C44.3517 11.0373 43.973 10.9307 43.5784 10.856C43.1944 10.7813 42.7997 10.744 42.3944 10.744C41.6264 10.744 41.0024 10.904 40.5224 11.224C40.0424 11.544 39.8024 11.9653 39.8024 12.488C39.8024 12.744 39.8504 12.984 39.9464 13.208C40.053 13.432 40.1917 13.6293 40.3624 13.8C40.5437 13.96 40.757 14.088 41.0024 14.184C41.2477 14.28 41.509 14.328 41.7864 14.328ZM54.9993 15.16C54.3486 15.16 53.7139 15.0533 53.0953 14.84C52.4766 14.6267 51.9433 14.3173 51.4953 13.912L51.9913 13.176C52.4606 13.56 52.9353 13.848 53.4153 14.04C53.9059 14.232 54.4286 14.328 54.9833 14.328C55.6553 14.328 56.1886 14.1947 56.5833 13.928C56.9886 13.6507 57.1913 13.2613 57.1913 12.76C57.1913 12.5253 57.1379 12.3333 57.0313 12.184C56.9246 12.024 56.7646 11.8853 56.5513 11.768C56.3486 11.6507 56.0873 11.5493 55.7673 11.464C55.4579 11.368 55.0953 11.272 54.6793 11.176C54.1993 11.0587 53.7833 10.9413 53.4313 10.824C53.0793 10.7067 52.7859 10.5733 52.5513 10.424C52.3273 10.2747 52.1566 10.0933 52.0393 9.88C51.9326 9.656 51.8793 9.37867 51.8793 9.048C51.8793 8.632 51.9593 8.264 52.1193 7.944C52.2899 7.624 52.5139 7.36267 52.7913 7.16C53.0793 6.94667 53.4099 6.78667 53.7833 6.68C54.1673 6.57333 54.5726 6.52 54.9993 6.52C55.6393 6.52 56.2206 6.62667 56.7433 6.84C57.2659 7.04267 57.6873 7.31467 58.0073 7.656L57.4793 8.296C57.1699 7.976 56.7913 7.736 56.3433 7.576C55.9059 7.416 55.4473 7.336 54.9673 7.336C54.6793 7.336 54.4126 7.368 54.1673 7.432C53.9219 7.48533 53.7033 7.576 53.5113 7.704C53.3299 7.832 53.1859 7.99733 53.0793 8.2C52.9726 8.392 52.9193 8.62133 52.9193 8.888C52.9193 9.112 52.9566 9.29333 53.0312 9.432C53.1059 9.57067 53.2286 9.69333 53.3993 9.8C53.5699 9.896 53.7833 9.98667 54.0393 10.072C54.3059 10.1467 54.6259 10.2267 54.9993 10.312C55.5326 10.44 56.0019 10.568 56.4073 10.696C56.8126 10.824 57.1486 10.9733 57.4153 11.144C57.6926 11.3147 57.9006 11.5227 58.0393 11.768C58.1779 12.0133 58.2473 12.312 58.2473 12.664C58.2473 13.432 57.9539 14.04 57.3673 14.488C56.7806 14.936 55.9913 15.16 54.9993 15.16ZM63.6281 15.16C63.0201 15.16 62.4601 15.048 61.9481 14.824C61.4468 14.5893 61.0095 14.2747 60.6361 13.88C60.2628 13.4747 59.9695 13.0107 59.7561 12.488C59.5535 11.9653 59.4521 11.4053 59.4521 10.808C59.4521 10.2213 59.5535 9.672 59.7561 9.16C59.9695 8.63733 60.2575 8.184 60.6201 7.8C60.9935 7.40533 61.4361 7.096 61.9481 6.872C62.4601 6.63733 63.0148 6.52 63.6121 6.52C64.2201 6.52 64.7748 6.63733 65.2761 6.872C65.7881 7.096 66.2255 7.40533 66.5881 7.8C66.9508 8.19467 67.2335 8.648 67.4361 9.16C67.6388 9.672 67.7401 10.216 67.7401 10.792C67.7401 10.8773 67.7401 10.9627 67.7401 11.048C67.7401 11.1333 67.7348 11.192 67.7241 11.224H60.5881C60.6201 11.672 60.7215 12.088 60.8921 12.472C61.0735 12.8453 61.3028 13.1707 61.5801 13.448C61.8575 13.7253 62.1721 13.944 62.5241 14.104C62.8868 14.2533 63.2708 14.328 63.6761 14.328C63.9428 14.328 64.2095 14.2907 64.4761 14.216C64.7428 14.1413 64.9881 14.04 65.2121 13.912C65.4361 13.784 65.6388 13.6293 65.8201 13.448C66.0015 13.256 66.1401 13.048 66.2361 12.824L67.1801 13.08C67.0521 13.3893 66.8708 13.672 66.6361 13.928C66.4015 14.1733 66.1295 14.392 65.8201 14.584C65.5108 14.7653 65.1695 14.904 64.7961 15C64.4228 15.1067 64.0335 15.16 63.6281 15.16ZM66.7001 10.392C66.6681 9.944 66.5615 9.53867 66.3801 9.176C66.2095 8.80267 65.9855 8.48267 65.7081 8.216C65.4415 7.94933 65.1268 7.74133 64.7641 7.592C64.4121 7.44267 64.0335 7.368 63.6281 7.368C63.2228 7.368 62.8388 7.44267 62.4761 7.592C62.1135 7.74133 61.7935 7.94933 61.5161 8.216C61.2495 8.48267 61.0308 8.80267 60.8601 9.176C60.7001 9.54933 60.6041 9.95467 60.5721 10.392H66.7001ZM71.5148 15.16C71.1201 15.16 70.7521 15.096 70.4108 14.968C70.0801 14.8293 69.7868 14.6427 69.5308 14.408C69.2854 14.1733 69.0934 13.9013 68.9548 13.592C68.8161 13.272 68.7467 12.9307 68.7467 12.568C68.7467 12.2053 68.8321 11.8693 69.0028 11.56C69.1734 11.2507 69.4134 10.984 69.7228 10.76C70.0321 10.536 70.4001 10.3653 70.8268 10.248C71.2534 10.12 71.7228 10.056 72.2348 10.056C72.6614 10.056 73.0934 10.0933 73.5308 10.168C73.9681 10.2427 74.3574 10.3493 74.6988 10.488V9.736C74.6988 9 74.4908 8.41867 74.0748 7.992C73.6588 7.55467 73.0828 7.336 72.3468 7.336C71.9201 7.336 71.4828 7.42133 71.0348 7.592C70.5868 7.76267 70.1334 8.008 69.6748 8.328L69.2908 7.608C70.3681 6.88267 71.4134 6.52 72.4268 6.52C73.4721 6.52 74.2934 6.81333 74.8908 7.4C75.4881 7.98667 75.7868 8.79733 75.7868 9.832V13.592C75.7868 13.8907 75.9201 14.04 76.1868 14.04V15C76.0054 15.032 75.8668 15.048 75.7708 15.048C75.4934 15.048 75.2748 14.9787 75.1148 14.84C74.9654 14.7013 74.8854 14.5093 74.8748 14.264L74.8428 13.608C74.4588 14.1093 73.9734 14.4933 73.3868 14.76C72.8108 15.0267 72.1868 15.16 71.5148 15.16ZM71.7708 14.328C72.3361 14.328 72.8534 14.2213 73.3228 14.008C73.8028 13.7947 74.1654 13.512 74.4108 13.16C74.5068 13.064 74.5761 12.9627 74.6188 12.856C74.6721 12.7387 74.6988 12.632 74.6988 12.536V11.176C74.3361 11.0373 73.9574 10.9307 73.5628 10.856C73.1788 10.7813 72.7841 10.744 72.3788 10.744C71.6108 10.744 70.9868 10.904 70.5068 11.224C70.0268 11.544 69.7868 11.9653 69.7868 12.488C69.7868 12.744 69.8348 12.984 69.9308 13.208C70.0374 13.432 70.1761 13.6293 70.3468 13.8C70.5281 13.96 70.7414 14.088 70.9868 14.184C71.2321 14.28 71.4934 14.328 71.7708 14.328ZM82.075 14.6C82.011 14.632 81.915 14.6747 81.787 14.728C81.6697 14.7813 81.531 14.8347 81.371 14.888C81.211 14.9413 81.0297 14.9893 80.827 15.032C80.6243 15.0747 80.411 15.096 80.187 15.096C79.9523 15.096 79.7283 15.064 79.515 15C79.3017 14.936 79.115 14.84 78.955 14.712C78.795 14.5733 78.667 14.4027 78.571 14.2C78.475 13.9973 78.427 13.7627 78.427 13.496V7.528H77.275V6.664H78.427V3.848H79.515V6.664H81.435V7.528H79.515V13.192C79.5363 13.5013 79.643 13.7307 79.835 13.88C80.0377 14.0187 80.267 14.088 80.523 14.088C80.8323 14.088 81.1043 14.04 81.339 13.944C81.5737 13.8373 81.723 13.7627 81.787 13.72L82.075 14.6ZM89.6085 15.16C89.2138 15.16 88.8458 15.096 88.5045 14.968C88.1738 14.8293 87.8805 14.6427 87.6245 14.408C87.3792 14.1733 87.1872 13.9013 87.0485 13.592C86.9098 13.272 86.8405 12.9307 86.8405 12.568C86.8405 12.2053 86.9258 11.8693 87.0965 11.56C87.2672 11.2507 87.5072 10.984 87.8165 10.76C88.1258 10.536 88.4938 10.3653 88.9205 10.248C89.3472 10.12 89.8165 10.056 90.3285 10.056C90.7552 10.056 91.1872 10.0933 91.6245 10.168C92.0618 10.2427 92.4512 10.3493 92.7925 10.488V9.736C92.7925 9 92.5845 8.41867 92.1685 7.992C91.7525 7.55467 91.1765 7.336 90.4405 7.336C90.0138 7.336 89.5765 7.42133 89.1285 7.592C88.6805 7.76267 88.2272 8.008 87.7685 8.328L87.3845 7.608C88.4618 6.88267 89.5072 6.52 90.5205 6.52C91.5658 6.52 92.3872 6.81333 92.9845 7.4C93.5818 7.98667 93.8805 8.79733 93.8805 9.832V13.592C93.8805 13.8907 94.0138 14.04 94.2805 14.04V15C94.0992 15.032 93.9605 15.048 93.8645 15.048C93.5872 15.048 93.3685 14.9787 93.2085 14.84C93.0592 14.7013 92.9792 14.5093 92.9685 14.264L92.9365 13.608C92.5525 14.1093 92.0672 14.4933 91.4805 14.76C90.9045 15.0267 90.2805 15.16 89.6085 15.16ZM89.8645 14.328C90.4298 14.328 90.9472 14.2213 91.4165 14.008C91.8965 13.7947 92.2592 13.512 92.5045 13.16C92.6005 13.064 92.6698 12.9627 92.7125 12.856C92.7658 12.7387 92.7925 12.632 92.7925 12.536V11.176C92.4298 11.0373 92.0512 10.9307 91.6565 10.856C91.2725 10.7813 90.8778 10.744 90.4725 10.744C89.7045 10.744 89.0805 10.904 88.6005 11.224C88.1205 11.544 87.8805 11.9653 87.8805 12.488C87.8805 12.744 87.9285 12.984 88.0245 13.208C88.1312 13.432 88.2698 13.6293 88.4405 13.8C88.6218 13.96 88.8352 14.088 89.0805 14.184C89.3258 14.28 89.5872 14.328 89.8645 14.328ZM103.239 15H102.151V10.344C102.151 9.352 102.002 8.632 101.703 8.184C101.415 7.736 100.967 7.512 100.359 7.512C100.039 7.512 99.7193 7.57067 99.3993 7.688C99.0793 7.80533 98.7806 7.97067 98.5033 8.184C98.2366 8.39733 97.9966 8.65333 97.7833 8.952C97.5699 9.24 97.4153 9.55467 97.3193 9.896V15H96.2313V6.664H97.2233V8.552C97.5646 7.944 98.0499 7.45333 98.6793 7.08C99.3193 6.70667 100.013 6.52 100.759 6.52C101.218 6.52 101.607 6.60533 101.927 6.776C102.247 6.94667 102.503 7.18667 102.695 7.496C102.887 7.80533 103.026 8.184 103.111 8.632C103.197 9.08 103.239 9.576 103.239 10.12V15ZM108.983 15.16C108.407 15.16 107.874 15.0427 107.383 14.808C106.893 14.5627 106.471 14.2427 106.119 13.848C105.767 13.4533 105.49 13 105.287 12.488C105.095 11.9653 104.999 11.4213 104.999 10.856C104.999 10.2693 105.095 9.71467 105.287 9.192C105.479 8.65867 105.741 8.19467 106.071 7.8C106.413 7.40533 106.813 7.096 107.271 6.872C107.741 6.63733 108.253 6.52 108.807 6.52C109.511 6.52 110.135 6.70667 110.679 7.08C111.223 7.44267 111.65 7.88533 111.959 8.408V3.32H113.047V13.592C113.047 13.8907 113.175 14.04 113.431 14.04V15C113.271 15.032 113.143 15.048 113.047 15.048C112.791 15.048 112.567 14.968 112.375 14.808C112.183 14.6373 112.087 14.4347 112.087 14.2V13.384C111.757 13.928 111.309 14.36 110.743 14.68C110.178 15 109.591 15.16 108.983 15.16ZM109.223 14.2C109.49 14.2 109.773 14.1467 110.071 14.04C110.381 13.9333 110.669 13.7893 110.935 13.608C111.202 13.416 111.426 13.1973 111.607 12.952C111.799 12.696 111.917 12.424 111.959 12.136V9.56C111.853 9.272 111.698 9.00533 111.495 8.76C111.293 8.504 111.058 8.28 110.791 8.088C110.535 7.896 110.258 7.74667 109.959 7.64C109.661 7.53333 109.367 7.48 109.079 7.48C108.631 7.48 108.226 7.576 107.863 7.768C107.501 7.96 107.186 8.216 106.919 8.536C106.663 8.84533 106.466 9.20267 106.327 9.608C106.189 10.0133 106.119 10.4293 106.119 10.856C106.119 11.304 106.199 11.7307 106.359 12.136C106.519 12.5413 106.738 12.8987 107.015 13.208C107.293 13.5067 107.618 13.7467 107.991 13.928C108.375 14.1093 108.786 14.2 109.223 14.2ZM122.359 15.16C121.708 15.16 121.073 15.0533 120.455 14.84C119.836 14.6267 119.303 14.3173 118.855 13.912L119.351 13.176C119.82 13.56 120.295 13.848 120.775 14.04C121.265 14.232 121.788 14.328 122.343 14.328C123.015 14.328 123.548 14.1947 123.943 13.928C124.348 13.6507 124.551 13.2613 124.551 12.76C124.551 12.5253 124.497 12.3333 124.391 12.184C124.284 12.024 124.124 11.8853 123.911 11.768C123.708 11.6507 123.447 11.5493 123.127 11.464C122.817 11.368 122.455 11.272 122.039 11.176C121.559 11.0587 121.143 10.9413 120.791 10.824C120.439 10.7067 120.145 10.5733 119.911 10.424C119.687 10.2747 119.516 10.0933 119.399 9.88C119.292 9.656 119.239 9.37867 119.239 9.048C119.239 8.632 119.319 8.264 119.479 7.944C119.649 7.624 119.873 7.36267 120.151 7.16C120.439 6.94667 120.769 6.78667 121.143 6.68C121.527 6.57333 121.932 6.52 122.359 6.52C122.999 6.52 123.58 6.62667 124.103 6.84C124.625 7.04267 125.047 7.31467 125.367 7.656L124.839 8.296C124.529 7.976 124.151 7.736 123.703 7.576C123.265 7.416 122.807 7.336 122.327 7.336C122.039 7.336 121.772 7.368 121.527 7.432C121.281 7.48533 121.063 7.576 120.871 7.704C120.689 7.832 120.545 7.99733 120.439 8.2C120.332 8.392 120.279 8.62133 120.279 8.888C120.279 9.112 120.316 9.29333 120.391 9.432C120.465 9.57067 120.588 9.69333 120.759 9.8C120.929 9.896 121.143 9.98667 121.399 10.072C121.665 10.1467 121.985 10.2267 122.359 10.312C122.892 10.44 123.361 10.568 123.767 10.696C124.172 10.824 124.508 10.9733 124.775 11.144C125.052 11.3147 125.26 11.5227 125.399 11.768C125.537 12.0133 125.607 12.312 125.607 12.664C125.607 13.432 125.313 14.04 124.727 14.488C124.14 14.936 123.351 15.16 122.359 15.16ZM131.388 14.6C131.324 14.632 131.228 14.6747 131.1 14.728C130.982 14.7813 130.844 14.8347 130.684 14.888C130.524 14.9413 130.342 14.9893 130.14 15.032C129.937 15.0747 129.724 15.096 129.5 15.096C129.265 15.096 129.041 15.064 128.828 15C128.614 14.936 128.428 14.84 128.268 14.712C128.108 14.5733 127.98 14.4027 127.884 14.2C127.788 13.9973 127.74 13.7627 127.74 13.496V7.528H126.588V6.664H127.74V3.848H128.828V6.664H130.748V7.528H128.828V13.192C128.849 13.5013 128.956 13.7307 129.148 13.88C129.35 14.0187 129.58 14.088 129.836 14.088C130.145 14.088 130.417 14.04 130.652 13.944C130.886 13.8373 131.036 13.7627 131.1 13.72L131.388 14.6ZM136.144 15.16C135.536 15.16 134.976 15.048 134.464 14.824C133.962 14.5893 133.525 14.2747 133.152 13.88C132.778 13.4747 132.485 13.0107 132.272 12.488C132.069 11.9653 131.968 11.4053 131.968 10.808C131.968 10.2213 132.069 9.672 132.272 9.16C132.485 8.63733 132.773 8.184 133.136 7.8C133.509 7.40533 133.952 7.096 134.464 6.872C134.976 6.63733 135.53 6.52 136.128 6.52C136.736 6.52 137.29 6.63733 137.792 6.872C138.304 7.096 138.741 7.40533 139.104 7.8C139.466 8.19467 139.749 8.648 139.952 9.16C140.154 9.672 140.256 10.216 140.256 10.792C140.256 10.8773 140.256 10.9627 140.256 11.048C140.256 11.1333 140.25 11.192 140.24 11.224H133.104C133.136 11.672 133.237 12.088 133.408 12.472C133.589 12.8453 133.818 13.1707 134.096 13.448C134.373 13.7253 134.688 13.944 135.04 14.104C135.402 14.2533 135.786 14.328 136.192 14.328C136.458 14.328 136.725 14.2907 136.992 14.216C137.258 14.1413 137.504 14.04 137.728 13.912C137.952 13.784 138.154 13.6293 138.336 13.448C138.517 13.256 138.656 13.048 138.752 12.824L139.696 13.08C139.568 13.3893 139.386 13.672 139.152 13.928C138.917 14.1733 138.645 14.392 138.336 14.584C138.026 14.7653 137.685 14.904 137.312 15C136.938 15.1067 136.549 15.16 136.144 15.16ZM139.216 10.392C139.184 9.944 139.077 9.53867 138.896 9.176C138.725 8.80267 138.501 8.48267 138.224 8.216C137.957 7.94933 137.642 7.74133 137.28 7.592C136.928 7.44267 136.549 7.368 136.144 7.368C135.738 7.368 135.354 7.44267 134.992 7.592C134.629 7.74133 134.309 7.94933 134.032 8.216C133.765 8.48267 133.546 8.80267 133.376 9.176C133.216 9.54933 133.12 9.95467 133.088 10.392H139.216ZM152.212 6.664H153.284L149.7 15H148.804L147.012 10.744L145.236 15H144.34L140.756 6.664H141.812L144.852 13.88L146.436 10.072L145.012 6.68H145.924L147.012 9.4L148.1 6.68H149.028L147.604 10.072L149.188 13.88L152.212 6.664ZM158.372 15V6.664H159.46V15H158.372ZM158.372 4.92V3.32H159.46V4.92H158.372ZM168.864 15H167.776V10.344C167.776 9.352 167.627 8.632 167.328 8.184C167.04 7.736 166.592 7.512 165.984 7.512C165.664 7.512 165.344 7.57067 165.024 7.688C164.704 7.80533 164.406 7.97067 164.128 8.184C163.862 8.39733 163.622 8.65333 163.408 8.952C163.195 9.24 163.04 9.55467 162.944 9.896V15H161.856V6.664H162.848V8.552C163.19 7.944 163.675 7.45333 164.304 7.08C164.944 6.70667 165.638 6.52 166.384 6.52C166.843 6.52 167.232 6.60533 167.552 6.776C167.872 6.94667 168.128 7.18667 168.32 7.496C168.512 7.80533 168.651 8.184 168.736 8.632C168.822 9.08 168.864 9.576 168.864 10.12V15ZM1.68 36.56C1.76533 36.5707 1.84533 36.576 1.92 36.576C2.00533 36.5867 2.08533 36.592 2.16 36.592C2.352 36.592 2.50133 36.5653 2.608 36.512C2.72533 36.4587 2.83733 36.3413 2.944 36.16C3.05067 35.9787 3.168 35.7173 3.296 35.376C3.43467 35.0347 3.62667 34.576 3.872 34L0.24 25.664H1.36L4.448 32.992L7.312 25.664H8.352L4.032 36.416C3.91467 36.7253 3.71733 36.992 3.44 37.216C3.17333 37.4507 2.80533 37.568 2.336 37.568C2.22933 37.568 2.128 37.5627 2.032 37.552C1.936 37.552 1.81867 37.5413 1.68 37.52V36.56ZM13.1426 34.16C12.5346 34.16 11.98 34.048 11.4786 33.824C10.9773 33.5893 10.54 33.2747 10.1666 32.88C9.80396 32.4853 9.52129 32.0267 9.31863 31.504C9.11596 30.9813 9.01463 30.432 9.01463 29.856C9.01463 29.2693 9.11596 28.7147 9.31863 28.192C9.53196 27.6693 9.81996 27.2107 10.1826 26.816C10.556 26.4213 10.9933 26.1067 11.4946 25.872C11.996 25.6373 12.5453 25.52 13.1426 25.52C13.74 25.52 14.2893 25.6373 14.7906 25.872C15.3026 26.1067 15.74 26.4213 16.1026 26.816C16.476 27.2107 16.764 27.6693 16.9666 28.192C17.18 28.7147 17.2866 29.2693 17.2866 29.856C17.2866 30.432 17.1853 30.9813 16.9826 31.504C16.78 32.0267 16.492 32.4853 16.1186 32.88C15.756 33.2747 15.3186 33.5893 14.8066 33.824C14.3053 34.048 13.7506 34.16 13.1426 34.16ZM10.1186 29.872C10.1186 30.3413 10.1986 30.7787 10.3586 31.184C10.5186 31.5787 10.732 31.9307 10.9986 32.24C11.276 32.5387 11.596 32.7733 11.9586 32.944C12.332 33.1147 12.7266 33.2 13.1426 33.2C13.5586 33.2 13.948 33.1147 14.3106 32.944C14.684 32.7627 15.0093 32.5227 15.2866 32.224C15.564 31.9147 15.7826 31.5573 15.9426 31.152C16.1026 30.7467 16.1826 30.3093 16.1826 29.84C16.1826 29.3813 16.1026 28.9493 15.9426 28.544C15.7826 28.128 15.564 27.7707 15.2866 27.472C15.0093 27.1627 14.684 26.9227 14.3106 26.752C13.948 26.5707 13.5586 26.48 13.1426 26.48C12.7266 26.48 12.3373 26.5707 11.9746 26.752C11.612 26.9227 11.292 27.1627 11.0146 27.472C10.7373 27.7813 10.5186 28.144 10.3586 28.56C10.1986 28.9653 10.1186 29.4027 10.1186 29.872ZM21.7143 34.16C20.8076 34.16 20.1303 33.8613 19.6823 33.264C19.2449 32.656 19.0263 31.7547 19.0263 30.56V25.664H20.1143V30.368C20.1143 32.256 20.7596 33.2 22.0503 33.2C22.3703 33.2 22.6849 33.1467 22.9943 33.04C23.3036 32.9333 23.5863 32.7787 23.8423 32.576C24.1089 32.3733 24.3436 32.1333 24.5463 31.856C24.7596 31.5787 24.9303 31.264 25.0583 30.912V25.664H26.1463V32.592C26.1463 32.8907 26.2743 33.04 26.5303 33.04V34C26.4023 34.0213 26.2956 34.032 26.2103 34.032C26.1356 34.032 26.0823 34.032 26.0503 34.032C25.7943 34.0213 25.5863 33.9307 25.4263 33.76C25.2663 33.5893 25.1863 33.36 25.1863 33.072V32.112C24.8236 32.7627 24.3276 33.2693 23.6983 33.632C23.0796 33.984 22.4183 34.16 21.7143 34.16ZM32.7663 26.624C32.0303 26.6453 31.3903 26.848 30.8463 27.232C30.3023 27.616 29.9183 28.144 29.6943 28.816V34H28.6063V25.664H29.6303V27.664C29.9396 27.024 30.3556 26.5227 30.8783 26.16C31.4009 25.7973 31.9609 25.616 32.5583 25.616C32.6436 25.616 32.7129 25.6213 32.7663 25.632V26.624ZM44.9111 34H43.8231V29.344C43.8231 28.352 43.6738 27.632 43.3751 27.184C43.0871 26.736 42.6391 26.512 42.0311 26.512C41.7111 26.512 41.3911 26.5707 41.0711 26.688C40.7511 26.8053 40.4525 26.9707 40.1751 27.184C39.9085 27.3973 39.6685 27.6533 39.4551 27.952C39.2418 28.24 39.0871 28.5547 38.9911 28.896V34H37.9031V25.664H38.8951V27.552C39.2365 26.944 39.7218 26.4533 40.3511 26.08C40.9911 25.7067 41.6845 25.52 42.4311 25.52C42.8898 25.52 43.2791 25.6053 43.5991 25.776C43.9191 25.9467 44.1751 26.1867 44.3671 26.496C44.5591 26.8053 44.6978 27.184 44.7831 27.632C44.8685 28.08 44.9111 28.576 44.9111 29.12V34ZM50.8313 34.16C50.2233 34.16 49.6633 34.048 49.1513 33.824C48.6499 33.5893 48.2126 33.2747 47.8393 32.88C47.4659 32.4747 47.1726 32.0107 46.9593 31.488C46.7566 30.9653 46.6553 30.4053 46.6553 29.808C46.6553 29.2213 46.7566 28.672 46.9593 28.16C47.1726 27.6373 47.4606 27.184 47.8233 26.8C48.1966 26.4053 48.6393 26.096 49.1513 25.872C49.6633 25.6373 50.2179 25.52 50.8153 25.52C51.4233 25.52 51.9779 25.6373 52.4793 25.872C52.9913 26.096 53.4286 26.4053 53.7913 26.8C54.1539 27.1947 54.4366 27.648 54.6393 28.16C54.8419 28.672 54.9433 29.216 54.9433 29.792C54.9433 29.8773 54.9433 29.9627 54.9433 30.048C54.9433 30.1333 54.9379 30.192 54.9273 30.224H47.7913C47.8233 30.672 47.9246 31.088 48.0953 31.472C48.2766 31.8453 48.5059 32.1707 48.7833 32.448C49.0606 32.7253 49.3753 32.944 49.7273 33.104C50.0899 33.2533 50.4739 33.328 50.8793 33.328C51.1459 33.328 51.4126 33.2907 51.6793 33.216C51.9459 33.1413 52.1913 33.04 52.4153 32.912C52.6393 32.784 52.8419 32.6293 53.0233 32.448C53.2046 32.256 53.3433 32.048 53.4393 31.824L54.3833 32.08C54.2553 32.3893 54.0739 32.672 53.8393 32.928C53.6046 33.1733 53.3326 33.392 53.0233 33.584C52.7139 33.7653 52.3726 33.904 51.9993 34C51.6259 34.1067 51.2366 34.16 50.8313 34.16ZM53.9033 29.392C53.8713 28.944 53.7646 28.5387 53.5833 28.176C53.4126 27.8027 53.1886 27.4827 52.9113 27.216C52.6446 26.9493 52.3299 26.7413 51.9673 26.592C51.6153 26.4427 51.2366 26.368 50.8313 26.368C50.4259 26.368 50.0419 26.4427 49.6793 26.592C49.3166 26.7413 48.9966 26.9493 48.7193 27.216C48.4526 27.4827 48.2339 27.8027 48.0633 28.176C47.9033 28.5493 47.8073 28.9547 47.7753 29.392H53.9033ZM60.7819 26.624C60.0459 26.6453 59.4059 26.848 58.8619 27.232C58.3179 27.616 57.9339 28.144 57.7099 28.816V34H56.6219V25.664H57.6459V27.664C57.9552 27.024 58.3712 26.5227 58.8939 26.16C59.4165 25.7973 59.9765 25.616 60.5739 25.616C60.6592 25.616 60.7285 25.6213 60.7819 25.632V26.624ZM64.7273 34L61.3353 25.664H62.4553L65.3193 32.992L68.1993 25.664H69.2552L65.8633 34H64.7273ZM74.0813 34.16C73.4733 34.16 72.9133 34.048 72.4013 33.824C71.8999 33.5893 71.4626 33.2747 71.0893 32.88C70.7159 32.4747 70.4226 32.0107 70.2093 31.488C70.0066 30.9653 69.9053 30.4053 69.9053 29.808C69.9053 29.2213 70.0066 28.672 70.2093 28.16C70.4226 27.6373 70.7106 27.184 71.0733 26.8C71.4466 26.4053 71.8893 26.096 72.4013 25.872C72.9133 25.6373 73.4679 25.52 74.0653 25.52C74.6733 25.52 75.2279 25.6373 75.7293 25.872C76.2413 26.096 76.6786 26.4053 77.0413 26.8C77.4039 27.1947 77.6866 27.648 77.8893 28.16C78.0919 28.672 78.1933 29.216 78.1933 29.792C78.1933 29.8773 78.1933 29.9627 78.1933 30.048C78.1933 30.1333 78.1879 30.192 78.1773 30.224H71.0413C71.0733 30.672 71.1746 31.088 71.3453 31.472C71.5266 31.8453 71.7559 32.1707 72.0333 32.448C72.3106 32.7253 72.6253 32.944 72.9773 33.104C73.3399 33.2533 73.7239 33.328 74.1293 33.328C74.3959 33.328 74.6626 33.2907 74.9293 33.216C75.1959 33.1413 75.4413 33.04 75.6653 32.912C75.8893 32.784 76.0919 32.6293 76.2733 32.448C76.4546 32.256 76.5933 32.048 76.6893 31.824L77.6333 32.08C77.5053 32.3893 77.3239 32.672 77.0893 32.928C76.8546 33.1733 76.5826 33.392 76.2733 33.584C75.9639 33.7653 75.6226 33.904 75.2493 34C74.8759 34.1067 74.4866 34.16 74.0813 34.16ZM77.1533 29.392C77.1213 28.944 77.0146 28.5387 76.8333 28.176C76.6626 27.8027 76.4386 27.4827 76.1613 27.216C75.8946 26.9493 75.5799 26.7413 75.2173 26.592C74.8653 26.4427 74.4866 26.368 74.0813 26.368C73.6759 26.368 73.2919 26.4427 72.9293 26.592C72.5666 26.7413 72.2466 26.9493 71.9693 27.216C71.7026 27.4827 71.4839 27.8027 71.3133 28.176C71.1533 28.5493 71.0573 28.9547 71.0253 29.392H77.1533ZM82.6399 34.16C81.9892 34.16 81.3545 34.0533 80.7359 33.84C80.1172 33.6267 79.5839 33.3173 79.1359 32.912L79.6319 32.176C80.1012 32.56 80.5759 32.848 81.0559 33.04C81.5465 33.232 82.0692 33.328 82.6239 33.328C83.2959 33.328 83.8292 33.1947 84.2239 32.928C84.6292 32.6507 84.8319 32.2613 84.8319 31.76C84.8319 31.5253 84.7785 31.3333 84.6719 31.184C84.5652 31.024 84.4052 30.8853 84.1919 30.768C83.9892 30.6507 83.7279 30.5493 83.4079 30.464C83.0985 30.368 82.7359 30.272 82.3199 30.176C81.8399 30.0587 81.4239 29.9413 81.0719 29.824C80.7199 29.7067 80.4265 29.5733 80.1919 29.424C79.9679 29.2747 79.7972 29.0933 79.6799 28.88C79.5732 28.656 79.5199 28.3787 79.5199 28.048C79.5199 27.632 79.5999 27.264 79.7599 26.944C79.9305 26.624 80.1545 26.3627 80.4319 26.16C80.7199 25.9467 81.0505 25.7867 81.4239 25.68C81.8079 25.5733 82.2132 25.52 82.6399 25.52C83.2799 25.52 83.8612 25.6267 84.3839 25.84C84.9065 26.0427 85.3279 26.3147 85.6479 26.656L85.1199 27.296C84.8105 26.976 84.4319 26.736 83.9839 26.576C83.5465 26.416 83.0879 26.336 82.6079 26.336C82.3199 26.336 82.0532 26.368 81.8079 26.432C81.5625 26.4853 81.3439 26.576 81.1519 26.704C80.9705 26.832 80.8265 26.9973 80.7199 27.2C80.6132 27.392 80.5599 27.6213 80.5599 27.888C80.5599 28.112 80.5972 28.2933 80.6719 28.432C80.7465 28.5707 80.8692 28.6933 81.0399 28.8C81.2105 28.896 81.4239 28.9867 81.6799 29.072C81.9465 29.1467 82.2665 29.2267 82.6399 29.312C83.1732 29.44 83.6425 29.568 84.0479 29.696C84.4532 29.824 84.7892 29.9733 85.0559 30.144C85.3332 30.3147 85.5412 30.5227 85.6799 30.768C85.8185 31.0133 85.8879 31.312 85.8879 31.664C85.8879 32.432 85.5945 33.04 85.0079 33.488C84.4212 33.936 83.6319 34.16 82.6399 34.16ZM87.5088 34V32.432H88.4528V34H87.5088ZM90.54 34V32.432H91.484V34H90.54ZM93.5713 34V32.432H94.5153V34H93.5713Z" fill="white"/>
<path d="M100 44.5C130 55.6667 138.8 65.4 142 111" stroke="white" stroke-width="2" stroke-linecap="round" stroke-linejoin="round"/>
<path d="M134 104.5L142 112L149.5 101.5" stroke="white" stroke-width="2" stroke-linecap="round" stroke-linejoin="round"/>
</g>
<defs>
<clipPath id="clip0">
<rect width="425" height="281.855" fill="white"/>
</clipPath>
</defs>
</svg>
